<?xml version="1.0" encoding="utf-8"?>
<!-- Generator: Adobe Illustrator 23.0.1, SVG Export Plug-In . SVG Version: 6.00 Build 0)  -->
<svg version="1.1" id="BACKGROUND" xmlns="http://www.w3.org/2000/svg" xmlns:xlink="http://www.w3.org/1999/xlink" x="0px" y="0px"
	 viewBox="0 0 800 450" style="enable-background:new 0 0 800 450;" xml:space="preserve">
<style type="text/css">
	.st0{clip-path:url(#SVGID_2_);}
	.st1{fill:url(#SVGID_3_);}
	.st2{fill:url(#SVGID_4_);}
	.st3{fill:url(#SVGID_5_);}
	.st4{fill:url(#SVGID_6_);}
	.st5{fill:#CD947D;}
	.st6{fill:#E0CAC6;}
	.st7{fill:#A36150;}
	.st8{opacity:0.4;fill:#CD947D;}
	.st9{fill:#B79376;}
	.st10{opacity:0.4;fill:#B79376;}
	.st11{fill:url(#SVGID_7_);}
	.st12{opacity:0.3;fill:url(#SVGID_8_);}
	.st13{opacity:0.3;fill:url(#SVGID_9_);}
	.st14{opacity:0.3;fill:url(#SVGID_10_);}
	.st15{fill:url(#SVGID_11_);}
	.st16{fill:#5B6D3C;}
</style>
<g>
	<g>
		<defs>
			<rect id="SVGID_1_" width="800" height="450"/>
		</defs>
		<clipPath id="SVGID_2_">
			<use xlink:href="#SVGID_1_"  style="overflow:visible;"/>
		</clipPath>
		<g class="st0">
			<linearGradient id="SVGID_3_" gradientUnits="userSpaceOnUse" x1="396.5928" y1="228.0902" x2="396.5928" y2="8.283691e-02">
				<stop  offset="0" style="stop-color:#DEF1F0"/>
				<stop  offset="1" style="stop-color:#B6DDEE"/>
			</linearGradient>
			<rect x="-15.8" y="-7.5" class="st1" width="824.8" height="465"/>
			<linearGradient id="SVGID_4_" gradientUnits="userSpaceOnUse" x1="-29.018" y1="101.6999" x2="515.684" y2="101.6999">
				<stop  offset="0" style="stop-color:#FFFFFF"/>
				<stop  offset="0.9961" style="stop-color:#FFFFFF;stop-opacity:0"/>
			</linearGradient>
			<path class="st2" d="M-26.4,28.2C44.7,55,125.2,54.2,192.2,90.1c10.6,5.7,21.2,12.4,33.2,13c14.5,0.8,27.1-5.3,41.7-1.3
				c9.7,2.7,18.7,7.5,27.8,11.9c16.5,8,33.7,14.5,50.9,21c8.2,3.1,16.4,6.2,24.9,8.6c8.4,2.3,17,3.9,25.7,5.5
				c23.6,4.3,47.2,8.6,70.7,13c11.5,2.1,23.1,4.4,34.8,5.1c3.9,0.2,22.8,2.4,8.7,7.7c-3.6,1.4-6.7-0.2-10.3-0.8
				c-12-1.9-24.1-6.9-36.4-5.8c-5.5,0.5-11.3,2.4-16.5,0.3c-4.4-1.8-7.5-6.3-12.1-7.1c-5.2-0.9-10.3,3.1-15.6,2.7
				c-5-0.4-8.8-4.6-13.4-6.6c-9.3-4-20.1,1.3-30-0.5c-9.2-1.7-17.3-9.6-26.6-8c-5.8,1-10.8,5.5-16.6,5.1c-3.2-0.2-6-1.9-8.7-3.6
				c-12.1-7.4-26.6-17.4-40.6-20.5c-9-2-18.2,0.5-27.4,0.9c-39.7,1.8-76.2-33.8-115-25.2c-4.7,1-9.3,2.7-14.1,3.7
				c-7.9,1.7-16,1.4-24,1.1c-12.6-0.4-25.5-0.9-37.3-5.4c-4.3-1.6-8.7-3.8-13.2-3.1c-7.7,1.1-12.4,9.8-19.9,11.5
				c-4.9,1.1-9.9-1.1-14.6-2.8c-15-5.5-31.4-7.2-47.3-4.8L-26.4,28.2z"/>
			<linearGradient id="SVGID_5_" gradientUnits="userSpaceOnUse" x1="394.3882" y1="10.3348" x2="380.3882" y2="86.3344">
				<stop  offset="0" style="stop-color:#FFFFFF"/>
				<stop  offset="0.9961" style="stop-color:#FFFFFF;stop-opacity:0"/>
			</linearGradient>
			<path class="st3" d="M267.3,3c8.7,0.4,18.1,0.6,25.2,5.8c6.9,5.1,12.1,15,20.6,13.9c2.6-0.3,4.9-1.7,7.5-1.8
				c5.8-0.2,9.6,5.6,13.1,10.1c5.1,6.4,11.9,11.5,19.5,14.4c8.8,3.4,18.5,4,28,4.6c15.7,0.9,31.4,1.9,47.1,2.8c17,1,34,2.1,50.8,4.8
				c18.9,3.1,37.5,8.4,55.9,13.6c25.7,7.3,51.3,14.6,77,21.9c10.9,3.1,22.3,6.2,33.4,4.1c5.2-1,10.4-3.1,15.5-2
				c6.5,1.4,10.7,7.4,15.8,11.6c14,11.5,34.1,9.4,52.2,8.2c11.4-0.8,23.2-0.4,34,3.8c3.3,1.3,21.9,9.8,15,14.4
				c-2.6,1.8-13.6-5.2-16.2-6c-18.8-6.1-40.2-6.7-59.8-8.7c-27.6-2.8-55.1-5.6-82.8-6.8c-9-0.4-18.2-0.7-26.6-3.8
				c-4.1-1.5-8-3.7-12.2-4.7c-8.6-2.1-17.7,0.7-26.4-1c-5.8-1.1-11-4.1-16.4-6.6c-25.4-12.1-54-14.8-82-17.4
				c-38.7-3.5-77.5-7.1-116.2-10.6c-5.5-0.5-11.1-1-16.4,0.3c-5.7,1.4-10.8,4.8-16.6,6.1c-15.6,3.4-29.6-9.1-44.6-14.6
				c-23.8-8.7-51.3,0.7-75.2-7.6c-10.4-3.6-19.5-10.4-30.1-13.3c-17-4.5-35.5,1.8-52.5-3c-10.2-2.9-19.3-9.6-29.8-11.3
				c-5.8-0.9-11.7-0.2-17.6-0.1c-12.9,0.2-25.7-2.4-38.3-4.9c-7.3-1.5-15-3.2-20.2-8.4C-11.3,1.5-9-14-5.9-26.8
				c48.2-10.9,91.1-12.1,139-0.1C177.5-15.8,221.2,0.6,267.3,3z"/>
			<linearGradient id="SVGID_6_" gradientUnits="userSpaceOnUse" x1="404.4126" y1="190" x2="404.4126" y2="260.0072">
				<stop  offset="0" style="stop-color:#8EABD8"/>
				<stop  offset="1" style="stop-color:#6485B5"/>
			</linearGradient>
			<path class="st4" d="M-9.8,216.1l39.6-10.5l26.4,9l35.2,3l36.7-15l33.7-25.5l33.7,19.5l60.1,16.5l88,10.5l38.1,1.5l60.1-18
				l39.6,12l32.3-21l16.1-12l89.4,30l51.3,1.5l61.6-25.5l33.7,4.5c0,0,26.4,21,30.8,21s24.9,30,24.9,30v46.5H-12.7L-9.8,216.1z"/>
			<g>
				<path class="st5" d="M815.6,242l-56.7-5l-26.4-16l-23.5-17l-23.5-61L671,90c0,0-24.4-12-47.9-10l-3.9,33l-2.9-31l-22.5,1l4.9,59
					l-12.7,10v40l-19.6,5l-45.9,21l-3.9,17l-121.2,16L322,266c0,0-182.8-2-185.7-2c-2.9,0-33.2-29-33.2-29s1-40,1-43s-17.6-9-26.4-2
					l-1,30l-5.9-29L58,194l2,34l5.9,23l-17.6,8c0,0-13.7,7-18.6,7c-4.9,0-45.9,5-45.9,5v38h837.8L815.6,242z"/>
				<g>
					<polygon class="st6" points="625.2,83.7 622.4,139.4 625.2,155.2 624.9,171.3 615.5,190.4 627.7,168.2 628.7,149.8 
						669.9,139.6 631.5,146.8 625.2,135.3 628,89.3 631.8,140.4 630.5,88.3 643,93.4 654.3,92.4 664.2,105.7 655.8,90.6 					"/>
					<path class="st7" d="M666.2,103l5.1,21.4l-7.4,12.1l-23.2,6l30.7-6.5l7.9,32.1l-14.4,9.8l4.2,19.1l-5.6,7l20.5-0.9
						c0,0-9.8,27-9.8,28.4s21.9,7.4,21.9,7.4l54.9,13.9c0,0,17.2-2.3,18.6-2.3s46.2-8.4,46.2-8.4l-56.7-5l-26.4-16l-23.5-17
						l-23.5-61L671,90c0,0-24.4-12-47.9-10l33.4,9.5L666.2,103z"/>
					<path class="st8" d="M815.6,242l-56.7-5l-26.4-16l-23.5-17l-23.5-61L671,90c0,0-11.1-5.4-25.5-8.4
						c8.5,48.3,10.9,176.2-194.4,203.1c-50.6,6.6-64.8,15-55.1,24.3h425.5L815.6,242z"/>
					<polygon class="st6" points="528.4,223.8 552.3,213.2 592.8,195.2 591.5,156 608.8,139.4 599.5,88.2 608.9,82.5 608.7,82.3 
						593.7,83 598.6,142 585.9,152 585.9,192 566.4,197 520.4,218 516.5,235 395.3,251 390.8,251.9 524.4,239.1 					"/>
					<path class="st7" d="M616.2,82l-7.3,0.5l8,32.4l-2.2,18.3l1.6,17.6l-7.4,20.8l-2.6,13.8c0,0-12.2,5.8-10.9,5.8
						c1.3,0,13.8-5.1,13.8-5.1l2.2-15.4l8-21.5l-2.2-17.3l1.9-18.9L616.2,82z"/>
				</g>
				<g>
					<path class="st7" d="M59.6,264.4c1-1,1.7-2.2,2.6-3.3c2.9-3.3,7.8-3.8,12.2-4.1c-3.7-5.8-5.9-12.7-6.3-19.6
						c-1.2-0.6-2.8-0.5-4,0.3c-1-11.4-1.2-22.8-0.5-34.2c1.1,3.9,2.2,7.9,3.3,11.8c-1-5.1-4.8-17.4-2-22.9L58,194l2,34l5.9,23
						l-17.6,8c0,0-8.4,4.3-14.4,6.2c5.2,0.4,10.4,0.8,15.5,1.3C52.9,266.7,57,266.8,59.6,264.4z"/>
					<path class="st6" d="M67.2,196.1c-0.4,0.6-0.3,1.4-0.2,2.1c0.8,8.4,1.6,16.7,2.4,25.1c0.2,2.6,0.5,5.2,1.4,7.6
						c0.6-10.3,0.1-20.7-1.4-30.9c0-0.2,0-0.3,0-0.5c0.1-0.6,1-0.6,1.4-0.2c0.4,0.4,0.5,1,0.5,1.6c0.5,7.9,1.4,15.8,3.4,23.5
						c-0.1-8.7-1-17.4-2.8-26c-0.2-0.8-0.4-1.7-0.9-2.3C70.3,195.3,67.9,195,67.2,196.1z"/>
					<path class="st6" d="M83.6,213.8c0.5,1.1-0.5,2.3-1.4,3.1c-1.6,1.4-3.2,2.8-4.8,4.1c0.3,0.1,0.6,0.2,1,0.3
						c-0.6,4.5-1.7,9-3.2,13.3c1.5-3,2.5-6.2,3-9.4c0.1-0.8,0.2-1.7,0.6-2.4c0.6-1.4,2-2.2,3.2-3.1c0.7-0.5,1.3-1,1.7-1.7
						c0.2-0.4,0.4-0.9,0.5-1.4c1.5-6.8,1.3-13.8,1.7-20.8c0.1-1.9,0.2-3.8,0.9-5.5c2,4,1,8.8,1.7,13.2c0.1-4.4-0.2-8.8-0.7-13.2
						c3.3-0.1,6.7,0.2,9.9,1c0,1.8,0.1,3.7,0.4,5.5c0.6-1.8,0.7-3.7,0.4-5.6c1.5,0.2,2.9,0.4,4.4,0.8c-0.4-0.9-1.5-1.3-2.5-1.6
						c-4.4-1.2-8.9-1.7-13.4-1.5c-0.4,0-0.8,0.1-1,0.4c-0.1,0.2-0.2,0.4-0.2,0.6c-1.2,9-2,18-2.2,27.1"/>
					<polygon class="st6" points="74.4,257 88.6,258.1 102.5,249.9 103,235 104.5,250.5 92.1,257.8 94.1,260.7 91.4,257.8 
						87.4,259.8 					"/>
					<path class="st6" d="M92.1,196.4c0,0,0.2,29.8-1.1,43.7C90.9,240.1,94.1,215.5,92.1,196.4z"/>
					<path class="st6" d="M88.9,207.4c0,0-0.9,22-4.9,33.9C84,241.3,89.4,228.7,88.9,207.4z"/>
					<path class="st8" d="M74.4,257l12.7,2l2.5-0.9L94,255c-21-11.4-26.4-43.9-27.7-63l-8.3,2l2,34l5.6,22.1l0.3,0.6L74.4,257z"/>
				</g>
			</g>
			<g>
				<path class="st9" d="M821.5,272c-2.9,0-50.8-6-50.8-6l-34.2-16l-41.1-1l-41.1-2l-21.5-6l-106.6,7l-28.3,6l-27.4-2
					c0,0-53.8,6-61.6,7c-7.8,1-40.1,9-40.1,9s-23.5,1-40.1,0c-16.6-1-25.4-1-37.1-1c-11.7,0-152.5,4-152.5,4l-38.1-4
					c0,0-19.6,4-30.3,5c-10.8,1-36.2,4-36.2,4h-48.9v33h833.9L821.5,272z"/>
				<path class="st10" d="M821.3,276.5c-20-1.1-39.7-5.3-59.2-9.3c-11.8-2.4-23.5-4.8-35.4-6.6c-74.5-10.8-150,5.9-225.2,7.8
					c-27.3,0.7-54.6-0.5-81.9,0.1c-42.2,0.9-84.2,6.1-125.3,15.6c19.3,2,38.8,1.5,58.2,1.9c65.6,1.1,130.3,11.6,195.1,23h272.1
					L821.3,276.5z"/>
			</g>
			<path class="st7" d="M83.6,188l-1.4,16.9v9.6l-5.6,5.6l1-30C77.6,190,79.1,188.8,83.6,188z"/>
			<g>
				<linearGradient id="SVGID_7_" gradientUnits="userSpaceOnUse" x1="402.401" y1="451.3333" x2="402.401" y2="289.3112">
					<stop  offset="0" style="stop-color:#E2B47D"/>
					<stop  offset="1" style="stop-color:#E3C57C"/>
				</linearGradient>
				<path class="st11" d="M818.4,283.4c-129.5,12.4-259.6-8.3-389.6-11.8c-51.5-1.4-103,0-154.4,1.3c-96,2.5-192,5-288,7.5V467
					h831.2L818.4,283.4z"/>
				<linearGradient id="SVGID_8_" gradientUnits="userSpaceOnUse" x1="52" y1="340.0105" x2="818.16" y2="340.0105">
					<stop  offset="0" style="stop-color:#E2B47D"/>
					<stop  offset="1" style="stop-color:#E3C57C"/>
				</linearGradient>
				<path class="st12" d="M818,332h-33l-71-17l-147,14l-162-1l-99,4l-109,21l-145,2l452,3l178,2c0,0,131,4,134,5S818,332,818,332z"
					/>
			</g>
			<linearGradient id="SVGID_9_" gradientUnits="userSpaceOnUse" x1="-14.6173" y1="308.3268" x2="231.8639" y2="308.3268">
				<stop  offset="0" style="stop-color:#E2B47D"/>
				<stop  offset="1" style="stop-color:#E3C57C"/>
			</linearGradient>
			<path class="st13" d="M-14.6,298.7l54.2-2.6L73.3,310l103.7,5.3h54.8c0,0-142.1,5.9-145.4,5.3s-23.1-3.3-26.4-2.6s-35.7-2-39,0
				c-3.3,2-35-1.3-35-1.3L-14.6,298.7z"/>
			<linearGradient id="SVGID_10_" gradientUnits="userSpaceOnUse" x1="402.3334" y1="286.2545" x2="640.0475" y2="484.6347">
				<stop  offset="0" style="stop-color:#E2B47D"/>
				<stop  offset="1" style="stop-color:#E3C57C"/>
			</linearGradient>
			<polygon class="st14" points="826.3,388.9 430.7,391.3 387.3,408.1 322.3,402.5 258.9,417.8 472.4,420.2 503.7,406.5 
				530.2,413.7 819.9,412.9 			"/>
			<g>
				<linearGradient id="SVGID_11_" gradientUnits="userSpaceOnUse" x1="401.6779" y1="268.1068" x2="426.9218" y2="318.7487">
					<stop  offset="0" style="stop-color:#E2B47D"/>
					<stop  offset="1" style="stop-color:#E3C57C;stop-opacity:0"/>
				</linearGradient>
				<path class="st15" d="M352.2,292.5c0,0,14.3,8.2,14.3,8.7c0,0.5,4.5,6.5,4.5,6.5l6.5,1.5l32.1,6.9c0,0,14.7-1.2,16.1-0.5
					c1.3,0.7,30.9,0.5,30.9,0.5l18.6-2l6.9-2.8l-1-7.5l-22.4-10.8l-57.8-3.9L352.2,292.5z"/>
				<g>
					<path class="st16" d="M377.6,276.7c-2.6,2.1-4.6,4.7-5.9,7.7c0.5-2.6,1.2-5.2,2.3-7.7c-1.5,2-2.7,4.3-3.5,6.7
						c-0.1-2.3-0.1-4.6,0-7c-0.4,2.7-0.8,5.3-1.2,8c0.1-2.7-0.3-5.4-1-8.1c-0.1,2.6-0.2,5.2-0.3,7.8c-0.6-3-1.1-6.1-2.7-8.8
						c0.2,3.2,0.6,6.5,1.1,9.7c-0.7-4-2.7-7.8-5.6-10.6c1.7,3.4,3,7,3.8,10.8c-1.4-3.7-3.7-7.1-6.7-9.8c1.8,2.5,3.3,5.1,4.5,8
						c0.4,0.9,0.9,3.6,1.6,4.1c0.8,0.6,3.7,0.4,4.7,0.5c1.3,0.1,2.6,0.3,3.8,0.1C373.4,284.6,374.6,279.2,377.6,276.7z"/>
					<path class="st16" d="M459.7,280.3c-2.6,2.1-4.6,4.7-5.9,7.7c0.5-2.6,1.2-5.2,2.3-7.7c-1.5,2-2.7,4.3-3.5,6.7
						c-0.1-2.3-0.1-4.6,0-7c-0.4,2.7-0.8,5.3-1.2,8c0.1-2.7-0.3-5.4-1-8.1c-0.1,2.6-0.2,5.2-0.3,7.8c-0.6-3-1.1-6.1-2.7-8.8
						c0.2,3.2,0.6,6.5,1.1,9.7c-0.7-4-2.7-7.8-5.6-10.6c1.7,3.4,3,7,3.8,10.8c-1.4-3.7-3.7-7.1-6.7-9.8c1.8,2.5,3.3,5.1,4.5,8
						c0.4,0.9,0.9,3.6,1.6,4.1c0.8,0.6,3.7,0.4,4.7,0.5c1.3,0.1,2.6,0.3,3.8,0.1C455.4,288.2,456.7,282.7,459.7,280.3z"/>
					<path class="st16" d="M445.8,278.2c-2.6,2.1-4.6,4.7-5.9,7.7c0.5-2.6,1.2-5.2,2.3-7.7c-1.5,2-2.7,4.3-3.5,6.7
						c-0.1-2.3-0.1-4.6,0-7c-0.4,2.7-0.8,5.3-1.2,8c0.1-2.7-0.3-5.4-1-8.1c-0.1,2.6-0.2,5.2-0.3,7.8c-0.6-3-1.1-6.1-2.7-8.8
						c0.2,3.2,0.6,6.5,1.1,9.7c-0.7-4-2.7-7.8-5.6-10.6c1.7,3.4,3,7,3.8,10.8c-1.4-3.7-3.7-7.1-6.7-9.8c1.8,2.5,3.3,5.1,4.5,8
						c0.4,0.9,0.9,3.6,1.6,4.1c0.8,0.6,3.7,0.4,4.7,0.5c1.3,0.1,2.6,0.3,3.8,0.1C441.5,286,442.7,280.6,445.8,278.2z"/>
					<g>
						<path class="st5" d="M354.7,287.5l13.2-6.2l12,0.8h9.5c0,0,6.6,5.4,7.9,5.4c1.2,0,10.8-1.7,10.8-1.7l9.1-2.5
							c0,0,9.9-1.7,11.6-1.7c1.7,0,14.1,0.8,14.1,0.8l6.2,4.1l9.5,6.2H406l-6.2-1.7l-8.7,2.1l-38.9-0.8L354.7,287.5z"/>
						<path class="st7" d="M352.2,292.5l38.9,0.8l8.7-2.1l6.2,1.7h52.6l-9.5-6.2l-6.2-4.1l-0.5,6.3l-6.9-1.9l-4.4,3.2l-19.4,0.6
							c0,0,0.7-4.7,1.2-4.7c0.2,0,0.1-0.7,0-1.5l-4.9,1.3c0,0-9.5,1.7-10.8,1.7l-3.3,1c0,0-14.9,1.5-17,0.9
							c-2.1-0.6-10.9,0.5-10.9,0.5l-3.8-3.7l5.6-4.9l-13.2,6.2L352.2,292.5z"/>
						<path class="st8" d="M352.2,292.5l38.9,0.8l8.7-2.1l6.2,1.7h52.6l-9.5-6.2l-2.6-1.7c-17.3,2.7-33.9,2.1-41.7,1.5
							c-2.9,0.5-6.7,1.1-7.4,1.1c-0.2,0-0.4-0.1-0.7-0.2c-17,5.8-28.6,0.8-34.5-3.3l-7.5,3.5L352.2,292.5z"/>
					</g>
					<path class="st16" d="M415.7,285.2c-2.6,2.1-4.6,4.7-5.9,7.7c0.5-2.6,1.2-5.2,2.3-7.7c-1.5,2-2.7,4.3-3.5,6.7
						c-0.1-2.3-0.1-4.6,0-7c-0.4,2.7-0.8,5.3-1.2,8c0.1-2.7-0.3-5.4-1-8.1c-0.1,2.6-0.2,5.2-0.3,7.8c-0.6-3-1.1-6.1-2.7-8.8
						c0.2,3.2,0.6,6.5,1.1,9.7c-0.7-4-2.7-7.8-5.6-10.6c1.7,3.4,3,7,3.8,10.8c-1.4-3.7-3.7-7.1-6.7-9.8c1.8,2.5,3.3,5.1,4.5,8
						c0.4,0.9,0.9,3.6,1.6,4.1c0.8,0.6,3.7,0.4,4.7,0.5c1.3,0.1,2.6,0.3,3.8,0.1C411.5,293.1,412.7,287.7,415.7,285.2z"/>
				</g>
			</g>
		</g>
	</g>
</g>
</svg>
