<?xml version="1.0" encoding="utf-8"?>
<!-- Generator: Adobe Illustrator 23.0.1, SVG Export Plug-In . SVG Version: 6.00 Build 0)  -->
<svg version="1.1" id="Layer" xmlns="http://www.w3.org/2000/svg" xmlns:xlink="http://www.w3.org/1999/xlink" x="0px" y="0px"
	 viewBox="0 0 335.99 235.19" style="enable-background:new 0 0 335.99 235.19;" xml:space="preserve">
<style type="text/css">
	.st0{fill:#DAF4FF;}
	.st1{fill:#FFFFFF;}
	.st2{fill:#719199;}
	.st3{fill:#A1B6BB;}
	.st4{fill:#A6C3C9;}
	.st5{fill:#86ADBE;}
	.st6{fill:#6B8890;}
	.st7{fill:#617C83;}
	.st8{fill:url(#SVGID_1_);}
	.st9{fill-rule:evenodd;clip-rule:evenodd;fill:#719199;}
	.st10{fill-rule:evenodd;clip-rule:evenodd;fill:#A1B6BB;}
	.st11{fill-rule:evenodd;clip-rule:evenodd;fill:#86ADBE;}
	.st12{fill:#B6E0ED;}
	.st13{opacity:0.31;fill-rule:evenodd;clip-rule:evenodd;fill:#ECFAFF;}
	.st14{filter:url(#Adobe_OpacityMaskFilter);}
	.st15{filter:url(#Adobe_OpacityMaskFilter_1_);}
	.st16{mask:url(#SVGID_2_);fill-rule:evenodd;clip-rule:evenodd;fill:url(#SVGID_3_);}
	.st17{opacity:0.7;fill-rule:evenodd;clip-rule:evenodd;fill:url(#SVGID_4_);}
</style>
<rect y="0" class="st0" width="335.99" height="235.19"/>
<g>
	<path class="st1" d="M167.64,37.67c-7.32,2.65-11.11,10.74-8.46,18.06c2.65,7.32,10.74,11.11,18.06,8.46
		c0.24-0.09,0.47-0.18,0.71-0.28c-1.71,1.93-3.91,3.46-6.51,4.4c-8.31,3.01-17.49-1.29-20.5-9.61c-3.01-8.31,1.29-17.49,9.61-20.5
		c2.59-0.94,5.27-1.17,7.82-0.78C168.12,37.51,167.88,37.58,167.64,37.67z"/>
</g>
<path class="st2" d="M277.48,153.12c-0.72,0.46-1.5,0.9-2.28,1.33c0.49,0.1,0.98,0.19,1.47,0.29c0.45-0.08,0.97-0.2,1.57-0.38
	l-0.61,0.57c12.54,2.49,25.22,5.17,38.03,7.94c-0.93-0.56-1.82-1.13-2.67-1.73c0.48,0,0.72-0.06,0.72-0.06
	c-1.27-0.66-2.44-1.37-3.55-2.11c-0.51-0.42-1.01-0.85-1.49-1.29c1.51,0.48,2.78,0.23,2.78,0.23l-1.38-1.28
	c2.44,0.75,3.64,0.44,3.64,0.44c-0.85-0.44-1.66-0.91-2.44-1.4c0.11-0.01,0.18-0.03,0.18-0.03l-1.38-1.28
	c2.44,0.75,3.64,0.44,3.64,0.44c-1.02-0.53-1.97-1.09-2.88-1.68c1.92,0.47,2.88,0.23,2.88,0.23c-2.73-1.41-5.07-3.06-7.09-4.83
	c1.06,0.24,1.89,0.09,1.89,0.09l-1.15-1.06c2.03,0.62,3.02,0.37,3.02,0.37c-0.59-0.31-1.15-0.63-1.7-0.97
	c0.08-0.01,0.13-0.02,0.13-0.02c-0.3-0.17-0.59-0.35-0.88-0.53c0.35-0.01,0.58-0.05,0.58-0.05l-1.15-1.06
	c2.03,0.62,3.02,0.37,3.02,0.37c-0.59-0.31-1.16-0.63-1.71-0.96c0.09-0.01,0.14-0.03,0.14-0.03c-0.44-0.25-0.86-0.5-1.27-0.77
	c1.89,0.55,2.84,0.31,2.84,0.31c-0.59-0.31-1.16-0.63-1.71-0.96c0.09-0.01,0.14-0.03,0.14-0.03c-1.5-0.84-2.83-1.79-4.04-2.81
	c0.08-0.01,0.14-0.02,0.14-0.02l-0.21-0.19l-0.4-0.4l-0.1-0.16c0.84,0.24,1.43,0.28,1.77,0.27c0.67,0.08,1.15-0.02,1.15-0.02
	l-1.04-1.04c1.83,0.61,2.73,0.36,2.73,0.36c-0.85-0.48-1.66-1-2.41-1.53c0.44,0.01,0.72-0.04,0.72-0.04l-1.04-1.04
	c1.83,0.61,2.73,0.36,2.73,0.36c-0.93-0.52-1.8-1.09-2.62-1.69l-0.11-0.11c1.83,0.61,2.73,0.36,2.73,0.36
	c-1.57-0.89-2.97-1.89-4.23-2.96c0.1-0.01,0.16-0.02,0.16-0.02l-0.85-0.85c1.49,0.5,2.23,0.29,2.23,0.29
	c-0.95-0.54-1.82-1.13-2.63-1.75c0.71,0.14,1.24,0.04,1.24,0.04l-0.85-0.85c1.49,0.5,2.23,0.29,2.23,0.29
	c-0.49-0.28-0.96-0.58-1.42-0.88c0.02,0,0.03-0.01,0.03-0.01l-0.85-0.85c1.49,0.5,2.23,0.29,2.23,0.29
	c-1.35-0.76-2.53-1.62-3.6-2.54c1.04,0.3,1.56,0.16,1.56,0.16c-1.13-0.64-2.13-1.36-3.01-2.13c0.95,0.52,1.87,0.33,1.87,0.33
	l-0.7-0.71c1.24,0.41,1.85,0.24,1.85,0.24c-0.53-0.3-1.02-0.62-1.49-0.95c0.21-0.01,0.35-0.03,0.35-0.03l-0.7-0.71
	c1.24,0.41,1.85,0.24,1.85,0.24c-1.9-1.07-3.45-2.38-4.7-3.79c0.69,0.36,1.35,0.22,1.35,0.22l-0.53-0.53
	c0.93,0.31,1.39,0.18,1.39,0.18c-0.61-0.35-1.18-0.73-1.69-1.13c0.47,0.11,0.83,0.03,0.83,0.03l-0.53-0.53
	c0.93,0.31,1.39,0.18,1.39,0.18c-0.79-0.44-1.48-0.95-2.12-1.48c0.05-0.01,0.08-0.01,0.08-0.01c-0.13-0.07-0.24-0.15-0.37-0.23
	c-0.63-0.56-1.18-1.16-1.66-1.77c0.26,0.07,0.44,0.07,0.44,0.07l-0.24-0.38c0.57,0.44,1.21,0.31,1.21,0.31l-0.38-0.38
	c0.68,0.23,1.01,0.13,1.01,0.13c-0.6-0.34-1.13-0.72-1.6-1.13l-0.23-0.37c0.57,0.44,1.21,0.31,1.21,0.31l-0.38-0.38
	c0.68,0.23,1.01,0.13,1.01,0.13c-4.64-2.62-5.34-7.84-5.41-8.39c0-0.01-0.01-0.01-0.01,0c-0.06,0.55-0.77,5.78-5.41,8.39
	c0,0,0.33,0.09,1.01-0.13l-0.38,0.38c0,0,0.64,0.13,1.21-0.31l-0.23,0.37c-0.47,0.41-1,0.79-1.6,1.13c0,0,0.33,0.09,1.01-0.13
	l-0.38,0.38c0,0,0.64,0.13,1.21-0.31l-0.24,0.38c0,0,0.18,0,0.44-0.07c-0.48,0.61-1.03,1.21-1.66,1.77
	c-0.12,0.08-0.24,0.16-0.37,0.23c0,0,0.03,0.01,0.08,0.01c-0.63,0.53-1.33,1.04-2.12,1.48c0,0,0.46,0.13,1.39-0.18l-0.53,0.53
	c0,0,0.36,0.07,0.83-0.03c-0.52,0.4-1.08,0.78-1.69,1.13c0,0,0.46,0.13,1.39-0.18l-0.53,0.53c0,0,0.66,0.14,1.35-0.22
	c-1.25,1.4-2.79,2.71-4.7,3.79c0,0,0.61,0.17,1.85-0.24l-0.7,0.71c0,0,0.14,0.03,0.35,0.03c-0.47,0.33-0.97,0.65-1.49,0.95
	c0,0,0.61,0.17,1.85-0.24l-0.7,0.71c0,0,0.92,0.19,1.87-0.33c-0.89,0.77-1.88,1.5-3.01,2.13c0,0,0.52,0.14,1.56-0.16
	c-1.06,0.92-2.25,1.78-3.6,2.54c0,0,0.74,0.21,2.23-0.29l-0.85,0.85c0,0,0.02,0,0.03,0.01c-0.45,0.3-0.92,0.6-1.42,0.88
	c0,0,0.74,0.21,2.23-0.29l-0.85,0.85c0,0,0.54,0.1,1.24-0.04c-0.81,0.62-1.67,1.21-2.63,1.75c0,0,0.74,0.21,2.23-0.29l-0.85,0.85
	c0,0,0.06,0.01,0.16,0.02c-1.26,1.07-2.66,2.07-4.23,2.96c0,0,0.9,0.25,2.73-0.36l-0.11,0.11c-0.82,0.59-1.68,1.16-2.62,1.69
	c0,0,0.9,0.25,2.73-0.36l-1.04,1.04c0,0,0.28,0.05,0.72,0.04c-0.76,0.54-1.56,1.05-2.41,1.53c0,0,0.9,0.25,2.73-0.36l-1.04,1.04
	c0,0,0.48,0.09,1.15,0.02c0.34,0.01,0.93-0.03,1.77-0.27l-0.1,0.16l-0.4,0.4l-0.21,0.19c0,0,0.06,0.01,0.14,0.02
	c-1.21,1.01-2.54,1.96-4.04,2.81c0,0,0.05,0.01,0.14,0.03c-0.55,0.33-1.12,0.66-1.71,0.96c0,0,0.94,0.23,2.84-0.31
	c-0.41,0.26-0.83,0.52-1.27,0.77c0,0,0.05,0.01,0.14,0.03c-0.55,0.33-1.12,0.66-1.71,0.96c0,0,1,0.26,3.02-0.37l-1.15,1.06
	c0,0,0.23,0.04,0.58,0.05c-0.29,0.18-0.58,0.36-0.88,0.53c0,0,0.05,0.01,0.13,0.02c-0.55,0.33-1.11,0.66-1.7,0.97
	c0,0,1,0.26,3.02-0.37l-1.15,1.06c0,0,0.83,0.15,1.89-0.09c-2.03,1.77-4.37,3.42-7.09,4.83
	C274.6,153.35,275.55,153.59,277.48,153.12z"/>
<path class="st3" d="M3.95,134.75L0,142.22v0.75h2.16L0,146.93v5.47l0.25,0L0,152.83v1.73c8.14-1.7,16.23-3.34,24.27-4.9l-3.65-6.69
	H23h0.18l-4.35-8.22l1.57,0l-3.34-6.77l1.31,0.01l0,0l0.18,0l-2.84-6.32l1.51-0.02l-2.95-7.05l1.19-0.03
	c-2.47-5.24-3.97-13.71-3.97-13.71l0,0l0,0c0,0-0.03,0.18-0.09,0.48c-0.06-0.3-0.09-0.48-0.09-0.48l0,0l0,0
	c0,0-1.51,8.46-3.97,13.71l1.19,0.03l-2.95,7.05l1.51,0.02l-2.84,6.32l1.49-0.01l-3.34,6.77L3.95,134.75z"/>
<path class="st2" d="M26.75,145.74l-3.12,5.48c6.47-1.38,12.89-2.73,19.29-4.05l-0.81-1.43l2.27,0.05l-3.6-6.56h1.78l-3.02-5.68
	l1.09,0l-2.32-4.68l1.03,0l-1.97-4.37l1.05-0.01l-2.05-4.87l0.82-0.02c-1.71-3.62-2.76-9.47-2.76-9.47s0,0,0,0c0,0,0,0,0,0
	s-1.05,5.85-2.76,9.47l0.83,0.02l-2.05,4.87l1.05,0.01l-1.97,4.37l1.03,0l-2.32,4.68l1.09,0l-3.02,5.68h1.78l-3.6,6.56L26.75,145.74
	z"/>
<path class="st4" d="M48.24,142.42l-4.17,7.32c7.26-1.28,14.48-2.47,21.67-3.55l-2.15-3.77l2.27,0.05l-3.6-6.56h1.78l-3.02-5.68
	l1.09,0l-2.32-4.68l1.03,0l-1.97-4.37l1.05-0.01l-2.05-4.87l0.82-0.02c-1.71-3.62-2.76-9.47-2.76-9.47s0,0,0,0c0,0,0,0,0,0
	s-1.05,5.85-2.76,9.47l0.82,0.02l-2.05,4.87l1.05,0.01l-1.97,4.37l1.03,0l-2.32,4.68l1.09,0l-3.02,5.68h1.78l-3.6,6.56L48.24,142.42
	z"/>
<path class="st3" d="M77.75,145.56c10.79-1.41,21.51-2.54,32.18-3.34l-4.66-8.21l3.08,0.06l0,0l0.18,0l-5.18-9.49h2.38h0.18
	l-4.35-8.22l1.57,0l-3.34-6.77l1.31,0.01l0,0l0.18,0l-2.84-6.32l1.51-0.02l-2.95-7.05l1.19-0.03c-2.47-5.24-3.97-13.71-3.97-13.71
	l0,0l0,0c0,0-0.03,0.18-0.09,0.48c-0.06-0.3-0.09-0.48-0.09-0.48l0,0l0,0c0,0-1.5,8.46-3.97,13.71l1.19,0.03l-2.95,7.05l1.51,0.02
	l-2.84,6.32l1.49-0.01l-3.34,6.77l1.57,0l-4.35,8.22h2.56l-5.18,9.49l3.26-0.07l-6.55,11.56H77.75z"/>
<path class="st2" d="M117.83,128.1l-7.82,13.72c12.32-0.98,24.57-1.54,36.78-1.54c2.17,0,4.35,0.04,6.52,0.08l-6.98-12.25l4.21,0.08
	l-6.68-12.17h3.3l-5.6-10.54l2.03,0l-4.3-8.68l1.92,0.01l-3.66-8.11l1.95-0.03l-3.8-9.04l1.53-0.03
	c-3.18-6.72-5.12-17.57-5.12-17.57l0,0l0,0c0,0-1.94,10.85-5.12,17.57l1.53,0.03l-3.8,9.04l1.95,0.03l-3.66,8.11l1.92-0.01
	l-4.3,8.68l2.03,0l-5.6,10.54h3.3l-6.68,12.17L117.83,128.1z"/>
<path class="st5" d="M145.25,133l-4.01,6.81c2.2,0,4.4-0.01,6.59,0.02c6.52,0.09,13.05,0.34,19.59,0.73l-4.02-7.3l2.68,0.09
	l-4.14-7.81l2.1,0.03l-3.47-6.76l1.29,0.02l-2.66-5.57l1.22,0.02l-2.26-5.19l1.24,0l-2.34-5.79l0.98-0.01
	c-1.97-4.31-3.1-11.23-3.1-11.23l0,0l0,0c0,0-1.33,6.89-3.42,11.14l0.97,0.04l-2.5,5.72l1.24,0.03l-2.41,5.13l1.22,0.01l-2.82,5.49
	l1.29,0.02l-3.66,6.66l2.1,0.03l-4.36,7.69L145.25,133z"/>
<path class="st4" d="M102.27,133.72l-4.96,8.75c10.45-0.92,20.84-1.54,31.2-1.79l-3.95-6.96l3.08,0.06l0,0l0.18,0l-5.18-9.49h2.38
	h0.18l-4.35-8.22l1.57,0l-3.34-6.77l1.31,0.01l0,0l0.18,0l-2.84-6.32l1.51-0.02l-2.95-7.05l1.19-0.03
	c-2.47-5.24-3.97-13.71-3.97-13.71l0,0l0,0c0,0-0.03,0.18-0.09,0.48c-0.06-0.3-0.09-0.48-0.09-0.48l0,0l0,0
	c0,0-1.51,8.46-3.97,13.71l1.19,0.03l-2.95,7.05l1.51,0.02l-2.84,6.32l1.49-0.01l-3.34,6.77l1.57,0l-4.35,8.22h2.56l-5.18,9.49
	L102.27,133.72z"/>
<path class="st5" d="M210.07,139.48l-1.7,2.98c8.21,0.89,16.46,1.94,24.75,3.15l-3.49-6.13l2.89,0.06l-4.59-8.36h2.26l-3.85-7.24
	l1.39,0l-2.95-5.96l1.32,0.01l-2.51-5.57l1.34-0.02l-2.61-6.2l1.05-0.02c-2.19-4.62-3.52-12.06-3.52-12.06l0,0l0,0
	c0,0-1.33,7.45-3.52,12.06l1.05,0.02l-2.61,6.2l1.34,0.02l-2.51,5.57l1.32-0.01l-2.95,5.96l1.39,0l-3.85,7.24h2.26l-4.59,8.36
	L210.07,139.48z"/>
<path class="st3" d="M181.46,132.99l-4.86,8.3c9.98,0.93,20,2.16,30.08,3.62l3.27,0.05l0.18,0l-6.38-11.65l3.08,0.11l0,0l0.18,0.01
	l-5.05-9.57l2.38,0.03l0.18,0l-4.23-8.28l1.57,0.02l-3.24-6.82l1.31,0.02l0,0l0.18,0l-2.75-6.36l1.51,0l-2.85-7.09l1.19-0.01
	c-2.39-5.28-3.78-13.76-3.78-13.76l0,0l0,0c0,0-0.03,0.18-0.1,0.47c-0.05-0.3-0.08-0.48-0.08-0.48l0,0l0,0c0,0-1.63,8.44-4.17,13.65
	l1.19,0.04l-3.05,7.01l1.51,0.04l-2.93,6.28l1.49,0.02l-3.43,6.72l1.57,0.03l-4.46,8.16l2.56,0.04l-5.32,9.42L181.46,132.99z"/>
<path class="st3" d="M251.36,139.18l-4.92,9.01c0.86,0.14,1.71,0.28,2.57,0.43l0.43-0.01l-0.04,0.07c8.26,1.4,16.57,2.91,24.93,4.52
	l-2.6-4.59l3.08,0.06l0,0l0.18,0l-5.18-9.49h2.38h0.18l-4.35-8.22l1.57,0l-3.34-6.77l1.31,0.01l0,0l0.18,0l-2.84-6.32l1.51-0.02
	l-2.95-7.05l1.19-0.03c-2.47-5.24-3.97-13.71-3.97-13.71l0,0l0,0c0,0-0.03,0.18-0.09,0.48c-0.06-0.3-0.09-0.48-0.09-0.48l0,0l0,0
	c0,0-1.51,8.46-3.97,13.71l1.19,0.03l-2.95,7.05l1.51,0.02l-2.84,6.32l1.49-0.01l-3.34,6.77l1.57,0l-4.35,8.22H251.36z"/>
<path class="st4" d="M239.95,138.02l-2.15,3.78c8.75,1.35,17.55,2.84,26.41,4.46l-4.69-8.23l2.89,0.06l-4.59-8.36h2.26l-3.85-7.24
	l1.39,0l-2.95-5.96l1.32,0.01l-2.51-5.57l1.34-0.02l-2.61-6.2l1.05-0.02c-2.19-4.61-3.52-12.06-3.52-12.06s0,0,0,0c0,0,0,0,0,0
	s-1.33,7.45-3.52,12.06l1.05,0.02l-2.61,6.2l1.34,0.02l-2.51,5.57l1.32-0.01l-2.95,5.96l1.39,0l-3.85,7.24h2.26l-4.59,8.36
	L239.95,138.02z"/>
<path class="st5" d="M264.47,142.74l-1.39,2.45c5.36,1,10.74,2.03,16.14,3.1l-3.16-5.54l1.71,0.03l-2.72-4.95h1.34l-2.28-4.29
	l0.82,0l-1.75-3.53l0.78,0l-1.49-3.3l0.79-0.01l-1.55-3.67l0.62-0.01c-1.29-2.73-2.08-7.14-2.08-7.14l0,0l0,0
	c0,0-0.79,4.41-2.08,7.14l0.62,0.01l-1.55,3.67l0.79,0.01l-1.49,3.3l0.78,0l-1.75,3.53l0.82,0l-2.28,4.29h1.34l-2.72,4.95
	L264.47,142.74z"/>
<path class="st5" d="M300.84,153.24l-1.76,3.08c7.09,1.44,14.23,2.93,21.41,4.46l-4.3-7.54l2.27,0.05l-3.6-6.56h1.78l-3.02-5.68
	l1.09,0l-2.32-4.68l1.03,0l-1.97-4.37l1.05-0.01l-2.05-4.87l0.82-0.02c-1.71-3.62-2.76-9.47-2.76-9.47l0,0l0,0
	c0,0-1.05,5.85-2.76,9.47l0.82,0.02l-2.05,4.87l1.05,0.01l-1.97,4.37l1.03,0l-2.32,4.68l1.09,0l-3.02,5.68h1.78l-3.6,6.56
	L300.84,153.24z"/>
<path class="st5" d="M319.15,161.9l-0.86,1.52c5.04,1.09,10.11,2.19,15.2,3.3l-2.75-4.82l1.71,0.03l-2.71-4.95h1.34l-2.28-4.29
	l0.82,0l-1.75-3.53l0.78,0l-1.49-3.3l0.79-0.01l-1.55-3.67l0.62-0.01c-1.29-2.73-2.08-7.14-2.08-7.14l0,0l0,0
	c0,0-0.79,4.41-2.08,7.14l0.62,0.01l-1.55,3.67l0.79,0.01l-1.49,3.3l0.78,0l-1.75,3.53l0.82,0l-2.28,4.29h1.34l-2.72,4.95
	L319.15,161.9z"/>
<path class="st5" d="M59.1,147.49c8.97-1.45,17.89-2.72,26.77-3.83l-3.57-6.71l2.03,0l-4.3-8.68l1.92,0.01l-3.66-8.11l1.95-0.03
	l-3.8-9.04l1.53-0.03c-3.18-6.72-5.12-17.57-5.12-17.57s0,0,0,0c0,0,0,0,0,0s-1.94,10.85-5.12,17.57l1.53,0.03l-3.8,9.04l1.95,0.03
	l-3.66,8.11l1.92-0.01l-4.3,8.68l2.03,0l-5.6,10.54H59.1z"/>
<g>
	<rect x="236.66" y="0.18" class="st6" width="6.66" height="147.2"/>
</g>
<g>
	<rect x="40.05" y="0.18" class="st6" width="8.82" height="156.17"/>
</g>
<g>
	<rect x="76.34" y="0.18" class="st7" width="8.82" height="156.17"/>
</g>
<g>
	<path class="st7" d="M284.45,147.42C284.45,147.42,284.45,147.42,284.45,147.42l-0.01-89.29c0.06-0.15,0.1-0.33,0.09-0.56
		c-0.13-2.71,6.87-4.79,6.87-4.79s0,0-0.02-0.45c-2.76,0.1-5.08,0.77-6.94,1.58V0h-10.18v147.9c-0.36,5.76-6.91,7.73-6.91,7.73
		c0.13-0.11,23.91-0.11,24.04,0C291.39,155.63,284.45,153.56,284.45,147.42z"/>
</g>
<linearGradient id="SVGID_1_" gradientUnits="userSpaceOnUse" x1="167.9931" y1="183.9844" x2="167.9931" y2="137.9618">
	<stop  offset="0.0601" style="stop-color:#D1F9FF"/>
	<stop  offset="1" style="stop-color:#F6F8F9"/>
</linearGradient>
<path class="st8" d="M167.99,137.96C79.06,137.96,0,150.68,0,150.68v33.31h167.99h167.99v-33.31
	C335.99,150.68,256.93,137.96,167.99,137.96z"/>
<path class="st9" d="M138.8,165.84c1.14-2.26,2.58-4.22,4.38-5.64c-2.41,0.27-4.25,1.35-5.69,2.93c1.08-3.42,2.58-5.67,4.36-7.27
	c-3.53,0.83-6.11,4.05-7.55,9.17c-0.21-4.6-0.64-8.44-1.35-10.87c-0.72,2.41-1.16,6.21-1.37,10.77c-1.44-5.06-4.01-8.25-7.52-9.07
	c1.83,1.64,3.35,3.95,4.44,7.5c0,0,0,0,0,0.01c-1.46-1.7-3.37-2.88-5.9-3.17c1.8,1.42,3.23,3.38,4.37,5.64
	c-1.65-1.23-3.65-1.79-5.94-1.6c1.35,0.76,2.71,1.83,3.93,3.49h15.86c1.22-1.66,2.57-2.73,3.93-3.49
	C142.45,164.05,140.45,164.61,138.8,165.84z"/>
<path class="st10" d="M173.69,146.06c0.57-1.12,1.28-2.1,2.18-2.81c-1.2,0.13-2.12,0.67-2.83,1.46c0.54-1.7,1.28-2.82,2.17-3.61
	c-1.76,0.41-3.04,2.01-3.75,4.56c-0.1-2.29-0.32-4.2-0.67-5.4c-0.36,1.2-0.58,3.09-0.68,5.35c-0.72-2.52-1.99-4.1-3.74-4.51
	c0.91,0.81,1.67,1.96,2.21,3.73c0,0,0,0,0,0c-0.73-0.85-1.68-1.43-2.93-1.57c0.89,0.71,1.61,1.68,2.17,2.8
	c-0.82-0.61-1.81-0.89-2.96-0.8c0.67,0.38,1.35,0.91,1.95,1.74h7.88c0.61-0.82,1.28-1.36,1.95-1.74
	C175.51,145.17,174.51,145.45,173.69,146.06z"/>
<path class="st11" d="M244.25,159.72c0.82-1.63,1.86-3.04,3.15-4.07c-1.73,0.19-3.07,0.98-4.1,2.11c0.78-2.47,1.86-4.09,3.15-5.24
	c-2.55,0.6-4.4,2.92-5.44,6.61c-0.15-3.32-0.46-6.08-0.97-7.84c-0.52,1.74-0.83,4.48-0.99,7.76c-1.04-3.65-2.89-5.95-5.42-6.54
	c1.32,1.18,2.42,2.85,3.2,5.41c0,0,0,0,0,0c-1.05-1.23-2.43-2.08-4.25-2.28c1.29,1.02,2.33,2.44,3.15,4.06
	c-1.19-0.88-2.63-1.29-4.28-1.15c0.98,0.55,1.95,1.32,2.83,2.52h11.43c0.88-1.19,1.86-1.97,2.83-2.52
	C246.88,158.43,245.44,158.84,244.25,159.72z"/>
<rect y="183.55" class="st12" width="335.99" height="51.64"/>
<path class="st13" d="M0,211.29h335.99l-0.02-8.14c0,0-269.15-0.87-286.1,0.93c-0.26,0.03,101.72-0.5,101.72,2.95
	C151.58,210.3,76.73,208.27,0,211.29L0,211.29z"/>
<path class="st13" d="M0.33,191.96c66.29,0.35,82.37,0.69,82.37,0.69c-18.62,0.26-46.88,0.49-82.37,0.69v-1.74V191.96z"/>
<path class="st13" d="M0.33,187.22c102.56,0.55,127.44,1.09,127.44,1.09c-28.81,0.41-72.53,0.77-127.44,1.09v-2.75V187.22z"/>
<defs>
	<filter id="Adobe_OpacityMaskFilter" filterUnits="userSpaceOnUse" x="0" y="218.08" width="335.99" height="17.11">
		<feFlood  style="flood-color:white;flood-opacity:1" result="back"/>
		<feBlend  in="SourceGraphic" in2="back" mode="normal"/>
	</filter>
</defs>
<mask maskUnits="userSpaceOnUse" x="0" y="218.08" width="335.99" height="17.11" id="SVGID_2_">
	<g class="st14">
		<defs>
			<filter id="Adobe_OpacityMaskFilter_1_" filterUnits="userSpaceOnUse" x="0" y="218.08" width="335.99" height="17.11">
				<feFlood  style="flood-color:white;flood-opacity:1" result="back"/>
				<feBlend  in="SourceGraphic" in2="back" mode="normal"/>
			</filter>
		</defs>
		<mask maskUnits="userSpaceOnUse" x="0" y="218.08" width="335.99" height="17.11" id="SVGID_2_">
			<g class="st15">
			</g>
		</mask>
		<linearGradient id="SVGID_3_" gradientUnits="userSpaceOnUse" x1="2.450000e-04" y1="226.6341" x2="335.9863" y2="226.6341">
			<stop  offset="0" style="stop-color:#4D4D4D"/>
			<stop  offset="0.2891" style="stop-color:#4F4F4F"/>
			<stop  offset="0.4413" style="stop-color:#575757"/>
			<stop  offset="0.5616" style="stop-color:#646464"/>
			<stop  offset="0.6651" style="stop-color:#777777"/>
			<stop  offset="0.7581" style="stop-color:#909090"/>
			<stop  offset="0.8433" style="stop-color:#AFAFAF"/>
			<stop  offset="0.9217" style="stop-color:#D3D3D3"/>
			<stop  offset="0.9945" style="stop-color:#FCFCFC"/>
			<stop  offset="1" style="stop-color:#FFFFFF"/>
		</linearGradient>
		<path class="st16" d="M0,235.19h335.99l-0.02-16.96c0,0-225.65-0.38-254.33,0.07c-8,0.84,141.86,2.05,104.12,3.34
			c-24.52,0.84-164.36,1.32-170.49,2.55c-7.08,1.42,107.46,2.1,94.23,3.23C96.85,228.5,29,228.64,0,229.21V235.19L0,235.19z"/>
	</g>
</mask>
<linearGradient id="SVGID_4_" gradientUnits="userSpaceOnUse" x1="2.450000e-04" y1="226.6341" x2="335.9863" y2="226.6341">
	<stop  offset="0" style="stop-color:#FFFFFF"/>
	<stop  offset="0.8549" style="stop-color:#FFFFFF"/>
	<stop  offset="1" style="stop-color:#FFFFFF"/>
</linearGradient>
<path class="st17" d="M0,235.19h335.99l-0.02-16.96c0,0-225.65-0.38-254.33,0.07c-8,0.84,141.86,2.05,104.12,3.34
	c-24.52,0.84-164.36,1.32-170.49,2.55c-7.08,1.42,107.46,2.1,94.23,3.23C96.85,228.5,29,228.64,0,229.21V235.19L0,235.19z"/>
<path class="st10" d="M27.09,168.47c0.75-1.48,1.69-2.77,2.87-3.71c-1.58,0.18-2.79,0.89-3.74,1.92c0.71-2.25,1.69-3.72,2.87-4.77
	c-2.32,0.54-4.01,2.66-4.96,6.02c-0.14-3.02-0.42-5.54-0.88-7.14c-0.47,1.59-0.76,4.08-0.9,7.07c-0.95-3.33-2.63-5.42-4.94-5.96
	c1.2,1.07,2.2,2.59,2.91,4.93c0,0,0,0,0,0c-0.96-1.12-2.22-1.9-3.87-2.08c1.18,0.93,2.12,2.22,2.87,3.7
	c-1.09-0.81-2.4-1.17-3.9-1.05c0.89,0.5,1.78,1.2,2.58,2.29h10.42c0.8-1.09,1.69-1.79,2.58-2.29
	C29.49,167.29,28.18,167.66,27.09,168.47z"/>
<path class="st10" d="M311.62,168.47c0.75-1.48,1.69-2.77,2.87-3.71c-1.58,0.18-2.79,0.89-3.74,1.92c0.71-2.25,1.69-3.72,2.87-4.77
	c-2.32,0.54-4.01,2.66-4.96,6.02c-0.14-3.02-0.42-5.54-0.88-7.14c-0.47,1.59-0.76,4.08-0.9,7.07c-0.95-3.33-2.63-5.42-4.94-5.96
	c1.2,1.07,2.2,2.59,2.91,4.93c0,0,0,0,0,0c-0.96-1.12-2.22-1.9-3.87-2.08c1.18,0.93,2.12,2.22,2.87,3.7
	c-1.09-0.81-2.4-1.17-3.9-1.05c0.89,0.5,1.78,1.2,2.58,2.29h10.42c0.8-1.09,1.69-1.79,2.58-2.29
	C314.02,167.29,312.7,167.66,311.62,168.47z"/>
</svg>
