<?xml version="1.0" encoding="utf-8"?>
<!-- Generator: Adobe Illustrator 23.0.1, SVG Export Plug-In . SVG Version: 6.00 Build 0)  -->
<svg version="1.1" id="Layer" xmlns="http://www.w3.org/2000/svg" xmlns:xlink="http://www.w3.org/1999/xlink" x="0px" y="0px"
	 viewBox="0 0 336 235.2" style="enable-background:new 0 0 336 235.2;" xml:space="preserve">
<style type="text/css">
	.st0{fill:#403A68;}
	.st1{fill:#292942;}
	.st2{fill:#A09DBF;}
	.st3{fill:#262649;}
	.st4{fill:#1D1D2D;}
	.st5{fill:#35354C;}
	.st6{fill:#FFFFFF;}
	.st7{fill-rule:evenodd;clip-rule:evenodd;fill:#32676B;}
	.st8{fill:#F7F7F9;}
	.st9{opacity:0.31;fill-rule:evenodd;clip-rule:evenodd;fill:#ECFAFF;enable-background:new    ;}
	.st10{clip-path:url(#SVGID_3_);}
	.st11{clip-path:url(#SVGID_4_);fill-rule:evenodd;clip-rule:evenodd;fill:url(#SVGID_5_);}
	.st12{fill-rule:evenodd;clip-rule:evenodd;fill:#E4E4EF;}
	.st13{opacity:0.1;fill-rule:evenodd;clip-rule:evenodd;}
</style>
<rect class="st0" width="336" height="235.2"/>
<g>
	<path class="st1" d="M284.5,147.4L284.5,147.4l0-89.3c0.1-0.2,0.1-0.3,0.1-0.6c-0.1-2.7,6.9-4.8,6.9-4.8s0,0,0-0.5
		c-2.8,0.1-5.1,0.8-6.9,1.6V0h-10.2v147.9c-0.4,5.8-6.9,7.7-6.9,7.7c0.1-0.1,23.9-0.1,24,0C291.4,155.6,284.5,153.6,284.5,147.4z"/>
</g>
<g>
	<path class="st2" d="M178.9,35.5c-4.5,1.6-6.8,6.6-5.2,11s6.6,6.8,11,5.2c0.1-0.1,0.3-0.1,0.4-0.2c-1,1.2-2.4,2.1-4,2.7
		c-5.1,1.8-10.7-0.8-12.5-5.9c-1.8-5.1,0.8-10.7,5.9-12.5c1.6-0.6,3.2-0.7,4.8-0.5C179.2,35.4,179,35.5,178.9,35.5z"/>
</g>
<path class="st3" d="M277.5,153.1c-0.7,0.5-1.5,0.9-2.3,1.3c0.5,0.1,1,0.2,1.5,0.3c0.5-0.1,1-0.2,1.6-0.4l-0.6,0.6
	c12.5,2.5,25.2,5.2,38,7.9c-0.9-0.6-1.8-1.1-2.7-1.7c0.5,0,0.7-0.1,0.7-0.1c-1.3-0.7-2.4-1.4-3.5-2.1c-0.5-0.4-1-0.9-1.5-1.3
	c1.5,0.5,2.8,0.2,2.8,0.2l-1.4-1.3c2.4,0.8,3.6,0.4,3.6,0.4c-0.9-0.4-1.7-0.9-2.4-1.4c0.1,0,0.2,0,0.2,0l-1.4-1.3
	c2.4,0.8,3.6,0.4,3.6,0.4c-1-0.5-2-1.1-2.9-1.7c1.9,0.5,2.9,0.2,2.9,0.2c-2.7-1.4-5.1-3.1-7.1-4.8c1.1,0.2,1.9,0.1,1.9,0.1l-1.1-1.1
	c2,0.6,3,0.4,3,0.4c-0.6-0.3-1.1-0.6-1.7-1c0.1,0,0.1,0,0.1,0c-0.3-0.2-0.6-0.4-0.9-0.5c0.4,0,0.6-0.1,0.6-0.1l-1.1-1.1
	c2,0.6,3,0.4,3,0.4c-0.6-0.3-1.2-0.6-1.7-1c0.1,0,0.1,0,0.1,0c-0.4-0.3-0.9-0.5-1.3-0.8c1.9,0.6,2.8,0.3,2.8,0.3
	c-0.6-0.3-1.2-0.6-1.7-1c0.1,0,0.1,0,0.1,0c-1.5-0.8-2.8-1.8-4-2.8c0.1,0,0.1,0,0.1,0l-0.2-0.2l-0.4-0.4l-0.1-0.2
	c0.8,0.2,1.4,0.3,1.8,0.3c0.7,0.1,1.1,0,1.1,0l-1-1c1.8,0.6,2.7,0.4,2.7,0.4c-0.9-0.5-1.7-1-2.4-1.5c0.4,0,0.7,0,0.7,0l-1-1
	c1.8,0.6,2.7,0.4,2.7,0.4c-0.9-0.5-1.8-1.1-2.6-1.7l-0.1-0.1c1.8,0.6,2.7,0.4,2.7,0.4c-1.6-0.9-3-1.9-4.2-3c0.1,0,0.2,0,0.2,0
	l-0.9-0.9c1.5,0.5,2.2,0.3,2.2,0.3c-1-0.5-1.8-1.1-2.6-1.8c0.7,0.1,1.2,0,1.2,0l-0.9-0.9c1.5,0.5,2.2,0.3,2.2,0.3
	c-0.5-0.3-1-0.6-1.4-0.9c0,0,0,0,0,0l-0.9-0.8c1.5,0.5,2.2,0.3,2.2,0.3c-1.4-0.8-2.5-1.6-3.6-2.5c1,0.3,1.6,0.2,1.6,0.2
	c-1.1-0.6-2.1-1.4-3-2.1c1,0.5,1.9,0.3,1.9,0.3l-0.7-0.7c1.2,0.4,1.9,0.2,1.9,0.2c-0.5-0.3-1-0.6-1.5-0.9c0.2,0,0.4,0,0.4,0
	l-0.7-0.7c1.2,0.4,1.9,0.2,1.9,0.2c-1.9-1.1-3.5-2.4-4.7-3.8c0.7,0.4,1.4,0.2,1.4,0.2l-0.5-0.5c0.9,0.3,1.4,0.2,1.4,0.2
	c-0.6-0.3-1.2-0.7-1.7-1.1c0.5,0.1,0.8,0,0.8,0l-0.5-0.5c0.9,0.3,1.4,0.2,1.4,0.2c-0.8-0.4-1.5-0.9-2.1-1.5c0,0,0.1,0,0.1,0
	c-0.1-0.1-0.2-0.2-0.4-0.2c-0.6-0.6-1.2-1.2-1.7-1.8c0.3,0.1,0.4,0.1,0.4,0.1l-0.2-0.4c0.6,0.4,1.2,0.3,1.2,0.3l-0.4-0.4
	c0.7,0.2,1,0.1,1,0.1c-0.6-0.3-1.1-0.7-1.6-1.1l-0.2-0.4c0.6,0.4,1.2,0.3,1.2,0.3l-0.4-0.4c0.7,0.2,1,0.1,1,0.1
	c-4.6-2.6-5.3-7.8-5.4-8.4c0,0,0,0,0,0c-0.1,0.6-0.8,5.8-5.4,8.4c0,0,0.3,0.1,1-0.1l-0.4,0.4c0,0,0.6,0.1,1.2-0.3l-0.2,0.4
	c-0.5,0.4-1,0.8-1.6,1.1c0,0,0.3,0.1,1-0.1l-0.4,0.4c0,0,0.6,0.1,1.2-0.3l-0.2,0.4c0,0,0.2,0,0.4-0.1c-0.5,0.6-1,1.2-1.7,1.8
	c-0.1,0.1-0.2,0.2-0.4,0.2c0,0,0,0,0.1,0c-0.6,0.5-1.3,1-2.1,1.5c0,0,0.5,0.1,1.4-0.2l-0.5,0.5c0,0,0.4,0.1,0.8,0
	c-0.5,0.4-1.1,0.8-1.7,1.1c0,0,0.5,0.1,1.4-0.2l-0.5,0.5c0,0,0.7,0.1,1.4-0.2c-1.3,1.4-2.8,2.7-4.7,3.8c0,0,0.6,0.2,1.9-0.2
	l-0.7,0.7c0,0,0.1,0,0.4,0c-0.5,0.3-1,0.7-1.5,0.9c0,0,0.6,0.2,1.9-0.2l-0.7,0.7c0,0,0.9,0.2,1.9-0.3c-0.9,0.8-1.9,1.5-3,2.1
	c0,0,0.5,0.1,1.6-0.2c-1.1,0.9-2.3,1.8-3.6,2.5c0,0,0.7,0.2,2.2-0.3l-0.9,0.8c0,0,0,0,0,0c-0.5,0.3-0.9,0.6-1.4,0.9
	c0,0,0.7,0.2,2.2-0.3l-0.9,0.9c0,0,0.5,0.1,1.2,0c-0.8,0.6-1.7,1.2-2.6,1.8c0,0,0.7,0.2,2.2-0.3l-0.9,0.9c0,0,0.1,0,0.2,0
	c-1.3,1.1-2.7,2.1-4.2,3c0,0,0.9,0.3,2.7-0.4l-0.1,0.1c-0.8,0.6-1.7,1.2-2.6,1.7c0,0,0.9,0.3,2.7-0.4l-1,1c0,0,0.3,0.1,0.7,0
	c-0.8,0.5-1.6,1.1-2.4,1.5c0,0,0.9,0.3,2.7-0.4l-1,1c0,0,0.5,0.1,1.1,0c0.3,0,0.9,0,1.8-0.3l-0.1,0.2l-0.4,0.4l-0.2,0.2
	c0,0,0.1,0,0.1,0c-1.2,1-2.5,2-4,2.8c0,0,0,0,0.1,0c-0.5,0.3-1.1,0.7-1.7,1c0,0,0.9,0.2,2.8-0.3c-0.4,0.3-0.8,0.5-1.3,0.8
	c0,0,0,0,0.1,0c-0.5,0.3-1.1,0.7-1.7,1c0,0,1,0.3,3-0.4l-1.1,1.1c0,0,0.2,0,0.6,0.1c-0.3,0.2-0.6,0.4-0.9,0.5c0,0,0,0,0.1,0
	c-0.5,0.3-1.1,0.7-1.7,1c0,0,1,0.3,3-0.4l-1.1,1.1c0,0,0.8,0.1,1.9-0.1c-2,1.8-4.4,3.4-7.1,4.8C274.6,153.4,275.5,153.6,277.5,153.1
	z"/>
<path class="st1" d="M4,134.8l-4,7.5v0.8h2.2l-2.2,4v5.5h0.3L0,152.8v1.7c8.1-1.7,16.2-3.3,24.3-4.9l-3.6-6.7H23h0.2l-4.4-8.2h1.6
	l-3.3-6.8l1.3,0l0,0h0.2l-2.8-6.3l1.5,0l-2.9-7.1l1.2,0c-2.5-5.2-4-13.7-4-13.7l0,0l0,0c0,0,0,0.2-0.1,0.5c-0.1-0.3-0.1-0.5-0.1-0.5
	l0,0l0,0c0,0-1.5,8.5-4,13.7l1.2,0l-2.9,7.1l1.5,0L4.2,128l1.5,0l-3.3,6.8H4z"/>
<path class="st4" d="M26.8,145.7l-3.1,5.5c6.5-1.4,12.9-2.7,19.3-4.1l-0.8-1.4l2.3,0.1l-3.6-6.6h1.8l-3-5.7h1.1l-2.3-4.7h1l-2-4.4
	l1,0l-2-4.9l0.8,0c-1.7-3.6-2.8-9.5-2.8-9.5l0,0l0,0c0,0-1,5.8-2.8,9.5l0.8,0l-2,4.9l1,0l-2,4.4h1l-2.3,4.7h1.1l-3,5.7h1.8l-3.6,6.6
	L26.8,145.7z"/>
<path class="st3" d="M48.2,142.4l-4.2,7.3c7.3-1.3,14.5-2.5,21.7-3.6l-2.2-3.8l2.3,0.1l-3.6-6.6H64l-3-5.7h1.1l-2.3-4.7h1l-2-4.4
	l1,0l-2-4.9l0.8,0c-1.7-3.6-2.8-9.5-2.8-9.5l0,0l0,0c0,0-1,5.8-2.8,9.5l0.8,0l-2,4.9l1,0l-2,4.4h1l-2.3,4.7h1.1l-3,5.7h1.8l-3.6,6.6
	L48.2,142.4z"/>
<path class="st3" d="M77.8,145.6c10.8-1.4,21.5-2.5,32.2-3.3l-4.7-8.2l3.1,0.1l0,0h0.2l-5.2-9.5h2.4h0.2l-4.3-8.2h1.6l-3.3-6.8
	l1.3,0l0,0h0.2l-2.8-6.3l1.5,0L97,96.2l1.2,0c-2.5-5.2-4-13.7-4-13.7l0,0l0,0c0,0,0,0.2-0.1,0.5c-0.1-0.3-0.1-0.5-0.1-0.5l0,0l0,0
	c0,0-1.5,8.5-4,13.7l1.2,0l-2.9,7.1l1.5,0l-2.8,6.3l1.5,0l-3.3,6.8h1.6l-4.3,8.2h2.6l-5.2,9.5L83,134l-6.6,11.6L77.8,145.6
	L77.8,145.6z"/>
<path class="st3" d="M120.7,128.1l-7.8,13.7c12.3-1,24.6-1.5,36.8-1.5c2.2,0,4.4,0,6.5,0.1l-7-12.3l4.2,0.1l-6.7-12.2h3.3l-5.6-10.5
	h2l-4.3-8.7l1.9,0l-3.7-8.1l1.9,0l-3.8-9l1.5,0C137,72.9,135,62,135,62l0,0l0,0c0,0-1.9,10.8-5.1,17.6l1.5,0l-3.8,9l1.9,0l-3.7,8.1
	l1.9,0l-4.3,8.7h2L120,116h3.3l-6.7,12.2L120.7,128.1z"/>
<path class="st4" d="M145.3,133l-4,6.8c2.2,0,4.4,0,6.6,0c6.5,0.1,13.1,0.3,19.6,0.7l-4-7.3l2.7,0.1l-4.1-7.8l2.1,0l-3.5-6.8l1.3,0
	l-2.7-5.6l1.2,0l-2.3-5.2h1.2l-2.3-5.8l1,0c-2-4.3-3.1-11.2-3.1-11.2l0,0l0,0c0,0-1.3,6.9-3.4,11.1l1,0L150,108l1.2,0l-2.4,5.1
	l1.2,0l-2.8,5.5l1.3,0l-3.7,6.7l2.1,0l-4.4,7.7L145.3,133z"/>
<path class="st1" d="M102.3,133.7l-5,8.8c10.4-0.9,20.8-1.5,31.2-1.8l-3.9-7l3.1,0.1l0,0h0.2l-5.2-9.5h2.4h0.2l-4.3-8.2h1.6
	l-3.3-6.8l1.3,0l0,0h0.2l-2.8-6.3l1.5,0l-2.9-7.1l1.2,0c-2.5-5.2-4-13.7-4-13.7l0,0l0,0c0,0,0,0.2-0.1,0.5c-0.1-0.3-0.1-0.5-0.1-0.5
	l0,0l0,0c0,0-1.5,8.5-4,13.7l1.2,0l-2.9,7.1l1.5,0l-2.8,6.3l1.5,0l-3.3,6.8h1.6l-4.3,8.2h2.6l-5.2,9.5L102.3,133.7z"/>
<g>
	<path class="st5" d="M130.5,138.1L130.5,138.1l0-81.4c0.1-0.1,0.1-0.3,0.1-0.5c-0.1-2.5,7.7-4.4,7.7-4.4s0,0,0-0.4
		c-3.1,0.1-5.7,0.7-7.8,1.4V0H119v138.5c-0.4,5.3,2.2,7,2.2,7c0.1-0.1,6.9-0.1,7,0C128.3,145.6,130.5,143.7,130.5,138.1z"/>
</g>
<path class="st1" d="M210.1,139.5l-1.7,3c8.2,0.9,16.5,1.9,24.8,3.1l-3.5-6.1l2.9,0.1l-4.6-8.4h2.3l-3.9-7.2h1.4l-2.9-6l1.3,0
	l-2.5-5.6l1.3,0l-2.6-6.2l1.1,0c-2.2-4.6-3.5-12.1-3.5-12.1l0,0l0,0c0,0-1.3,7.4-3.5,12.1l1.1,0l-2.6,6.2l1.3,0l-2.5,5.6l1.3,0
	l-2.9,6h1.4l-3.9,7.2h2.3l-4.6,8.4L210.1,139.5z"/>
<path class="st3" d="M171.2,133.7l-4.9,8.3c10,0.9,20,2.2,30.1,3.6l3.3,0.1h0.2l-6.4-11.6l3.1,0.1l0,0l0.2,0l-5.1-9.6l2.4,0h0.2
	l-4.2-8.3l1.6,0l-3.2-6.8l1.3,0l0,0h0.2l-2.8-6.4h1.5l-2.9-7.1l1.2,0c-2.4-5.3-3.8-13.8-3.8-13.8l0,0l0,0c0,0,0,0.2-0.1,0.5
	c-0.1-0.3-0.1-0.5-0.1-0.5l0,0l0,0c0,0-1.6,8.4-4.2,13.7l1.2,0l-3.1,7l1.5,0l-2.9,6.3l1.5,0l-3.4,6.7l1.6,0l-4.5,8.2l2.6,0l-5.3,9.4
	L171.2,133.7z"/>
<path class="st4" d="M251.4,139.2l-4.9,9c0.9,0.1,1.7,0.3,2.6,0.4l0.4,0l0,0.1c8.3,1.4,16.6,2.9,24.9,4.5l-2.6-4.6l3.1,0.1l0,0h0.2
	l-5.2-9.5h2.4h0.2L268,131h1.6l-3.3-6.8l1.3,0l0,0h0.2l-2.8-6.3l1.5,0l-3-7.1l1.2,0c-2.5-5.2-4-13.7-4-13.7l0,0l0,0
	c0,0,0,0.2-0.1,0.5c-0.1-0.3-0.1-0.5-0.1-0.5l0,0l0,0c0,0-1.5,8.5-4,13.7l1.2,0l-2.9,7.1l1.5,0l-2.8,6.3l1.5,0l-3.3,6.8h1.6
	l-4.4,8.2H251.4z"/>
<path class="st3" d="M239.9,138l-2.1,3.8c8.8,1.4,17.6,2.8,26.4,4.5l-4.7-8.2l2.9,0.1l-4.6-8.4h2.3l-3.9-7.2h1.4l-2.9-6l1.3,0
	l-2.5-5.6l1.3,0l-2.6-6.2l1.1,0c-2.2-4.6-3.5-12.1-3.5-12.1l0,0l0,0c0,0-1.3,7.4-3.5,12.1l1.1,0l-2.6,6.2l1.3,0l-2.5,5.6l1.3,0
	l-2.9,6h1.4l-3.9,7.2h2.3l-4.6,8.4L239.9,138z"/>
<path class="st1" d="M264.5,142.7l-1.4,2.4c5.4,1,10.7,2,16.1,3.1l-3.2-5.5l1.7,0l-2.7-4.9h1.3l-2.3-4.3h0.8l-1.8-3.5h0.8l-1.5-3.3
	l0.8,0l-1.5-3.7l0.6,0c-1.3-2.7-2.1-7.1-2.1-7.1l0,0l0,0c0,0-0.8,4.4-2.1,7.1l0.6,0l-1.5,3.7l0.8,0l-1.5,3.3h0.8l-1.8,3.5h0.8
	l-2.3,4.3h1.3l-2.7,4.9L264.5,142.7z"/>
<path class="st4" d="M300.8,153.2l-1.8,3.1c7.1,1.4,14.2,2.9,21.4,4.5l-4.3-7.5l2.3,0.1l-3.6-6.6h1.8l-3-5.7h1.1l-2.3-4.7h1l-2-4.4
	l1,0l-2-4.9l0.8,0c-1.7-3.6-2.8-9.5-2.8-9.5l0,0l0,0c0,0-1,5.8-2.8,9.5l0.8,0l-2,4.9l1,0l-2,4.4h1l-2.3,4.7h1.1l-3,5.7h1.8l-3.6,6.6
	L300.8,153.2z"/>
<path class="st1" d="M319.1,161.9l-0.9,1.5c5,1.1,10.1,2.2,15.2,3.3l-2.8-4.8l1.7,0l-2.7-4.9h1.3l-2.3-4.3h0.8l-1.8-3.5h0.8
	l-1.5-3.3l0.8,0l-1.5-3.7l0.6,0c-1.3-2.7-2.1-7.1-2.1-7.1l0,0l0,0c0,0-0.8,4.4-2.1,7.1l0.6,0l-1.5,3.7l0.8,0l-1.5,3.3h0.8l-1.8,3.5
	h0.8l-2.3,4.3h1.3l-2.7,4.9L319.1,161.9z"/>
<path class="st4" d="M59.1,147.5c9-1.4,17.9-2.7,26.8-3.8l-3.6-6.7h2l-4.3-8.7l1.9,0l-3.7-8.1l1.9,0l-3.8-9l1.5,0
	c-3.2-6.7-5.1-17.6-5.1-17.6l0,0l0,0c0,0-1.9,10.8-5.1,17.6l1.5,0l-3.8,9l1.9,0l-3.7,8.1l1.9,0l-4.3,8.7h2l-5.6,10.5L59.1,147.5
	L59.1,147.5z"/>
<g>
	<rect x="236.7" y="0.2" class="st4" width="6.7" height="147.2"/>
</g>
<g>
	<rect x="40" y="0.2" class="st3" width="8.8" height="156.2"/>
</g>
<g>
	<rect x="76.3" y="0.2" class="st4" width="8.8" height="156.2"/>
</g>
<g>
	<path class="st1" d="M195.2,139.8c0.1-0.1,23.9-0.1,24,0c0,0-6.6-2-6.9-7.7V0l-10.2,0v38.1c-1.9-0.8-4.2-1.5-6.9-1.6
		c0,0.5,0,0.5,0,0.5s7,2.1,6.9,4.8c0,0.2,0,0.4,0.1,0.6l0,89.3l0,0C202.1,137.8,195.2,139.8,195.2,139.8z"/>
</g>
<path class="st6" d="M168,138C79.1,138,0,150.7,0,150.7V184h168h168v-33.3C336,150.7,256.9,138,168,138z"/>
<path class="st7" d="M173.7,146.1c0.6-1.1,1.3-2.1,2.2-2.8c-1.2,0.1-2.1,0.7-2.8,1.5c0.5-1.7,1.3-2.8,2.2-3.6c-1.8,0.4-3,2-3.8,4.6
	c-0.1-2.3-0.3-4.2-0.7-5.4c-0.4,1.2-0.6,3.1-0.7,5.4c-0.7-2.5-2-4.1-3.7-4.5c0.9,0.8,1.7,2,2.2,3.7l0,0c-0.7-0.9-1.7-1.4-2.9-1.6
	c0.9,0.7,1.6,1.7,2.2,2.8c-0.8-0.6-1.8-0.9-3-0.8c0.7,0.4,1.4,0.9,1.9,1.7h7.9c0.6-0.8,1.3-1.4,1.9-1.7
	C175.5,145.2,174.5,145.4,173.7,146.1z"/>
<path class="st7" d="M244.3,159.7c0.8-1.6,1.9-3,3.1-4.1c-1.7,0.2-3.1,1-4.1,2.1c0.8-2.5,1.9-4.1,3.1-5.2c-2.6,0.6-4.4,2.9-5.4,6.6
	c-0.1-3.3-0.5-6.1-1-7.8c-0.5,1.7-0.8,4.5-1,7.8c-1-3.6-2.9-5.9-5.4-6.5c1.3,1.2,2.4,2.9,3.2,5.4l0,0c-1.1-1.2-2.4-2.1-4.3-2.3
	c1.3,1,2.3,2.4,3.1,4.1c-1.2-0.9-2.6-1.3-4.3-1.1c1,0.6,1.9,1.3,2.8,2.5h11.4c0.9-1.2,1.9-2,2.8-2.5
	C246.9,158.4,245.4,158.8,244.3,159.7z"/>
<rect y="183.6" class="st8" width="336" height="51.6"/>
<path class="st9" d="M0,211.3h336l0-8.1c0,0-269.1-0.9-286.1,0.9c-0.3,0,101.7-0.5,101.7,2.9C151.6,210.3,76.7,208.3,0,211.3
	L0,211.3z"/>
<path class="st9" d="M0.3,192c66.3,0.4,82.4,0.7,82.4,0.7c-18.6,0.3-46.9,0.5-82.4,0.7v-1.7C0.3,191.6,0.3,192,0.3,192z"/>
<path class="st9" d="M0.3,187.2c102.6,0.6,127.4,1.1,127.4,1.1c-28.8,0.4-72.5,0.8-127.4,1.1v-2.8C0.3,186.6,0.3,187.2,0.3,187.2z"
	/>
<g>
	<g>
		<defs>
			<polygon id="SVGID_1_" points="1,1 2,1 1,2 			"/>
		</defs>
		<defs>
			<polygon id="SVGID_2_" points="-1,-1 -2,-1 -1,-2 			"/>
		</defs>
		<clipPath id="SVGID_3_">
			<use xlink:href="#SVGID_1_"  style="overflow:visible;"/>
		</clipPath>
		<clipPath id="SVGID_4_" class="st10">
			<use xlink:href="#SVGID_2_"  style="overflow:visible;"/>
		</clipPath>
		
			<linearGradient id="SVGID_5_" gradientUnits="userSpaceOnUse" x1="0" y1="11.365" x2="335.99" y2="11.365" gradientTransform="matrix(1 0 0 -1 0 238)">
			<stop  offset="0" style="stop-color:#4D4D4D"/>
			<stop  offset="0.2891" style="stop-color:#4F4F4F"/>
			<stop  offset="0.4413" style="stop-color:#575757"/>
			<stop  offset="0.5616" style="stop-color:#646464"/>
			<stop  offset="0.6651" style="stop-color:#777777"/>
			<stop  offset="0.7581" style="stop-color:#909090"/>
			<stop  offset="0.8433" style="stop-color:#AFAFAF"/>
			<stop  offset="0.9217" style="stop-color:#D3D3D3"/>
			<stop  offset="0.9945" style="stop-color:#FCFCFC"/>
			<stop  offset="1" style="stop-color:#FFFFFF"/>
		</linearGradient>
		<path class="st11" d="M0,235.2h336l0-17c0,0-225.6-0.4-254.3,0.1c-8,0.8,141.9,2.1,104.1,3.3c-24.5,0.8-164.4,1.3-170.5,2.6
			c-7.1,1.4,107.5,2.1,94.2,3.2C96.8,228.5,29,228.6,0,229.2V235.2L0,235.2z"/>
	</g>
</g>
<path class="st12" d="M0,235.2h336l0-17c0,0-225.6-0.4-254.3,0.1c-8,0.8,141.9,2.1,104.1,3.3c-24.5,0.8-164.4,1.3-170.5,2.6
	c-7.1,1.4,107.5,2.1,94.2,3.2C96.8,228.5,29,228.6,0,229.2V235.2L0,235.2z"/>
<path class="st7" d="M27.1,168.5c0.8-1.5,1.7-2.8,2.9-3.7c-1.6,0.2-2.8,0.9-3.7,1.9c0.7-2.3,1.7-3.7,2.9-4.8c-2.3,0.5-4,2.7-5,6
	c-0.1-3-0.4-5.5-0.9-7.1c-0.5,1.6-0.8,4.1-0.9,7.1c-1-3.3-2.6-5.4-4.9-6c1.2,1.1,2.2,2.6,2.9,4.9l0,0c-1-1.1-2.2-1.9-3.9-2.1
	c1.2,0.9,2.1,2.2,2.9,3.7c-1.1-0.8-2.4-1.2-3.9-1.1c0.9,0.5,1.8,1.2,2.6,2.3h10.4c0.8-1.1,1.7-1.8,2.6-2.3
	C29.5,167.3,28.2,167.7,27.1,168.5z"/>
<path class="st7" d="M63.7,150.6c0.5-1.1,1.2-2,2-2.6c-1.1,0.1-2,0.6-2.7,1.4c0.5-1.6,1.2-2.6,2-3.4c-1.6,0.4-2.8,1.9-3.5,4.3
	c-0.1-2.1-0.3-3.9-0.6-5.1c-0.3,1.1-0.5,2.9-0.6,5c-0.7-2.4-1.9-3.9-3.5-4.2c0.9,0.8,1.6,1.8,2.1,3.5l0,0c-0.7-0.8-1.6-1.3-2.7-1.5
	c0.8,0.7,1.5,1.6,2,2.6c-0.8-0.6-1.7-0.8-2.8-0.7c0.6,0.4,1.3,0.9,1.8,1.6h7.4c0.6-0.8,1.2-1.3,1.8-1.6
	C65.4,149.7,64.5,150,63.7,150.6z"/>
<path class="st7" d="M311.6,168.5c0.8-1.5,1.7-2.8,2.9-3.7c-1.6,0.2-2.8,0.9-3.7,1.9c0.7-2.3,1.7-3.7,2.9-4.8c-2.3,0.5-4,2.7-5,6
	c-0.1-3-0.4-5.5-0.9-7.1c-0.5,1.6-0.8,4.1-0.9,7.1c-1-3.3-2.6-5.4-4.9-6c1.2,1.1,2.2,2.6,2.9,4.9l0,0c-1-1.1-2.2-1.9-3.9-2.1
	c1.2,0.9,2.1,2.2,2.9,3.7c-1.1-0.8-2.4-1.2-3.9-1.1c0.9,0.5,1.8,1.2,2.6,2.3H313c0.8-1.1,1.7-1.8,2.6-2.3
	C314,167.3,312.7,167.7,311.6,168.5z"/>
<rect class="st13" width="336" height="235.2"/>
</svg>
