<?xml version="1.0" encoding="utf-8"?>
<!-- Generator: Adobe Illustrator 23.0.1, SVG Export Plug-In . SVG Version: 6.00 Build 0)  -->
<svg version="1.1" id="Layer_1" xmlns="http://www.w3.org/2000/svg" xmlns:xlink="http://www.w3.org/1999/xlink" x="0px" y="0px"
	 viewBox="0 0 412 847" style="enable-background:new 0 0 412 847;" xml:space="preserve">
<style type="text/css">
	.st0{fill:url(#SVGID_1_);}
	.st1{opacity:0.73;}
	.st2{fill:#EFE7C5;}
	.st3{opacity:0.5;}
	.st4{fill:#292942;}
	.st5{fill:#32283F;}
	.st6{fill:#2B2433;}
	.st7{fill:#262649;}
	.st8{fill:#332647;}
	.st9{fill:#E4E4F2;}
</style>
<linearGradient id="SVGID_1_" gradientUnits="userSpaceOnUse" x1="-217.4999" y1="423.5001" x2="629.4996" y2="423.5001" gradientTransform="matrix(6.123234e-17 -1 1 6.123234e-17 -217.5 629.5)">
	<stop  offset="0" style="stop-color:#514D72"/>
	<stop  offset="1" style="stop-color:#3C3A51"/>
</linearGradient>
<rect x="0" y="0" class="st0" width="412" height="847"/>
<g class="st1">
	<path class="st2" d="M294.98,295.94c-12.36,4.39-18.67,18.12-14.28,30.2s18.12,18.67,30.2,14.28c0.27-0.27,0.82-0.27,1.1-0.55
		c-2.75,3.29-6.59,5.77-10.98,7.41c-14,4.94-29.38-2.2-34.32-16.2c-4.94-14,2.2-29.38,16.2-34.32c4.39-1.65,8.79-1.92,13.18-1.37
		C295.8,295.66,295.25,295.94,294.98,295.94z"/>
</g>
<g class="st3">
	<polygon class="st4" points="412,663 407.52,663 412,654.81 	"/>
	<path class="st5" d="M178.87,703.74l-4.85,8.32c18.72,3.47,37.09,6.93,55.81,10.75l-11.09-19.07h5.89l-9.36-16.99h4.51l-7.97-14.91
		h2.77l-6.24-12.13h2.77l-5.2-11.44h2.77l-5.2-12.83h2.08c-4.51-9.36-7.28-24.61-7.28-24.61l0,0l0,0c0,0-2.77,15.25-7.28,24.61h2.08
		l-5.2,12.83h2.77l-5.2,11.44h2.77l-6.24,12.13h2.77l-7.97,14.91h4.51l-9.36,16.99H178.87z"/>
	<path class="st6" d="M272.86,720.38c31.2-4.85,62.05-9.36,92.9-13.17l-12.48-23.22h6.93l-14.91-30.16h6.59l-12.83-28.08h6.59
		l-13.17-31.2h5.2c-11.09-23.22-17.68-61.01-17.68-61.01l0,0l0,0c0,0-6.59,37.44-17.68,61.01h5.2l-13.17,31.2h6.59l-12.83,28.08
		h6.59l-14.91,30.16h6.93l-19.41,36.4H272.86L272.86,720.38z"/>
	<polygon class="st7" points="0.45,674.27 0,674.27 0,673.45 	"/>
	<path class="st7" d="M5.31,702.35c-1.77,0.13-3.54,0.27-5.31,0.4v-9.66l0.22,0.38L5.31,702.35z"/>
	<path class="st8" d="M42.4,653.13l-27.04,47.49c42.64-3.47,85.27-5.2,127.56-5.2c7.63,0,15.25,0,22.53,0.35l-24.26-42.64
		l14.56,0.35l-23.22-42.29h11.44l-19.41-36.4h6.93l-14.91-30.16h6.59l-12.83-28.08h6.59l-13.17-31.2h5.2
		C98.9,461.78,91.97,424,91.97,424l0,0l0,0c0,0-6.59,37.44-17.68,61.01h5.2l-13.17,31.2h6.59l-12.83,28.08h6.59l-14.91,30.16h6.93
		l-18.72,36.74h11.44l-23.22,42.29L42.4,653.13z"/>
	<path class="st6" d="M127.67,670.12l-13.87,23.57c7.63,0,15.25,0,22.88,0c22.53,0.35,45.41,1.04,67.94,2.43l-13.87-25.3l9.36,0.35
		l-14.21-27.04h7.28l-12.13-23.57h4.51l-9.36-19.41h4.16l-7.97-18.03h4.16L168.57,563h3.47c-6.93-14.91-10.75-38.82-10.75-38.82l0,0
		l0,0c0,0-4.51,23.92-11.79,38.48h3.47l-9.01,20.8h4.16l-8.32,17.68h4.16l-9.71,19.07h4.51l-12.83,23.22h7.28l-15.25,26.69H127.67z"
		/>
	<path class="st5" d="M69.43,696.81c-23.14,0.67-46.29,1.76-69.43,3.29V573.39l3.23-7.27H0v-4.82l8.08-19.79H3.92
		c4.33-9.01,7.8-20.88,10.18-30.5s3.68-16.99,3.68-16.99s0,0.69,0.35,1.73c0.35-1.04,0.35-1.73,0.35-1.73s5.2,29.47,13.86,47.49
		h-4.16l10.06,24.61h-5.2l9.7,21.84h-5.2l11.44,23.57h-5.54l14.9,28.43h-9.01l18.02,32.93h-0.69l-10.75-0.35L69.43,696.81z"/>
	<path class="st4" d="M407.17,638.92l4.18,7.76v64.42c-22.21-3.01-44.38-5.63-66.33-8.05l5.87-10.4l-9.32,0.34l1.51-2.77
		l14.37-26.34h-7.94l13.47-24.96h-4.84l10.02-20.8h-4.49l8.63-19.41h-4.48l8.97-21.49h-3.79c3.79-8.15,6.81-18.64,8.88-27.09
		c2.07-8.45,3.2-14.86,3.2-14.86s4.49,26,12.08,41.95h-3.79l8.97,21.49h-4.48l8.63,19.41h-4.48l9.36,19.45l0.65,1.35H407.17z"/>
	<polygon class="st7" points="405.21,658.27 412,645.68 412,658.27 	"/>
	<path class="st7" d="M397.23,687.5L412,660.43v41.64c-4.23-0.68-8.46-1.36-12.69-2.03l7.28-13.22L397.23,687.5z"/>
	<path class="st8" d="M217.45,672.54l-16.99,28.77c34.66,3.12,69.33,7.63,104.34,12.48l11.44,0.35h0.69l-22.19-40.21l10.75,0.35l0,0
		h0.69L288.51,641h8.32h0.69l-14.56-28.77h5.55l-11.09-23.57h4.51l0,0h0.69l-9.71-22.19h5.2l-10.05-24.61h4.16
		c-8.32-18.37-13.17-47.84-13.17-47.84l0,0l0,0c0,0,0,0.69-0.35,1.73c-0.35-1.04-0.35-1.73-0.35-1.73l0,0l0,0
		c0,0-5.55,29.12-14.56,47.49h4.16l-10.75,24.26h5.2l-10.05,21.84h5.2l-11.79,23.22h5.55l-15.6,28.42h9.01l-18.37,32.58
		L217.45,672.54z"/>
	<polygon class="st4" points="412,638.92 411.35,638.92 411.35,637.57 	"/>
</g>
<path class="st9" d="M412,692.89V846.9H0V692.87c0.07,0,0.15-0.01,0.22-0.01c64.72-3.66,134.26-6.04,205.64-6.04
	c47,0,93.2,1.03,137.76,2.78C366.9,690.51,389.73,691.62,412,692.89z"/>
</svg>
