<?xml version="1.0" encoding="utf-8"?>
<!-- Generator: Adobe Illustrator 21.0.2, SVG Export Plug-In . SVG Version: 6.00 Build 0)  -->
<svg version="1.1" xmlns="http://www.w3.org/2000/svg" xmlns:xlink="http://www.w3.org/1999/xlink" x="0px" y="0px"
	 viewBox="0 0 88.5 19" style="enable-background:new 0 0 88.5 19;" xml:space="preserve">
<style type="text/css">
	.st0{display:none;}
	.st1{display:inline;}
	.st2{opacity:0.18;fill:#FFFFFF;enable-background:new    ;}
	.st3{fill:#FFFFFF;}
</style>
<g id="Layer_2" class="st0">
	<rect y="0.3" class="st1" width="88.5" height="18.7"/>
</g>
<g id="Layer_1">
	<g id="Layer_2_1_" class="st0">
		<rect y="0.1" class="st1" width="88.5" height="18.9"/>
	</g>
	<g id="Layer_7">
		<path class="st2" d="M46.3,18.8c12.3,0,18.6-2,24.6-3.9c4.8-1.6,9.4-3,17.6-3.4V2.1c-9.6,0.4-15.1,2.1-20.4,3.8
			c-5.6,1.8-11,3.5-21.8,3.5S30.2,7.7,24.6,5.9C18.6,4,12.3,2,0,2v9.4c10.8,0,16.1,1.7,21.7,3.5C27.7,16.8,34,18.8,46.3,18.8z"/>
	</g>
	<path class="st3" d="M88.5,0H0v0.3v9.1v0.4c10.8,0,16.1,1.6,21.8,3.4c6,1.9,12.3,3.9,24.6,3.9c12.3,0,18.6-2,24.6-3.9
		c4.8-1.5,9.4-3,17.5-3.4l0-0.4h0V0z"/>
</g>
</svg>
