<?xml version="1.0" encoding="utf-8"?>
<svg version="1.1" xmlns="http://www.w3.org/2000/svg" xmlns:xlink="http://www.w3.org/1999/xlink" x="0px" y="0px"
	 viewBox="0 0 77 721" style="enable-background:new 0 0 77 721;" xml:space="preserve">
<style type="text/css">
	.st0{display:none;}
	.st1{display:inline;}
	.st2{fill:#161617;}
	.st3{fill:#FFFFFF;}
</style>
<g id="Layer_1" class="st0">
	<g class="st1">
		<rect x="0" y="0.5" class="st2" width="1280" height="720"/>
	</g>
</g>
<g id="Layer_2">
	<path class="st3" d="M38.5,0h-10h-6H12v0.5H0C0,24.8,5.5,37.1,10.7,49C15.5,59.7,20,69.8,20,90.5s-4.5,30.8-9.3,41.5
		C5.5,143.9,0,156.2,0,180.5c0,24.3,5.5,36.6,10.7,48.5c4.8,10.7,9.3,20.9,9.3,41.5c0,20.7-4.5,30.8-9.3,41.5
		C5.5,323.9,0,336.2,0,360.5c0,24.3,5.5,36.6,10.7,48.5c4.8,10.7,9.3,20.9,9.3,41.5s-4.5,30.8-9.3,41.5C5.5,503.9,0,516.2,0,540.5
		s5.5,36.6,10.7,48.5c4.8,10.7,9.3,20.9,9.3,41.5c0,20.7-4.5,30.8-9.3,41.5C5.5,683.9,0,696.2,0,720.5h14.1v0.5h8.4h8h8H77V0H38.5z"
		/>
</g>
</svg>
