<?xml version="1.0" encoding="utf-8"?>
<!-- Generator: Adobe Illustrator 23.0.0, SVG Export Plug-In . SVG Version: 6.00 Build 0)  -->
<svg version="1.1" xmlns="http://www.w3.org/2000/svg" xmlns:xlink="http://www.w3.org/1999/xlink" x="0px" y="0px"
	 viewBox="0 0 370.5 19" style="enable-background:new 0 0 370.5 19;" xml:space="preserve">
<style type="text/css">
	.st0{display:none;}
	.st1{display:inline;fill:#161617;}
	.st2{opacity:0.18;enable-background:new    ;}
	.st3{fill:#FFFFFF;}
	.st4{fill:none;}
</style>
<g id="Layer_2" class="st0">
	<rect x="0" y="0.1" class="st1" width="370.5" height="18.9"/>
</g>
<g id="Layer_3_1_" class="st0">
	<rect class="st1" width="370.5" height="19"/>
</g>
<g id="Layer_1">
	<g class="st0">
		<rect x="-167.7" y="-8.4" class="st1" width="706" height="36"/>
	</g>
	<g id="Layer_3">
	</g>
	<g id="Layer_4">
		<g>
			<g class="st2">
				<path class="st3" d="M324.2,18.8c-12.3,0-18.5-2-24.6-3.9c-5.6-1.8-10.9-3.5-21.7-3.5c-10.8,0-16.1,1.7-21.7,3.5
					c-6,1.9-12.3,3.9-24.6,3.9c-12.3,0-18.6-2-24.6-3.9c-5.6-1.8-10.9-3.5-21.7-3.5c-10.9,0-16.1,1.7-21.7,3.5
					c-6,1.9-12.3,3.9-24.6,3.9s-18.5-2-24.6-3.9c-5.6-1.8-10.9-3.5-21.7-3.5c-10.8,0-16.1,1.7-21.7,3.5c-6,1.9-12.3,3.9-24.6,3.9
					s-18.6-2-24.6-3.9c-5.6-1.8-10.9-3.5-21.7-3.5V2c12.3,0,18.6,2,24.6,3.9c5.6,1.8,10.9,3.5,21.7,3.5s16.2-1.7,21.8-3.5
					C74.2,4,80.4,2,92.7,2c12.3,0,18.5,2,24.6,3.9c5.6,1.8,10.9,3.5,21.7,3.5c10.9,0,16.1-1.7,21.7-3.5C166.7,4,173,2,185.3,2
					c12.3,0,18.6,2,24.6,3.9c5.6,1.8,10.9,3.5,21.7,3.5s16.2-1.7,21.8-3.5C259.4,4,265.7,2,278,2c12.3,0,18.5,2,24.6,3.9
					c5.6,1.8,10.9,3.5,21.7,3.5c10.9,0,16.1-1.7,21.7-3.5C352,4,358.3,2,370.5,2v9.4c-10.9,0-16.1,1.7-21.7,3.5
					C342.8,16.8,336.5,18.8,324.2,18.8z"/>
			</g>
			<g>
				<path class="st3" d="M324.2,17.1c-12.3,0-18.5-2-24.6-3.9c-5.6-1.8-10.9-3.5-21.7-3.5c-10.8,0-16.1,1.7-21.7,3.5
					c-6,1.9-12.3,3.9-24.6,3.9c-12.3,0-18.6-2-24.6-3.9c-5.6-1.8-10.9-3.5-21.7-3.5c-10.9,0-16.1,1.7-21.7,3.5
					c-6,1.9-12.3,3.9-24.6,3.9s-18.5-2-24.6-3.9c-5.6-1.8-10.9-3.5-21.7-3.5c-10.8,0-16.1,1.7-21.7,3.5c-6,1.9-12.3,3.9-24.6,3.9
					s-18.6-2-24.6-3.9C16.1,11.4,10.8,9.8,0,9.8V0.3c12.3,0,18.5,2,24.6,3.9C30.2,6,35.5,7.7,46.3,7.7S62.5,6,68.1,4.2
					c6-1.9,12.3-3.9,24.6-3.9c12.3,0,18.5,2,24.6,3.9c5.6,1.8,10.9,3.5,21.7,3.5c10.9,0,16.1-1.7,21.7-3.5c6-1.9,12.3-3.9,24.6-3.9
					c12.3,0,18.6,2,24.6,3.9c5.6,1.8,10.9,3.5,21.7,3.5s16.2-1.7,21.8-3.5c6-1.9,12.3-3.9,24.6-3.9c12.3,0,18.5,2,24.6,3.9
					c5.6,1.8,10.9,3.5,21.7,3.5c10.9,0,16.1-1.7,21.7-3.5c6-1.9,12.3-3.9,24.6-3.9v9.4c-10.9,0-16.1,1.7-21.7,3.5
					C342.8,15.1,336.5,17.1,324.2,17.1z"/>
			</g>
			<g>
				<rect x="0" y="0.1" class="st3" width="370.5" height="8.6"/>
			</g>
		</g>
		<g>
			<rect x="0" y="0.1" class="st4" width="370.5" height="18.9"/>
		</g>
		<rect x="0" y="0.1" class="st4" width="370.5" height="18.9"/>
	</g>
</g>
</svg>
