<?xml version="1.0" encoding="utf-8"?>
<!-- Generator: Adobe Illustrator 21.0.2, SVG Export Plug-In . SVG Version: 6.00 Build 0)  -->
<svg version="1.1" xmlns="http://www.w3.org/2000/svg" xmlns:xlink="http://www.w3.org/1999/xlink" x="0px" y="0px"
	 viewBox="0 0 1280 720" style="enable-background:new 0 0 1280 720;" xml:space="preserve">
<style type="text/css">
	.st0{display:none;}
	.st1{display:inline;}
	.st2{fill:#161617;}
	.st3{fill:#FFFFFF;}
</style>
<g id="Layer_1" class="st0">
	<g class="st1">
		<rect class="st2" width="1280" height="720"/>
	</g>
</g>
<g id="Layer_2">
	<path class="st3" d="M1241.5-0.5h-10h-6H1215V0h-12c0,24.3,5.5,36.6,10.7,48.5c4.8,10.7,9.3,20.9,9.3,41.6s-4.5,30.8-9.3,41.5
		c-5.3,11.9-10.7,24.1-10.7,48.5c0,24.3,5.5,36.6,10.7,48.5c4.8,10.7,9.3,20.9,9.3,41.5c0,20.7-4.5,30.8-9.3,41.5
		c-5.3,11.9-10.7,24.1-10.7,48.5c0,24.3,5.5,36.6,10.7,48.5c4.8,10.7,9.3,20.9,9.3,41.5s-4.5,30.8-9.3,41.5
		c-5.3,11.9-10.7,24.1-10.7,48.5s5.5,36.6,10.7,48.5c4.8,10.7,9.3,20.9,9.3,41.5c0,20.7-4.5,30.8-9.3,41.5
		c-5.3,11.9-10.7,24.1-10.7,48.5h14.1v0.5h8.4h8h8h38.5v-721H1241.5z"/>
	<path class="st3" d="M38.5-0.5h10h6H65V0l12,0c0,24.3-5.5,36.6-10.7,48.5C61.5,59.2,57,69.3,57,90s4.5,30.8,9.3,41.5
		C71.5,143.4,77,155.7,77,180c0,24.3-5.5,36.6-10.7,48.5C61.5,239.2,57,249.3,57,270c0,20.7,4.5,30.8,9.3,41.5
		C71.5,323.4,77,335.7,77,360c0,24.3-5.5,36.6-10.7,48.5C61.5,419.2,57,429.3,57,450s4.5,30.8,9.3,41.5C71.5,503.4,77,515.7,77,540
		s-5.5,36.6-10.7,48.5C61.5,599.2,57,609.3,57,630c0,20.7,4.5,30.8,9.3,41.5C71.5,683.4,77,695.7,77,720H62.9v0.5h-8.4h-8h-8H0
		l0-721H38.5z"/>
</g>
</svg>
