<?xml version="1.0" encoding="utf-8"?>
<!-- Generator: Adobe Illustrator 21.0.2, SVG Export Plug-In . SVG Version: 6.00 Build 0)  -->
<svg version="1.1" xmlns="http://www.w3.org/2000/svg" xmlns:xlink="http://www.w3.org/1999/xlink" x="0px" y="0px"
	 viewBox="0 0 77 721" style="enable-background:new 0 0 77 721;" xml:space="preserve">
<style type="text/css">
	.st0{display:none;}
	.st1{display:inline;}
	.st2{fill:#161617;}
	.st3{fill:#FFFFFF;}
</style>
<g id="Layer_1" class="st0">
	<g class="st1">
		<rect x="0" y="0.5" class="st2" width="1280" height="720"/>
	</g>
</g>
<g id="Layer_2">
	<path class="st3" d="M38.5,0l10,0l6,0L65,0v0.5h12c0,24.3-5.5,36.6-10.7,48.5C61.5,59.7,57,69.8,57,90.5s4.5,30.8,9.3,41.5
		c5.3,11.9,10.7,24.1,10.7,48.5c0,24.3-5.5,36.6-10.7,48.5c-4.8,10.7-9.3,20.9-9.3,41.5c0,20.7,4.5,30.8,9.3,41.5
		c5.3,11.9,10.7,24.1,10.7,48.5c0,24.3-5.5,36.6-10.7,48.5c-4.8,10.7-9.3,20.9-9.3,41.5s4.5,30.8,9.3,41.5
		c5.3,11.9,10.7,24.1,10.7,48.5s-5.5,36.6-10.7,48.5c-4.8,10.7-9.3,20.9-9.3,41.5c0,20.7,4.5,30.8,9.3,41.5
		c5.3,11.9,10.7,24.1,10.7,48.5H62.9v0.5h-8.4h-8h-8H0L0,0L38.5,0z"/>
</g>
</svg>
