<?xml version="1.0" encoding="utf-8"?>
<!-- Generator: Adobe Illustrator 21.0.2, SVG Export Plug-In . SVG Version: 6.00 Build 0)  -->
<svg version="1.1" id="Layer_3" xmlns="http://www.w3.org/2000/svg" xmlns:xlink="http://www.w3.org/1999/xlink" x="0px" y="0px"
	 viewBox="0 0 94 19" style="enable-background:new 0 0 94 19;" xml:space="preserve">
<style type="text/css">
	.st0{opacity:0.2;fill:#FFFFFF;}
	.st1{fill:#FFFFFF;}
</style>
<path class="st0" d="M47,3.3c12.2,0,18.3,2.1,24.3,4.1c5.8,2,11.4,3.9,22.7,3.9v-0.8V9.2c-11.3,0-16.9-1.9-22.7-3.9
	c-6-2-12.1-4.1-24.3-4.1S28.7,3.3,22.7,5.3C16.9,7.3,11.3,9.2,0,9.2v1.3v0.8c11.3,0,16.9-1.9,22.7-3.9C28.7,5.4,34.8,3.3,47,3.3z"/>
<path class="st1" d="M94,19v-3v-3.8V11c-11.3,0-16.9-1.9-22.7-3.9C65.3,5.1,59.2,3,47,3S28.7,5.1,22.7,7.1C16.9,9.1,11.3,11,0,11
	v1.3V16v3H94z"/>
<path class="st1" d="M94,19v-3v-3.8V11c-11.3,0-16.9-1.9-22.7-3.9C65.3,5.1,59.2,3,47,3S28.7,5.1,22.7,7.1C16.9,9.1,11.3,11,0,11
	v1.3V16v3H94z"/>
</svg>
