<?xml version="1.0" encoding="utf-8"?>
<svg version="1.1" xmlns="http://www.w3.org/2000/svg" xmlns:xlink="http://www.w3.org/1999/xlink" x="0px" y="0px"
	 viewBox="0 0 706 35.6" style="enable-background:new 0 0 706 35.6;" xml:space="preserve">
<style type="text/css">
	.st0{display:none;}
	.st1{display:inline;fill:#161617;}
	.st2{opacity:0.18;enable-background:new    ;}
	.st3{fill:#FFFFFF;}
	.st4{fill:none;}
</style>
<g id="Layer_2" class="st0">
	<rect x="0" class="st1" width="706" height="36"/>
</g>
<g id="Layer_3">
</g>
<g id="Layer_4">
	<g>
		<g class="st2">
			<path class="st3" d="M617.8,35.6c-23.4,0-35.3-3.8-46.8-7.4c-10.7-3.4-20.7-6.6-41.4-6.6c-20.6,0-30.7,3.2-41.4,6.6
				c-11.5,3.7-23.4,7.4-46.9,7.4c-23.5,0-35.4-3.8-46.9-7.4c-10.7-3.4-20.7-6.6-41.4-6.6c-20.7,0-30.7,3.2-41.4,6.6
				c-11.5,3.6-23.4,7.4-46.8,7.4c-23.4,0-35.3-3.8-46.8-7.4c-10.7-3.4-20.7-6.6-41.4-6.6c-20.6,0-30.7,3.2-41.4,6.6
				c-11.5,3.7-23.4,7.4-46.9,7.4c-23.5,0-35.4-3.8-46.9-7.4C30.8,24.8,20.7,21.6,0,21.6v-18c23.5,0,35.4,3.8,46.9,7.4
				c10.7,3.4,20.7,6.6,41.4,6.6c20.7,0,30.8-3.2,41.5-6.6c11.5-3.6,23.4-7.4,46.8-7.4c23.4,0,35.3,3.8,46.8,7.4
				c10.7,3.4,20.7,6.6,41.4,6.6c20.7,0,30.7-3.2,41.4-6.6c11.5-3.6,23.4-7.4,46.8-7.4c23.5,0,35.4,3.8,46.9,7.4
				c10.7,3.4,20.7,6.6,41.4,6.6c20.7,0,30.8-3.2,41.5-6.6c11.5-3.6,23.4-7.4,46.8-7.4c23.4,0,35.3,3.8,46.8,7.4
				c10.7,3.4,20.7,6.6,41.4,6.6c20.7,0,30.7-3.2,41.4-6.6c11.5-3.6,23.4-7.4,46.8-7.4v18c-20.7,0-30.7,3.2-41.4,6.6
				C653.1,31.8,641.2,35.6,617.8,35.6z"/>
		</g>
		<g>
			<path class="st3" d="M617.8,32.4c-23.4,0-35.3-3.8-46.8-7.4c-10.7-3.4-20.7-6.6-41.4-6.6c-20.6,0-30.7,3.2-41.4,6.6
				c-11.5,3.7-23.4,7.4-46.9,7.4c-23.5,0-35.4-3.8-46.9-7.4c-10.7-3.4-20.7-6.6-41.4-6.6c-20.7,0-30.7,3.2-41.4,6.6
				c-11.5,3.6-23.4,7.4-46.8,7.4c-23.4,0-35.3-3.8-46.8-7.4c-10.7-3.4-20.7-6.6-41.4-6.6c-20.6,0-30.7,3.2-41.4,6.6
				c-11.5,3.7-23.4,7.4-46.9,7.4S52.9,28.6,41.4,25C30.7,21.6,20.6,18.4,0,18.4v-18c23.4,0,35.3,3.8,46.8,7.4
				c10.7,3.4,20.8,6.6,41.5,6.6c20.7,0,30.8-3.2,41.5-6.6c11.5-3.6,23.4-7.4,46.8-7.4c23.4,0,35.3,3.8,46.8,7.4
				c10.7,3.4,20.7,6.6,41.4,6.6c20.7,0,30.7-3.2,41.4-6.6c11.5-3.6,23.4-7.4,46.8-7.4c23.5,0,35.4,3.8,46.9,7.4
				c10.7,3.4,20.7,6.6,41.4,6.6c20.7,0,30.8-3.2,41.5-6.6c11.5-3.6,23.4-7.4,46.8-7.4c23.4,0,35.3,3.8,46.8,7.4
				c10.7,3.4,20.7,6.6,41.4,6.6c20.7,0,30.7-3.2,41.4-6.6c11.5-3.6,23.4-7.4,46.8-7.4v18c-20.7,0-30.7,3.2-41.4,6.6
				C653.1,28.6,641.2,32.4,617.8,32.4z"/>
		</g>
		<g>
			<rect x="0" y="0" class="st3" width="706" height="16.4"/>
		</g>
	</g>
	<g>
		<rect x="0" transform="matrix(-1 -1.224647e-16 1.224647e-16 -1 706 36)" class="st4" width="706" height="36"/>
	</g>
	<rect x="0" transform="matrix(-1 -1.224647e-16 1.224647e-16 -1 706 36)" class="st4" width="706" height="36"/>
</g>
</svg>
