<?xml version="1.0" encoding="utf-8"?>
<svg version="1.1" xmlns="http://www.w3.org/2000/svg" xmlns:xlink="http://www.w3.org/1999/xlink" x="0px" y="0px"
	 viewBox="0 0 706 35.6" style="enable-background:new 0 0 706 35.6;" xml:space="preserve">
<style type="text/css">
	.st0{display:none;}
	.st1{display:inline;fill:#161617;}
	.st2{opacity:0.18;enable-background:new    ;}
	.st3{fill:#FFFFFF;}
	.st4{fill:none;}
</style>
<g id="Layer_2" class="st0">
	<rect x="0" class="st1" width="706" height="36"/>
</g>
<g id="Layer_4">
</g>
<g id="Layer_3">
	<g>
		<g class="st2">
			<path class="st3" d="M88.2-0.2c23.4,0,35.3,3.8,46.8,7.4c10.7,3.4,20.7,6.6,41.4,6.6c20.6,0,30.7-3.2,41.4-6.6
				c11.5-3.7,23.4-7.4,46.9-7.4c23.5,0,35.4,3.8,46.9,7.4c10.7,3.4,20.7,6.6,41.4,6.6c20.7,0,30.7-3.2,41.4-6.6
				c11.5-3.6,23.4-7.4,46.8-7.4c23.4,0,35.3,3.8,46.8,7.4c10.7,3.4,20.7,6.6,41.4,6.6c20.6,0,30.7-3.2,41.4-6.6
				c11.5-3.7,23.4-7.4,46.9-7.4c23.5,0,35.4,3.8,46.9,7.4c10.7,3.4,20.7,6.6,41.4,6.6v18c-23.5,0-35.4-3.8-46.9-7.4
				c-10.7-3.4-20.7-6.6-41.4-6.6c-20.7,0-30.8,3.2-41.5,6.6c-11.5,3.6-23.4,7.4-46.8,7.4c-23.4,0-35.3-3.8-46.8-7.4
				c-10.7-3.4-20.7-6.6-41.4-6.6c-20.7,0-30.7,3.2-41.4,6.6c-11.5,3.6-23.4,7.4-46.8,7.4c-23.5,0-35.4-3.8-46.9-7.4
				c-10.7-3.4-20.7-6.6-41.4-6.6c-20.7,0-30.8,3.2-41.5,6.6c-11.5,3.6-23.4,7.4-46.8,7.4c-23.4,0-35.3-3.8-46.8-7.4
				c-10.7-3.4-20.7-6.6-41.4-6.6c-20.7,0-30.7,3.2-41.4,6.6C35.3,28,23.4,31.8,0,31.8v-18c20.7,0,30.7-3.2,41.4-6.6
				C52.9,3.6,64.8-0.2,88.2-0.2z"/>
		</g>
		<g>
			<path class="st3" d="M88.2,3c23.4,0,35.3,3.8,46.8,7.4c10.7,3.4,20.7,6.6,41.4,6.6c20.6,0,30.7-3.2,41.4-6.6
				C229.3,6.8,241.2,3,264.7,3c23.5,0,35.4,3.8,46.9,7.4c10.7,3.4,20.7,6.6,41.4,6.6c20.7,0,30.7-3.2,41.4-6.6
				C405.9,6.8,417.8,3,441.2,3c23.4,0,35.3,3.8,46.8,7.4c10.7,3.4,20.7,6.6,41.4,6.6c20.6,0,30.7-3.2,41.4-6.6
				C582.3,6.8,594.2,3,617.7,3s35.4,3.8,46.9,7.4c10.7,3.4,20.7,6.6,41.4,6.6v18c-23.4,0-35.3-3.8-46.8-7.4
				c-10.7-3.4-20.8-6.6-41.5-6.6c-20.7,0-30.8,3.2-41.5,6.6c-11.5,3.6-23.4,7.4-46.8,7.4c-23.4,0-35.3-3.8-46.8-7.4
				c-10.7-3.4-20.7-6.6-41.4-6.6c-20.7,0-30.7,3.2-41.4,6.6C388.3,31.2,376.4,35,353,35c-23.5,0-35.4-3.8-46.9-7.4
				c-10.7-3.4-20.7-6.6-41.4-6.6c-20.7,0-30.8,3.2-41.5,6.6c-11.5,3.6-23.4,7.4-46.8,7.4c-23.4,0-35.3-3.8-46.8-7.4
				c-10.7-3.4-20.7-6.6-41.4-6.6c-20.7,0-30.7,3.2-41.4,6.6C35.3,31.2,23.4,35,0,35V17c20.7,0,30.7-3.2,41.4-6.6
				C52.9,6.8,64.8,3,88.2,3z"/>
		</g>
		<g>

				<rect x="0" y="19" transform="matrix(-1 -1.224647e-16 1.224647e-16 -1 706.0001 54.3996)" class="st3" width="706" height="16.4"/>
		</g>
	</g>
	<g>
		<rect x="0" y="-0.4" class="st4" width="706" height="36"/>
	</g>
	<rect x="0" y="-0.4" class="st4" width="706" height="36"/>
	<g>
		<rect x="706" y="-0.4" class="st4" width="706" height="36"/>
	</g>
	<rect x="706" y="-0.4" class="st4" width="706" height="36"/>
	<rect x="88" y="-0.2" class="st4" width="706" height="36"/>
</g>
</svg>
