<svg version="1.1" preserveAspectRatio="none" id="Layer_3" xmlns="http://www.w3.org/2000/svg" xmlns:xlink="http://www.w3.org/1999/xlink" x="0px" y="0px"
	 viewBox="0 0 94 19" style="enable-background:new 0 0 94 19;" xml:space="preserve">
<style type="text/css">
	.st0{opacity:0.2;fill:#FFFFFF;}
	.st1{fill:#FFFFFF;}
</style>
<path class="st0" d="M47,15.7c-12.2,0-18.3-2.1-24.3-4.1C16.9,9.6,11.3,7.7,0,7.7v0.8v1.3c11.3,0,16.9,1.9,22.7,3.9
	c6,2,12.1,4.1,24.3,4.1s18.3-2.1,24.3-4.1c5.8-2,11.4-3.9,22.7-3.9V8.6V7.7c-11.3,0-16.9,1.9-22.7,3.9C65.3,13.6,59.2,15.7,47,15.7z
	"/>
<path class="st1" d="M0,0v3v3.8V8c11.3,0,16.9,1.9,22.7,3.9c6,2,12.1,4.1,24.3,4.1s18.3-2.1,24.3-4.1C77.1,9.9,82.7,8,94,8V6.8V3V0
	H0z"/>
<path class="st1" d="M0,0v3v3.8V8c11.3,0,16.9,1.9,22.7,3.9c6,2,12.1,4.1,24.3,4.1s18.3-2.1,24.3-4.1C77.1,9.9,82.7,8,94,8V6.8V3V0
	H0z"/>
</svg>
