<?xml version="1.0" encoding="utf-8"?>
<!-- Generator: Adobe Illustrator 21.0.2, SVG Export Plug-In . SVG Version: 6.00 Build 0)  -->
<svg version="1.1" xmlns="http://www.w3.org/2000/svg" xmlns:xlink="http://www.w3.org/1999/xlink" x="0px" y="0px"
	 viewBox="0 0 585.9 172.6" style="enable-background:new 0 0 585.9 172.6;" xml:space="preserve">
<style type="text/css">
	.st0{fill:#FFFFFF;}
	.st1{fill:#FFFFFF;stroke:#FFFFFF;stroke-width:10;stroke-miterlimit:10;}
	.st2{fill:none;stroke:#FFFFFF;stroke-width:4;stroke-miterlimit:10;}
</style>
<g id="Layer_2">
</g>
<g id="Layer_3">
	<g>
		<g id="XMLID_2_">
			<g>
				<path class="st0" d="M582,101.1c2.4,2.4,3.7,5.4,3.7,9.2c0,4.8-2.3,9-6.8,12.5c-4.7,3.7-11,5.5-18.7,5.5s-14-1.7-18.7-5.1
					c-4.7-3.4-7.1-8.2-7.2-14.3h13.2c0.2,5.5,4.2,8.3,12.1,8.3c3,0,5.5-0.7,7.5-2c2-1.3,2.9-2.9,2.9-4.6c0-1.8-0.6-3.1-1.8-4.1
					c-1.2-1-3.1-1.8-5.6-2.6l-12.7-4.6c-9.4-3.3-14.2-8.6-14.2-16.1c0-5,2.2-8.9,6.7-11.9s10.4-4.5,17.9-4.5s13.2,1.6,17.3,4.9
					c4,3.3,6.1,7.4,6.3,12.4h-13.3c-0.2-1.9-1.1-3.4-2.8-4.6c-1.7-1.1-4.1-1.7-7.2-1.7s-5.5,0.6-7.3,1.9c-1.7,1.2-2.6,2.7-2.6,4.3
					c0,2.8,2.4,4.9,7.1,6.2l13.8,5.2C576.1,96.8,579.6,98.8,582,101.1z"/>
				<path class="st0" d="M522.8,74.3c5.5,5.6,8.3,13.4,8.3,23.3c0,9.8-2.8,17.4-8.3,23c-5,5.1-11.6,7.7-19.9,7.7
					c-8.3,0-15-2.6-20.2-7.7c-5.5-5.5-8.3-13.2-8.3-23c0-10,2.8-17.8,8.3-23.3c5-5,11.8-7.6,20.2-7.6c3.9,0,7.6,0.6,11,1.9
					C517.4,69.9,520.3,71.8,522.8,74.3z M516.9,97.5c0-6.2-1.2-10.8-3.6-13.9c-2.4-3.1-5.8-4.6-10-4.6c-4.3,0-7.8,1.5-10.5,4.6
					c-2.7,3.1-4.1,7.7-4.1,13.9c0,6.2,1.2,10.8,3.7,13.9c2.4,3.1,5.8,4.6,10,4.6c4.2,0,7.7-1.5,10.4-4.6
					C515.6,108.3,516.9,103.6,516.9,97.5z"/>
				<path class="st0" d="M471.8,115.2l2,10c-5.3,2.1-9.4,3.1-12.5,3.1s-5.7-0.4-8-1.1c-2.3-0.7-4.3-1.8-6.1-3.2
					c-3.7-3.3-5.5-7.8-5.5-13.6V77.8h-8.2v-6.9l3.1-2.6h5V53H456v15.4h15.8v9.5H456V110c0,4.8,2.3,7.2,6.8,7.2
					C465.1,117.2,468.1,116.5,471.8,115.2z"/>
				<polygon class="st0" points="411,89.9 438.2,126.6 420.9,126.6 401,98.2 394.5,103.6 394.5,126.6 380.4,126.6 380.4,44.3 
					394.5,44.3 394.5,88.8 417.6,68.3 433.6,68.3 433.6,70.9 				"/>
				<polygon class="st0" points="436.8,68.3 433.6,70.9 433.6,68.3 				"/>
				<path class="st0" d="M374,68.1l-0.2,14.2c-2.2-0.5-4.4-0.7-6.6-0.7c-9.4,0-14.2,6.5-14.2,19.6v25.6h-14.2V68.2H353v11.6
					c3.5-8.4,8.8-12.6,15.8-12.6C370.2,67.2,371.9,67.5,374,68.1z"/>
				<polygon class="st0" points="307.9,48.8 333.4,126.6 318.4,126.6 309.6,99.2 298.8,65.7 287.7,99.2 278.6,126.6 263.6,126.6 
					290.1,48.8 				"/>
			</g>
			<g>
			</g>
		</g>
		<path class="st1" d="M332.2,97.4c0,0-15.8,10.1-33.8,2.4c-17.8-7.6-33.5,2.4-33.5,2.4"/>
	</g>
</g>
<g id="Layer_1">
	<g>
		<circle class="st2" cx="154.3" cy="76.5" r="69.6"/>
		<circle class="st2" cx="82.8" cy="41.5" r="39.5"/>
		<circle class="st2" cx="35.6" cy="57.5" r="30.4"/>
		<circle class="st2" cx="17.2" cy="93" r="5.1"/>
		<path class="st2" d="M12.1,93l5.1-20.9c0,0,3.5-4.4,7.9,0c4.4,4.4,11.9,5.4,10.5,15.8s-12.3,14.8-16.2,13.2s-3.9-3.3-3.9-3.3"/>
		<path class="st2" d="M23.9,71.1c0,0,6.1-29.6,46.4,16.8"/>
		<path class="st2" d="M18.5,71c0,0-8.2-15.8-11.9-4.5"/>
		<path class="st2" d="M33.4,94c0,0,20.9-10.9,37-6.1c0,0,15.6-19.4-7.7-44.2"/>
		<path class="st2" d="M26.4,28.6c0,0,14.4-3.9,28.1-14.6"/>
		<path class="st2" d="M96,4.2c0,0,19.9,10.9,41.7,4.7"/>
		<path class="st2" d="M17.2,33.4c0,0-14-3.4-15.1,4.1s5.6,5.3,4.6,10.7"/>
		<path class="st2" d="M74.2,80.1c0,0,12.8,27.9,34,31c0,0-0.5,16.6-2.6,23.8c-2.1,7.2-4.1,33.6,26.9,31l-3.6-19.9
			c0,0,25-28.2,25.4-42.7c0.4-14.5-8.9-18.8-12-28.6c-3.1-9.7-10.1-38.8-25.5-53.5"/>
		<path class="st2" d="M147.6,120.8c0,0,6.6,2.9,13.9,0s2.8-35,13.4-49.8c8.4-11.7,0-53.3-25.3-64"/>
		<path class="st2" d="M163.8,118.1c0,0,3.8,32.2,4.6,36.3c0.8,4.1-10.3,2.3-10.3,2.3s-8.8-1.7-9.1,9.5h40.9c0,0,14.7-21.6,14-35.1
			c0,0,0.1-6.9,6.3-13"/>
		<path class="st2" d="M223.2,86.4l-3,24.5c0,0-0.9,9.8,1.5,15.3s15.6,15.3,6.8,38.3c0,0-26.1,3.3-31.8,1.7s3.1-6.9,8.5-7.7
			c5.4-0.8-5.8-9.4-5.8-9.4"/>
		<path class="st2" d="M89.1,101c0,0,9.2,38.3-6.3,53.8c0,0-1.7,6.9,0,11.4c1.7,4.5-25.3,5.5-28.4,3.4c-3-2.1,8-9.7,8-9.7
			c-21.7-45.5-19.2-70-19.2-70"/>
		<path class="st2" d="M61.1,52.6c0,0-2.2-4-8.1-5.3c-5.9-1.4-9.2-10-5.8-13.1s11.3-8,17.5-1.5s-1.2,7.7-2.8,14.3
			C60.4,53.4,61.1,52.6,61.1,52.6z"/>
		<path class="st2" d="M51,31.3c0,0-4.2,5.9,0,7.1c4.2,1.2,5.2-2.4,8.3-3.5c3.1-1.1,7-0.1,5.9,6.1"/>
		<path class="st2" d="M2.5,41.5c0,0,0.9-7.5,7.8-0.9"/>
	</g>
</g>
</svg>
