<svg xmlns="http://www.w3.org/2000/svg" width="586.1" height="170.8"><style>.st0{fill:url(#SVGID_1_);} .st1{fill:url(#SVGID_2_);} .st2{fill:url(#SVGID_3_);} .st3{fill:url(#SVGID_4_);} .st4{fill:url(#SVGID_5_);} .st5{fill:url(#SVGID_6_);} .st6{fill:url(#SVGID_7_);} .st7{fill:url(#SVGID_8_);} .st8{fill:url(#SVGID_9_);} .st9{fill:url(#SVGID_10_);} .st10{fill:url(#SVGID_11_);} .st11{fill:url(#SVGID_12_);} .st12{fill:url(#SVGID_13_);} .st13{fill:url(#SVGID_14_);} .st14{fill:url(#SVGID_15_);} .st15{fill:url(#SVGID_16_);} .st16{fill:url(#SVGID_17_);} .st17{fill:url(#SVGID_18_);} .st18{fill:url(#SVGID_19_);} .st19{fill:url(#SVGID_20_);} .st20{fill:url(#SVGID_21_);} .st21{fill:url(#SVGID_22_);} .st22{fill:url(#SVGID_23_);} .st23{fill:#161617;} .st24{fill:none;stroke:#161617;stroke-width:10;stroke-miterlimit:10;} .st25{fill:url(#SVGID_24_);} .st26{fill:url(#SVGID_25_);} .st27{fill:url(#SVGID_26_);} .st28{fill:url(#SVGID_27_);} .st29{fill:url(#SVGID_28_);} .st30{fill:url(#SVGID_29_);} .st31{fill:url(#SVGID_30_);} .st32{fill:url(#SVGID_31_);} .st33{fill:url(#SVGID_32_);} .st34{fill:url(#SVGID_33_);} .st35{fill:url(#SVGID_34_);} .st36{fill:url(#SVGID_35_);} .st37{fill:url(#SVGID_36_);} .st38{fill:url(#SVGID_37_);} .st39{fill:url(#SVGID_38_);} .st40{fill:url(#SVGID_39_);} .st41{fill:url(#SVGID_40_);} .st42{fill:url(#SVGID_41_);} .st43{fill:url(#SVGID_42_);} .st44{fill:url(#SVGID_43_);} .st45{fill:url(#SVGID_44_);} .st46{fill:url(#SVGID_45_);} .st47{fill:url(#SVGID_46_);}</style><g id="XMLID_4_"><linearGradient id="SVGID_1_" gradientUnits="userSpaceOnUse" x1="197.572" y1="141.595" x2="235.084" y2="141.595"><stop offset="0" stop-color="#F7B05A"/><stop offset="1" stop-color="#ED776A"/></linearGradient><path class="st0" d="M225.1 127.4c2.4 5.6 15.9 15.6 6.9 39.2 0 0-26.7 3.4-32.6 1.8-5.8-1.6 3.2-7.1 8.7-7.9 5.6-.8-5.9-9.6-5.9-9.6 1.8-4.1 3.4-8.5 4.2-12.6.3-.6 6.6-15.2 11.3-17.9 4.8-2.8 5.7-6 5.7-6-.1 3.3 0 9.2 1.7 13z"/><linearGradient id="SVGID_2_" gradientUnits="userSpaceOnUse" x1="150.745" y1="105.717" x2="227.361" y2="105.717"><stop offset="0" stop-color="#D44441"/><stop offset="1" stop-color="#8D303A"/></linearGradient><path class="st1" d="M206.4 138.3c-.8 4.1-2.3 8.5-4.2 12.6-4.2 9.4-9.7 17.5-9.7 17.5h-41.8c.3-11.5 9.3-9.7 9.3-9.7s11.4 1.9 10.6-2.4c-.4-2.4-1.9-13.8-3-23.3 2.6 11 10.3 22.4 33.9-13.4 28.9-43.8 21-69.2 17.5-76.5 5.4 10 8.4 21.4 8.4 33.6l-.7 10.1-.6 5c-2 13-12.7 27.4-12.7 27.4-6.3 6.3-6.4 13.3-6.4 13.3 0 1.8-.2 3.8-.6 5.8z"/><linearGradient id="SVGID_3_" gradientUnits="userSpaceOnUse" x1="197.572" y1="115" x2="235.084" y2="115"><stop offset="0" stop-color="#F5A91B"/><stop offset="1" stop-color="#EB5C59"/></linearGradient><path class="st2" d="M226 91.7l-2.5 20.1s-.1 1-.1 2.5c0 0-.9 3.2-5.7 6-4.7 2.7-11 17.3-11.3 17.9.4-2 .6-4 .4-5.8 0 0 .1-7.1 6.4-13.3.1 0 10.8-14.4 12.8-27.4z"/><linearGradient id="SVGID_4_" gradientUnits="userSpaceOnUse" x1="150.745" y1="74.611" x2="227.362" y2="74.611"><stop offset="0" stop-color="#FFA613"/><stop offset="1" stop-color="#ED6B60"/></linearGradient><path class="st3" d="M219 43c3.5 7.3 11.4 32.7-17.5 76.5-23.6 35.8-31.4 24.4-33.9 13.4-.5-4.1-1-7.9-1.3-10.4-.2-2-.4-3.3-.4-3.4 4-8.8 2-35.1 11.3-48.2 1.4-1.9 2.3-4.6 2.8-7.8.7-1.9.9-3.7.4-5.7.1-17.4-9.5-43.5-28.8-51.9 1.5-.1 3-.1 4.5-.1 26.3 0 49.2 14.2 61.6 35.4.5.8.9 1.5 1.3 2.2z"/><linearGradient id="SVGID_5_" gradientUnits="userSpaceOnUse" x1="163.648" y1="60.282" x2="208.868" y2="60.282"><stop offset="0" stop-color="#F7B05A"/><stop offset="1" stop-color="#ED776A"/></linearGradient><path class="st4" d="M180.4 57.4c.5 2 .3 3.9-.4 5.7.3-1.7.4-3.6.4-5.7z"/><linearGradient id="SVGID_6_" gradientUnits="userSpaceOnUse" x1="102.585" y1="47.863" x2="181.227" y2="47.863"><stop offset="0" stop-color="#EA5B59"/><stop offset="1" stop-color="#E37115"/></linearGradient><path class="st5" d="M180.4 57.4c0 2-.1 4-.4 5.7-2.5 6.6-10.9 13.1-13.7 23.7-1.5 5.4-10.2 7.6-18.6-16-4.5-12.5-.2-11.6-9.4-28-9.1-16.1-20.2-22.7-20.5-22.9 0 0-2.4-7-15.2-14.7v-.1c7.7 2.8 21.7 6.3 36.5 2.1 4-1 8.2-1.6 12.5-1.9 19.3 8.6 28.9 34.7 28.8 52.1z"/><linearGradient id="SVGID_7_" gradientUnits="userSpaceOnUse" x1="102.695" y1="71.645" x2="180.005" y2="71.645"><stop offset="0" stop-color="#8D303A"/><stop offset="1" stop-color="#D44441"/></linearGradient><path class="st6" d="M145.3 78.3c-.5-1.1-1-2.2-1.4-3.4-3.2-9.9-10.3-39.7-26.1-54.8.3.2 11.4 6.8 20.5 22.9 9.2 16.4 4.9 15.4 9.4 28 8.5 23.6 17.2 21.4 18.6 16 2.8-10.7 11.2-17.1 13.7-23.7-.5 3.2-1.4 5.9-2.8 7.8-9.4 13.1-7.3 39.4-11.3 48.2-.6 1.4-1.4 2.4-2.4 2.8-7.4 2.9-14.2 0-14.2 0 3.8-6.4 6.7-12.9 6.9-17.8.4-12.9-6.8-18-10.8-25.7-.1-.2-.1-.3-.1-.3z"/><linearGradient id="SVGID_8_" gradientUnits="userSpaceOnUse" x1="47.134" y1="123.436" x2="156.135" y2="123.436"><stop offset="0" stop-color="#9E433B"/><stop offset="1" stop-color="#EA5B59"/></linearGradient><path class="st7" d="M145.4 78.5c4 7.7 11.2 12.7 10.8 25.7-.1 4.9-3 11.3-6.9 17.8-7.7 13-19.2 26-19.2 26l3.7 20.3c-6 .5-10.9-.1-14.7-1.4-21.2-25.8 11.2-44.7 22.4-59.1 10.4-13.4 4.7-27.4 3.9-29.3z"/><linearGradient id="SVGID_9_" gradientUnits="userSpaceOnUse" x1="47.135" y1="83.544" x2="156.131" y2="83.544"><stop offset="0" stop-color="#F5A91B"/><stop offset="1" stop-color="#EB5C59"/></linearGradient><path class="st8" d="M145.4 78.5c.9 1.9 6.5 15.9-3.9 29.3-11.2 14.4-43.5 33.3-22.4 59.1-16.3-5.5-14.6-24.4-12.9-30.4 2.1-7.4 2.6-24.4 2.6-24.4s-8.2-10.1-12.5-20.4c-7-16.8 15.7-41.4-31.4-51.5 2-2.5 3.3-4.5-.6-8.6-4.5-4.8-10-3.5-14-1.3 0 0-8.8-4.5 2.3-16.8l1.2-.9C61.3 5 79.5-4.1 96.4 2.6c0 0 2.3 1.2 6.2 2.7v.1c12.7 7.7 15.2 14.7 15.2 14.7 15.8 15.1 22.9 44.9 26.1 54.8.4 1.2.9 2.3 1.4 3.4 0 0 0 .1.1.2z"/><linearGradient id="SVGID_10_" gradientUnits="userSpaceOnUse" x1="62.76" y1="76.157" x2="112.799" y2="76.157"><stop offset="0" stop-color="#EA5B59"/><stop offset="1" stop-color="#E37115"/></linearGradient><path class="st9" d="M96.4 91.7c4.3 10.3 12.5 20.4 12.5 20.4-7.7-1.1-14.2-5.4-19.5-10.5-9.8-9.3-15.2-21.3-15.2-21.3 2.5-8 2.9-21.4-11.4-36.9.7-1.2 1.5-2.2 2.3-3.2 47 10.1 24.3 34.7 31.3 51.5z"/><linearGradient id="SVGID_11_" gradientUnits="userSpaceOnUse" x1="42.392" y1="129.388" x2="91.229" y2="129.388"><stop offset="0" stop-color="#F5A91B"/><stop offset="1" stop-color="#EB5C59"/></linearGradient><path class="st10" d="M89.4 101.6s7.1 34.5-6.4 53.5c0 0-1.8 6.3 0 10.8 1.8 4.6-29.1 5.6-32.2 3.5-3.1-2.1 11.4-9.9 11.4-9.9C39.9 113 42.5 90.4 42.5 90.4c1.8-.6 3.9-1.2 6-1.7.7-.1 11.2-1.6 16.7 1.7 5.6 3.3 16.5 11.3 24.2 11.2z"/><linearGradient id="SVGID_12_" gradientUnits="userSpaceOnUse" x1="48.531" y1="90.965" x2="89.384" y2="90.965"><stop offset="0" stop-color="#8D303A"/><stop offset="1" stop-color="#D44441"/></linearGradient><path class="st11" d="M89.4 101.6c-7.7.1-18.5-7.9-24.2-11.3-5.4-3.3-16-1.8-16.7-1.7 6.8-1.6 14.7-2.5 21.7-.4 0 0 2.3-2.9 3.9-7.9 0 0 5.5 12 15.3 21.3z"/><linearGradient id="SVGID_13_" gradientUnits="userSpaceOnUse" x1="3.58" y1="50.883" x2="75.497" y2="50.883"><stop offset="0" stop-color="#FABC43"/><stop offset="1" stop-color="#ED754C"/></linearGradient><path class="st12" d="M62.8 43.4c14.3 15.5 13.9 28.9 11.4 36.9-1.6 5-3.9 7.9-3.9 7.9-41-47.1-47.4-17.6-47.5-17.2-2.5-1.8-4.3-.8-5.3.1l-.2-.3S8.9 54.6 5.1 66.2c-.9-2.9-1.4-6-1.4-9.2 0-3.3.5-6.5 1.5-9.5.9-2.8 2.1-5.4 3.7-7.7 1.9-2.9 4.3-5.4 7-7.5 2.8-2.1 6-3.8 9.4-4.9 0 0 13.9-3.8 27.5-14-11 12.3-2.3 16.8-2.3 16.8-1.6.9-3 1.9-4 2.8-3.4 3.2-.1 12 5.9 13.4 5.1 1.2 7.6 4.4 8.1 5.2 0 .4.1.2.1.2s0-.1-.1-.2c0-.5.2-1.9 1-5.6.4-.8.8-1.8 1.3-2.6z"/><linearGradient id="SVGID_14_" gradientUnits="userSpaceOnUse" x1="48.542" y1="34.299" x2="66.93" y2="34.299"><stop offset="0" stop-color="#F7B05A"/><stop offset="1" stop-color="#ED776A"/></linearGradient><path class="st13" d="M64.4 31.6c3.9 4.1 2.6 6.1.6 8.6 1.1-6.3-2.9-7.4-6.1-6.3-3.2 1.1-4.2 4.9-8.5 3.6-4.2-1.2-.2-7 0-7.3 4-2.1 9.5-3.3 14 1.4z"/><linearGradient id="SVGID_15_" gradientUnits="userSpaceOnUse" x1="45.111" y1="41.082" x2="65.217" y2="41.082"><stop offset="0" stop-color="#EA5B59"/><stop offset="1" stop-color="#9E433B"/></linearGradient><path class="st14" d="M62.8 43.4c-.5.8-.9 1.8-1.1 2.9-.9 3.7-1.1 5.1-1 5.6-.6-.9-3-4-8.1-5.2-6-1.4-9.4-10.3-5.9-13.4 1-.9 2.4-2 4-2.8-.2.2-4.2 6.1 0 7.3 4.3 1.2 5.3-2.5 8.5-3.6s7.2-.1 6.1 6.3c-1 .7-1.8 1.7-2.5 2.9z"/><linearGradient id="SVGID_16_" gradientUnits="userSpaceOnUse" x1="22.717" y1="78.025" x2="70.258" y2="78.025"><stop offset="0" stop-color="#D44441"/><stop offset="1" stop-color="#8D303A"/></linearGradient><path class="st15" d="M70.3 88.2c-7-2.1-15-1.3-21.7.4-2.1.5-4.2 1.1-6 1.7-5.8 1.9-9.9 4-10.1 4.1 1.1-1.8 2-3.9 2.3-6.3 1.5-10.6-6.2-11.6-10.7-16.1-.4-.4-.8-.8-1.2-1-.1-.4 6.4-29.8 47.4 17.2z"/><linearGradient id="SVGID_17_" gradientUnits="userSpaceOnUse" x1="60.578" y1="51.967" x2="60.726" y2="51.967"><stop offset="0" stop-color="#EA5B59"/><stop offset="1" stop-color="#F5A720"/></linearGradient><path class="st16" d="M60.7 52.1s-.1.2-.1-.2c.1.1.1.2.1.2z"/><linearGradient id="SVGID_18_" gradientUnits="userSpaceOnUse" x1="11.338" y1="86.083" x2="34.861" y2="86.083"><stop offset="0" stop-color="#F7B05A"/><stop offset="1" stop-color="#ED776A"/></linearGradient><path class="st17" d="M32.4 94.5c-3.9 6.1-11.2 8.5-14.3 7.3-3.8-1.5-4-3.2-4-3.4.5.2 1.1.3 1.7.3 2.9 0 5.2-2.3 5.2-5.2 0-2.9-2.3-5.2-5.2-5.2-1.9 0-3.5 1-4.5 2.5l3-10.6 2.3-8s.3-.4.8-.9c1-.9 2.8-1.9 5.3-.1.4.3.8.6 1.2 1 4.5 4.5 12.2 5.5 10.7 16.1-.3 2.3-1.1 4.4-2.2 6.2z"/><linearGradient id="SVGID_19_" gradientUnits="userSpaceOnUse" x1="10.57" y1="93.456" x2="21.012" y2="93.456"><stop offset="0" stop-color="#9E433B"/><stop offset="1" stop-color="#EA5B59"/></linearGradient><path class="st18" d="M14.1 98.4c-2.1-.7-3.5-2.6-3.5-4.9l.8-2.7c.9-1.5 2.6-2.5 4.5-2.5 2.9 0 5.2 2.3 5.2 5.2 0 2.9-2.3 5.2-5.2 5.2-.7 0-1.3-.1-1.8-.3z"/><linearGradient id="SVGID_20_" gradientUnits="userSpaceOnUse" x1="4.963" y1="71.141" x2="17.385" y2="71.141"><stop offset="0" stop-color="#F18E31"/><stop offset="1" stop-color="#EB5C59"/></linearGradient><path class="st19" d="M17.1 70.9l.2.3c-.5.5-.8.9-.8.9l-2.3 8-.8-.2C9.6 76.2 6.6 71.6 5 66.3c3.8-11.6 12.1 4.6 12.1 4.6z"/><linearGradient id="SVGID_21_" gradientUnits="userSpaceOnUse" x1="10.57" y1="92.096" x2="11.338" y2="92.096"><stop offset="0" stop-color="#EA5B59"/><stop offset="1" stop-color="#F5A720"/></linearGradient><path class="st20" d="M11.3 90.7l-.8 2.7c.1-.9.4-1.9.8-2.7z"/><linearGradient id="SVGID_22_" gradientUnits="userSpaceOnUse" x1=".248" y1="36.215" x2="15.791" y2="36.215"><stop offset="0" stop-color="#F7B05A"/><stop offset="1" stop-color="#ED776A"/></linearGradient><path class="st21" d="M15.8 32.4c-2.7 2.1-5.1 4.6-7 7.5-7-6.7-8 .7-8 .9-.5-1-.7-2.3-.4-4.2 1-7.7 15.4-4.2 15.4-4.2z"/><linearGradient id="SVGID_23_" gradientUnits="userSpaceOnUse" x1=".79" y1="42.35" x2="8.796" y2="42.35"><stop offset="0" stop-color="#EA5B59"/><stop offset="1" stop-color="#9E433B"/></linearGradient><path class="st22" d="M8.8 39.9c-1.6 2.4-2.8 5-3.7 7.7.7-4.2-2.9-3.9-4.3-6.8 0-.3 1-7.6 8-.9z"/></g><g id="XMLID_2_"><path class="st23" d="M582.2 100.2c2.4 2.4 3.7 5.4 3.7 9.2 0 4.8-2.3 9-6.8 12.5-4.7 3.7-11 5.5-18.7 5.5s-14-1.7-18.7-5.1c-4.7-3.4-7.1-8.2-7.2-14.3h13.2c.2 5.5 4.2 8.3 12.1 8.3 3 0 5.5-.7 7.5-2s2.9-2.9 2.9-4.6c0-1.8-.6-3.1-1.8-4.1s-3.1-1.8-5.6-2.6l-12.7-4.6c-9.4-3.3-14.2-8.6-14.2-16.1 0-5 2.2-8.9 6.7-11.9s10.4-4.5 17.9-4.5c7.5 0 13.2 1.6 17.3 4.9 4 3.3 6.1 7.4 6.3 12.4h-13.3c-.2-1.9-1.1-3.4-2.8-4.6s-4.1-1.7-7.2-1.7-5.5.6-7.3 1.9c-1.7 1.2-2.6 2.7-2.6 4.3 0 2.8 2.4 4.9 7.1 6.2l13.8 5.2c4.4 1.4 7.9 3.4 10.4 5.7zM523 73.4c5.5 5.6 8.3 13.4 8.3 23.3 0 9.8-2.8 17.4-8.3 23-5 5.1-11.6 7.7-19.9 7.7-8.3 0-15.1-2.6-20.2-7.7-5.5-5.5-8.3-13.2-8.3-23 0-10 2.8-17.8 8.3-23.3 5-5 11.8-7.6 20.2-7.6 3.9 0 7.6.6 11 1.9 3.4 1.2 6.4 3.1 8.9 5.7zm-5.9 23.2c0-6.2-1.2-10.8-3.6-13.9-2.4-3.1-5.7-4.6-10-4.6s-7.8 1.5-10.5 4.6c-2.7 3.1-4.1 7.7-4.1 13.9s1.2 10.8 3.7 13.9c2.4 3.1 5.8 4.6 10 4.6s7.7-1.5 10.4-4.6c2.7-3.2 4.1-7.8 4.1-13.9zM472 114.3l2 10c-5.3 2.1-9.4 3.1-12.5 3.1-3 0-5.7-.4-8-1.1-2.3-.7-4.3-1.8-6.1-3.2-3.7-3.3-5.5-7.8-5.5-13.6V76.9h-8.2V70l3.1-2.6h5V52H456v15.4h16v9.5h-15.8V109c0 4.8 2.3 7.2 6.8 7.2 2.3 0 5.3-.6 9-1.9z"/><path class="st23" d="M411.1 89l27.3 36.7h-17.3l-19.9-28.4-6.5 5.4v23h-14.2V43.4h14.2v44.5l23-20.5h16.1V70z"/><path class="st23" d="M436.9 67.4l-3.1 2.6v-2.6zM374.2 67.2l-.2 14.2c-2.2-.5-4.4-.7-6.6-.7-9.4 0-14.2 6.5-14.2 19.6v25.6H339V67.3h14.2v11.6c3.5-8.4 8.8-12.6 15.8-12.6 1.4 0 3.1.3 5.2.9zM308 47.8l25.6 77.9h-15l-8.9-27.5-10.8-33.4-11 33.4-9.1 27.5h-15l26.5-77.9z"/></g><path class="st24" d="M332.4 96.5s-15.8 10.1-33.8 2.4c-17.8-7.6-33.5 2.4-33.5 2.4"/></svg>