<?xml version="1.0" encoding="utf-8"?>
<!-- Generator: Adobe Illustrator 21.0.2, SVG Export Plug-In . SVG Version: 6.00 Build 0)  -->
<svg version="1.1" id="Layer_1" xmlns="http://www.w3.org/2000/svg" xmlns:xlink="http://www.w3.org/1999/xlink" x="0px" y="0px"
	 viewBox="0 0 591.1 175.1" style="enable-background:new 0 0 591.1 175.1;" xml:space="preserve">
<style type="text/css">
	.st0{fill:url(#SVGID_1_);}
	.st1{fill:url(#SVGID_2_);}
	.st2{fill:url(#SVGID_3_);}
	.st3{fill:url(#SVGID_4_);}
	.st4{fill:url(#SVGID_5_);}
	.st5{fill:url(#SVGID_6_);}
	.st6{fill:url(#SVGID_7_);}
	.st7{fill:url(#SVGID_8_);}
	.st8{fill:url(#SVGID_9_);}
	.st9{fill:url(#SVGID_10_);}
	.st10{fill:url(#SVGID_11_);}
	.st11{fill:url(#SVGID_12_);}
	.st12{fill:url(#SVGID_13_);}
	.st13{fill:url(#SVGID_14_);}
	.st14{fill:url(#SVGID_15_);}
	.st15{fill:url(#SVGID_16_);}
	.st16{fill:url(#SVGID_17_);}
	.st17{fill:url(#SVGID_18_);}
	.st18{fill:url(#SVGID_19_);}
	.st19{fill:url(#SVGID_20_);}
	.st20{fill:url(#SVGID_21_);}
	.st21{fill:url(#SVGID_22_);}
	.st22{fill:url(#SVGID_23_);}
	.st23{fill:#161617;}
	.st24{fill:none;stroke:#000000;stroke-width:0.5;stroke-linecap:round;stroke-linejoin:round;}
	.st25{fill:none;stroke:#161617;stroke-width:10;stroke-miterlimit:10;}
</style>
<g id="XMLID_3_">
	<g>
		<linearGradient id="SVGID_1_" gradientUnits="userSpaceOnUse" x1="200.1077" y1="143.7624" x2="237.6194" y2="143.7624">
			<stop  offset="2.141942e-07" style="stop-color:#F7B05A"/>
			<stop  offset="1" style="stop-color:#ED776A"/>
		</linearGradient>
		<path class="st0" d="M227.6,129.6c2.4,5.6,15.9,15.6,6.9,39.2c0,0-26.7,3.4-32.6,1.8s3.2-7.1,8.7-7.9c5.6-0.8-5.9-9.6-5.9-9.6
			c1.8-4.1,3.4-8.5,4.2-12.6c0.3-0.6,6.6-15.2,11.3-17.9c4.8-2.8,5.7-6,5.7-6C225.9,119.9,226,125.8,227.6,129.6z"/>
		<linearGradient id="SVGID_2_" gradientUnits="userSpaceOnUse" x1="153.2803" y1="107.8851" x2="229.8965" y2="107.8851">
			<stop  offset="0" style="stop-color:#D44441"/>
			<stop  offset="1" style="stop-color:#8D303A"/>
		</linearGradient>
		<path class="st1" d="M209,140.5c-0.8,4.1-2.3,8.5-4.2,12.6c-4.2,9.4-9.7,17.5-9.7,17.5h-41.8c0.3-11.5,9.3-9.7,9.3-9.7
			s11.4,1.9,10.6-2.4c-0.4-2.4-1.9-13.8-3-23.3c2.6,11,10.3,22.4,33.9-13.4c28.9-43.8,21-69.2,17.5-76.5c5.4,10,8.4,21.4,8.4,33.6
			l-0.7,10.1l-0.6,5c-2,13-12.7,27.4-12.7,27.4c-6.3,6.3-6.4,13.3-6.4,13.3C209.5,136.5,209.3,138.4,209,140.5z"/>
		<linearGradient id="SVGID_3_" gradientUnits="userSpaceOnUse" x1="200.1077" y1="117.1676" x2="237.6193" y2="117.1676">
			<stop  offset="0" style="stop-color:#F5A91B"/>
			<stop  offset="1" style="stop-color:#EB5C59"/>
		</linearGradient>
		<path class="st2" d="M228.6,93.9l-2.5,20.1c0,0-0.1,1-0.1,2.5c0,0-0.9,3.2-5.7,6c-4.7,2.7-11,17.3-11.3,17.9c0.4-2,0.6-4,0.4-5.8
			c0,0,0.1-7.1,6.4-13.3C215.8,121.3,226.5,106.9,228.6,93.9z"/>
		<linearGradient id="SVGID_4_" gradientUnits="userSpaceOnUse" x1="153.2803" y1="76.7787" x2="229.8981" y2="76.7787">
			<stop  offset="4.334883e-07" style="stop-color:#FFA613"/>
			<stop  offset="1" style="stop-color:#ED6B60"/>
		</linearGradient>
		<path class="st3" d="M221.5,45.2c3.5,7.3,11.4,32.7-17.5,76.5c-23.6,35.8-31.4,24.4-33.9,13.4c-0.5-4.1-1-7.9-1.3-10.4
			c-0.2-2-0.4-3.3-0.4-3.4c0,0,0,0,0,0c4-8.8,2-35.1,11.3-48.2c1.4-1.9,2.3-4.6,2.8-7.8c0.7-1.9,0.9-3.7,0.4-5.7
			c0.1-17.4-9.5-43.5-28.8-51.9c1.5-0.1,3-0.1,4.5-0.1c26.3,0,49.2,14.2,61.6,35.4c0,0,0,0,0,0C220.7,43.7,221.1,44.5,221.5,45.2z"
			/>
		<linearGradient id="SVGID_5_" gradientUnits="userSpaceOnUse" x1="166.1839" y1="62.4497" x2="211.4034" y2="62.4497">
			<stop  offset="2.141942e-07" style="stop-color:#F7B05A"/>
			<stop  offset="1" style="stop-color:#ED776A"/>
		</linearGradient>
		<path class="st4" d="M183,59.6c0.5,2,0.3,3.9-0.4,5.7C182.8,63.6,183,61.6,183,59.6z"/>
		<linearGradient id="SVGID_6_" gradientUnits="userSpaceOnUse" x1="105.1205" y1="50.0311" x2="183.7632" y2="50.0311">
			<stop  offset="0" style="stop-color:#EA5B59"/>
			<stop  offset="1" style="stop-color:#E37115"/>
		</linearGradient>
		<path class="st5" d="M183,59.6c0,2-0.1,4-0.4,5.7c-2.5,6.6-10.9,13.1-13.7,23.7c-1.5,5.4-10.2,7.6-18.6-16
			c-4.5-12.5-0.2-11.6-9.4-28c-9.1-16.1-20.2-22.7-20.5-22.9c0,0,0,0,0,0c0,0-2.4-7-15.2-14.7l0-0.1c7.7,2.8,21.7,6.3,36.5,2.1v0
			c4-1,8.2-1.6,12.5-1.9C173.5,16.1,183,42.1,183,59.6z"/>
		<linearGradient id="SVGID_7_" gradientUnits="userSpaceOnUse" x1="105.2308" y1="73.8126" x2="182.541" y2="73.8126">
			<stop  offset="4.334883e-07" style="stop-color:#8D303A"/>
			<stop  offset="1" style="stop-color:#D44441"/>
		</linearGradient>
		<path class="st6" d="M147.8,80.4c-0.5-1.1-1-2.2-1.4-3.4c-3.2-9.9-10.3-39.7-26.1-54.8c0.3,0.2,11.4,6.8,20.5,22.9
			c9.2,16.4,4.9,15.4,9.4,28c8.5,23.6,17.2,21.4,18.6,16c2.8-10.7,11.2-17.1,13.7-23.7c-0.5,3.2-1.4,5.9-2.8,7.8
			c-9.4,13.1-7.3,39.4-11.3,48.2c0,0,0,0,0,0c-0.6,1.4-1.4,2.4-2.4,2.8c-7.4,2.9-14.2,0-14.2,0h0c3.8-6.4,6.7-12.9,6.9-17.8
			c0.4-12.9-6.8-18-10.8-25.7C147.9,80.6,147.8,80.5,147.8,80.4z"/>
		<linearGradient id="SVGID_8_" gradientUnits="userSpaceOnUse" x1="49.67" y1="125.6038" x2="158.6705" y2="125.6038">
			<stop  offset="0" style="stop-color:#9E433B"/>
			<stop  offset="1" style="stop-color:#EA5B59"/>
		</linearGradient>
		<path class="st7" d="M147.9,80.6c4,7.7,11.2,12.7,10.8,25.7c-0.1,4.9-3,11.3-6.9,17.8c-7.7,13-19.2,26-19.2,26l3.7,20.3
			c-6,0.5-10.9-0.1-14.7-1.4v0c-21.2-25.8,11.2-44.7,22.4-59.1C154.4,96.5,148.8,82.6,147.9,80.6z"/>
		<linearGradient id="SVGID_9_" gradientUnits="userSpaceOnUse" x1="49.6704" y1="85.7118" x2="158.6666" y2="85.7118">
			<stop  offset="0" style="stop-color:#F5A91B"/>
			<stop  offset="1" style="stop-color:#EB5C59"/>
		</linearGradient>
		<path class="st8" d="M147.9,80.6c0.9,1.9,6.5,15.9-3.9,29.3c-11.2,14.4-43.5,33.3-22.4,59.1v0c-16.3-5.5-14.6-24.4-12.9-30.4
			c2.1-7.4,2.6-24.4,2.6-24.4s-8.2-10.1-12.5-20.4c-7-16.8,15.7-41.4-31.4-51.5c2-2.5,3.3-4.5-0.6-8.6c-4.5-4.8-10-3.5-14-1.3
			c0,0-8.8-4.5,2.3-16.8c0.4-0.3,0.8-0.6,1.2-0.9h0C63.8,7.2,82.1-2,99,4.8c0,0,2.3,1.2,6.2,2.7l0,0.1c12.7,7.7,15.2,14.7,15.2,14.7
			c0,0,0,0,0,0c15.8,15.1,22.9,44.9,26.1,54.8c0.4,1.2,0.9,2.3,1.4,3.4C147.8,80.5,147.9,80.6,147.9,80.6z"/>
		<linearGradient id="SVGID_10_" gradientUnits="userSpaceOnUse" x1="65.2953" y1="78.3247" x2="115.3351" y2="78.3247">
			<stop  offset="0" style="stop-color:#EA5B59"/>
			<stop  offset="1" style="stop-color:#E37115"/>
		</linearGradient>
		<path class="st9" d="M99,93.9c4.3,10.3,12.5,20.4,12.5,20.4c-7.7-1.1-14.2-5.4-19.5-10.5c-9.8-9.3-15.2-21.3-15.2-21.3
			c2.5-8,2.9-21.4-11.4-36.9c0.7-1.2,1.5-2.2,2.3-3.2C114.6,52.5,91.9,77.1,99,93.9z"/>
		<linearGradient id="SVGID_11_" gradientUnits="userSpaceOnUse" x1="44.9281" y1="131.5562" x2="93.7651" y2="131.5562">
			<stop  offset="0" style="stop-color:#F5A91B"/>
			<stop  offset="1" style="stop-color:#EB5C59"/>
		</linearGradient>
		<path class="st10" d="M91.9,103.8c0,0,7.1,34.5-6.4,53.5c0,0-1.8,6.3,0,10.8c1.8,4.6-29.1,5.6-32.2,3.5
			c-3.1-2.1,11.4-9.9,11.4-9.9C42.4,115.2,45,92.5,45,92.5c1.8-0.6,3.9-1.2,6-1.7c0,0,0,0,0,0c0.7-0.1,11.2-1.6,16.7,1.7
			C73.4,95.9,84.2,103.8,91.9,103.8z"/>
		<linearGradient id="SVGID_12_" gradientUnits="userSpaceOnUse" x1="51.0671" y1="93.1329" x2="91.9196" y2="93.1329">
			<stop  offset="4.334883e-07" style="stop-color:#8D303A"/>
			<stop  offset="1" style="stop-color:#D44441"/>
		</linearGradient>
		<path class="st11" d="M91.9,103.8c-7.7,0.1-18.5-7.9-24.2-11.3c-5.4-3.3-16-1.8-16.7-1.7c6.8-1.6,14.7-2.5,21.7-0.4
			c0,0,2.3-2.9,3.9-7.9C76.7,82.5,82.2,94.5,91.9,103.8z"/>
		<linearGradient id="SVGID_13_" gradientUnits="userSpaceOnUse" x1="6.1162" y1="53.0507" x2="78.0323" y2="53.0507">
			<stop  offset="1.295365e-06" style="stop-color:#FABC43"/>
			<stop  offset="1" style="stop-color:#ED754C"/>
		</linearGradient>
		<path class="st12" d="M65.3,45.6c14.3,15.5,13.9,28.9,11.4,36.9c-1.6,5-3.9,7.9-3.9,7.9c-41-47.1-47.4-17.6-47.5-17.2
			c-2.5-1.8-4.3-0.8-5.3,0.1l-0.2-0.3c0,0-8.4-16.2-12.2-4.6c-0.9-2.9-1.4-6-1.4-9.2c0-3.3,0.5-6.5,1.5-9.5c0.9-2.8,2.1-5.4,3.7-7.7
			c1.9-2.9,4.3-5.4,7-7.5c2.8-2.1,6-3.8,9.4-4.9c0,0,13.9-3.8,27.5-14C44.2,28,53,32.5,53,32.5s0,0,0,0c-1.6,0.9-3,1.9-4,2.8
			c-3.4,3.2-0.1,12,5.9,13.4c5.1,1.2,7.6,4.4,8.1,5.2c0,0.4,0.1,0.2,0.1,0.2s0-0.1-0.1-0.2c0-0.5,0.2-1.9,1-5.6
			C64.4,47.3,64.8,46.4,65.3,45.6z"/>
		<linearGradient id="SVGID_14_" gradientUnits="userSpaceOnUse" x1="51.0775" y1="36.4671" x2="69.4659" y2="36.4671">
			<stop  offset="2.141942e-07" style="stop-color:#F7B05A"/>
			<stop  offset="1" style="stop-color:#ED776A"/>
		</linearGradient>
		<path class="st13" d="M67,33.8c3.9,4.1,2.6,6.1,0.6,8.6c1.1-6.3-2.9-7.4-6.1-6.3c-3.2,1.1-4.2,4.9-8.5,3.6c-4.2-1.2-0.2-7,0-7.3
			c0,0,0,0,0,0C57,30.3,62.4,29.1,67,33.8z"/>
		<linearGradient id="SVGID_15_" gradientUnits="userSpaceOnUse" x1="47.647" y1="43.2493" x2="67.7524" y2="43.2493">
			<stop  offset="0" style="stop-color:#EA5B59"/>
			<stop  offset="1" style="stop-color:#9E433B"/>
		</linearGradient>
		<path class="st14" d="M65.3,45.6c-0.5,0.8-0.9,1.8-1.1,2.9c-0.9,3.7-1.1,5.1-1,5.6c-0.6-0.9-3-4-8.1-5.2c-6-1.4-9.4-10.3-5.9-13.4
			c1-0.9,2.4-2,4-2.8c-0.2,0.2-4.2,6.1,0,7.3c4.3,1.2,5.3-2.5,8.5-3.6c3.2-1.1,7.2-0.1,6.1,6.3C66.8,43.3,66,44.4,65.3,45.6z"/>
		<linearGradient id="SVGID_16_" gradientUnits="userSpaceOnUse" x1="25.2531" y1="80.1926" x2="72.7933" y2="80.1926">
			<stop  offset="0" style="stop-color:#D44441"/>
			<stop  offset="1" style="stop-color:#8D303A"/>
		</linearGradient>
		<path class="st15" d="M72.8,90.4c-7-2.1-15-1.3-21.7,0.4c0,0,0,0,0,0c-2.1,0.5-4.2,1.1-6,1.7c-5.8,1.9-9.9,4-10.1,4.1
			c1.1-1.8,2-3.9,2.3-6.3c1.5-10.6-6.2-11.6-10.7-16.1c-0.4-0.4-0.8-0.8-1.2-1c0,0,0,0,0,0C25.4,72.8,31.8,43.3,72.8,90.4z"/>
		<linearGradient id="SVGID_17_" gradientUnits="userSpaceOnUse" x1="63.1137" y1="54.1346" x2="63.262" y2="54.1346">
			<stop  offset="0" style="stop-color:#EA5B59"/>
			<stop  offset="1" style="stop-color:#F5A720"/>
		</linearGradient>
		<path class="st16" d="M63.3,54.2c0,0-0.1,0.2-0.1-0.2C63.2,54.1,63.3,54.2,63.3,54.2z"/>
		<linearGradient id="SVGID_18_" gradientUnits="userSpaceOnUse" x1="13.8737" y1="88.2504" x2="37.3968" y2="88.2504">
			<stop  offset="2.141942e-07" style="stop-color:#F7B05A"/>
			<stop  offset="1" style="stop-color:#ED776A"/>
		</linearGradient>
		<path class="st17" d="M34.9,96.7c-3.9,6.1-11.2,8.5-14.3,7.3c-3.8-1.5-4-3.2-4-3.4c0.5,0.2,1.1,0.3,1.7,0.3c2.9,0,5.2-2.3,5.2-5.2
			c0-2.9-2.3-5.2-5.2-5.2c-1.9,0-3.5,1-4.5,2.5l3-10.6l2.3-8c0,0,0.3-0.4,0.8-0.9c1-0.9,2.8-1.9,5.3-0.1c0,0,0,0,0,0
			c0.4,0.3,0.8,0.6,1.2,1c4.5,4.5,12.2,5.5,10.7,16.1C36.9,92.8,36,94.9,34.9,96.7z"/>
		<linearGradient id="SVGID_19_" gradientUnits="userSpaceOnUse" x1="13.1059" y1="95.6241" x2="23.548" y2="95.6241">
			<stop  offset="0" style="stop-color:#9E433B"/>
			<stop  offset="1" style="stop-color:#EA5B59"/>
		</linearGradient>
		<path class="st18" d="M16.6,100.6c-2.1-0.7-3.5-2.6-3.5-4.9l0.8-2.7c0.9-1.5,2.6-2.5,4.5-2.5c2.9,0,5.2,2.3,5.2,5.2
			c0,2.9-2.3,5.2-5.2,5.2C17.7,100.8,17.2,100.7,16.6,100.6z"/>
		<linearGradient id="SVGID_20_" gradientUnits="userSpaceOnUse" x1="7.4983" y1="73.3085" x2="19.9208" y2="73.3085">
			<stop  offset="0" style="stop-color:#F18E31"/>
			<stop  offset="1" style="stop-color:#EB5C59"/>
		</linearGradient>
		<path class="st19" d="M19.7,73.1l0.2,0.3c-0.5,0.5-0.8,0.9-0.8,0.9l-2.3,8L16,82.1c-3.9-3.7-6.9-8.3-8.5-13.6
			C11.3,56.9,19.7,73.1,19.7,73.1z"/>
		<linearGradient id="SVGID_21_" gradientUnits="userSpaceOnUse" x1="13.1059" y1="94.2633" x2="13.8737" y2="94.2633">
			<stop  offset="0" style="stop-color:#EA5B59"/>
			<stop  offset="1" style="stop-color:#F5A720"/>
		</linearGradient>
		<path class="st20" d="M13.9,92.9l-0.8,2.7C13.1,94.6,13.4,93.7,13.9,92.9z"/>
		<linearGradient id="SVGID_22_" gradientUnits="userSpaceOnUse" x1="2.7835" y1="38.3832" x2="18.3269" y2="38.3832">
			<stop  offset="2.141942e-07" style="stop-color:#F7B05A"/>
			<stop  offset="1" style="stop-color:#ED776A"/>
		</linearGradient>
		<path class="st21" d="M18.3,34.6c-2.7,2.1-5.1,4.6-7,7.5c-7-6.7-8,0.7-8,0.9c-0.5-1-0.7-2.3-0.4-4.2C4,31.1,18.3,34.6,18.3,34.6z"
			/>
		<linearGradient id="SVGID_23_" gradientUnits="userSpaceOnUse" x1="3.3256" y1="44.518" x2="11.332" y2="44.518">
			<stop  offset="0" style="stop-color:#EA5B59"/>
			<stop  offset="1" style="stop-color:#9E433B"/>
		</linearGradient>
		<path class="st22" d="M11.3,42.1c-1.6,2.4-2.8,5-3.7,7.7h0c0.7-4.2-2.9-3.9-4.3-6.8c0,0,0,0,0,0C3.4,42.7,4.4,35.4,11.3,42.1z"/>
	</g>
	<g>
	</g>
</g>
<g id="XMLID_1_">
	<g>
		<polygon class="st23" points="439.4,69.6 436.3,72.2 436.3,69.6 		"/>
		<path class="st23" d="M525.5,75.6c5.5,5.6,8.3,13.4,8.3,23.3c0,9.8-2.8,17.4-8.3,23c-5,5.1-11.6,7.7-19.9,7.7
			c-8.3,0-15.1-2.6-20.2-7.7c-5.5-5.5-8.3-13.2-8.3-23c0-10,2.8-17.8,8.3-23.3c5-5,11.8-7.6,20.2-7.6c3.9,0,7.6,0.6,11,1.9
			C520,71.1,523,73,525.5,75.6z M519.6,98.7c0-6.2-1.2-10.8-3.6-13.9c-2.4-3.1-5.7-4.6-10-4.6c-4.3,0-7.8,1.5-10.5,4.6
			c-2.7,3.1-4.1,7.7-4.1,13.9c0,6.2,1.2,10.8,3.7,13.9c2.4,3.1,5.8,4.6,10,4.6c4.2,0,7.7-1.5,10.4-4.6
			C518.2,109.5,519.6,104.9,519.6,98.7z"/>
		<path class="st23" d="M341.5,127.9V69.4h14.2v11.6c3.5-8.4,8.8-12.6,15.8-12.6c1.4,0,3.1,0.3,5.2,0.8l-0.2,14.2
			c-2.2-0.5-4.4-0.7-6.6-0.7c-9.4,0-14.2,6.5-14.2,19.6v25.6H341.5z"/>
		<path class="st23" d="M474.5,116.5l2,10c-5.3,2.1-9.4,3.1-12.5,3.1c-3,0-5.7-0.4-8-1.1s-4.3-1.8-6.1-3.2
			c-3.7-3.3-5.5-7.8-5.5-13.6V79h-8.2v-6.9l3.1-2.6h5V54.2h14.2v15.4h15.8V79h-15.8v32.2c0,4.8,2.3,7.2,6.8,7.2
			C467.8,118.4,470.8,117.8,474.5,116.5z"/>
		<polygon class="st23" points="321.1,127.9 312.2,100.4 301.4,66.9 290.4,100.4 281.3,127.9 266.3,127.9 292.8,50 310.6,50 
			336.1,127.9 		"/>
		<path class="st23" d="M584.7,102.4c2.4,2.4,3.7,5.4,3.7,9.2c0,4.8-2.3,9-6.8,12.5c-4.7,3.7-11,5.5-18.7,5.5s-14-1.7-18.7-5.1
			c-4.7-3.4-7.1-8.2-7.2-14.3h13.2c0.2,5.5,4.2,8.3,12.1,8.3c3,0,5.5-0.7,7.5-2c2-1.3,2.9-2.9,2.9-4.6s-0.6-3.1-1.8-4.1
			s-3.1-1.8-5.6-2.6l-12.7-4.6c-9.4-3.3-14.2-8.6-14.2-16.1c0-5,2.2-8.9,6.7-11.9s10.4-4.5,17.9-4.5c7.5,0,13.2,1.6,17.3,4.9
			c4,3.3,6.1,7.4,6.3,12.4h-13.3c-0.2-1.9-1.1-3.4-2.8-4.6s-4.1-1.7-7.2-1.7s-5.5,0.6-7.3,1.9c-1.7,1.2-2.6,2.7-2.6,4.3
			c0,2.8,2.4,4.9,7.1,6.2l13.8,5.2C578.8,98.1,582.3,100,584.7,102.4z"/>
		<polygon class="st23" points="413.6,91.2 440.9,127.9 423.6,127.9 403.7,99.4 397.2,104.8 397.2,127.9 383,127.9 383,45.6 
			397.2,45.6 397.2,90.1 420.2,69.6 436.3,69.6 436.3,72.2 		"/>
	</g>
	<g>
		<polygon class="st24" points="312.2,100.4 301.4,66.9 290.4,100.4 281.3,127.9 266.3,127.9 292.8,50 310.6,50 336.1,127.9 
			321.1,127.9 		"/>
		<path class="st24" d="M355.7,81.1c3.5-8.4,8.8-12.6,15.8-12.6c1.4,0,3.1,0.3,5.2,0.8l-0.2,14.2c-2.2-0.5-4.4-0.7-6.6-0.7
			c-9.4,0-14.2,6.5-14.2,19.6v25.6h-14.2V69.4h14.2V81.1z"/>
		<polyline class="st24" points="439.4,69.6 436.3,72.2 413.6,91.2 440.9,127.9 423.6,127.9 403.7,99.4 397.2,104.8 397.2,127.9 
			383,127.9 383,45.6 397.2,45.6 397.2,90.1 420.2,69.6 436.3,69.6 		"/>
		<path class="st24" d="M439.4,69.6h5V54.2h14.2v15.4h15.8V79h-15.8v32.2c0,4.8,2.3,7.2,6.8,7.2c2.3,0,5.3-0.6,9-1.9l2,10
			c-5.3,2.1-9.4,3.1-12.5,3.1c-3,0-5.7-0.4-8-1.1s-4.3-1.8-6.1-3.2c-3.7-3.3-5.5-7.8-5.5-13.6V79h-8.2v-6.9v-2.6H439.4z"/>
		<path class="st24" d="M505.6,68c3.9,0,7.6,0.6,11,1.9c3.4,1.2,6.4,3.1,8.9,5.7c5.5,5.6,8.3,13.4,8.3,23.3c0,9.8-2.8,17.4-8.3,23
			c-5,5.1-11.6,7.7-19.9,7.7c-8.3,0-15.1-2.6-20.2-7.7c-5.5-5.5-8.3-13.2-8.3-23c0-10,2.8-17.8,8.3-23.3
			C490.4,70.5,497.2,68,505.6,68z"/>
		<path class="st24" d="M519.6,98.7c0-6.2-1.2-10.8-3.6-13.9c-2.4-3.1-5.7-4.6-10-4.6c-4.3,0-7.8,1.5-10.5,4.6
			c-2.7,3.1-4.1,7.7-4.1,13.9c0,6.2,1.2,10.8,3.7,13.9c2.4,3.1,5.8,4.6,10,4.6c4.2,0,7.7-1.5,10.4-4.6
			C518.2,109.5,519.6,104.9,519.6,98.7z"/>
		<path class="st24" d="M550.1,110.1c0.2,5.5,4.2,8.3,12.1,8.3c3,0,5.5-0.7,7.5-2c2-1.3,2.9-2.9,2.9-4.6s-0.6-3.1-1.8-4.1
			s-3.1-1.8-5.6-2.6l-12.7-4.6c-9.4-3.3-14.2-8.6-14.2-16.1c0-5,2.2-8.9,6.7-11.9s10.4-4.5,17.9-4.5c7.5,0,13.2,1.6,17.3,4.9
			c4,3.3,6.1,7.4,6.3,12.4h-13.3c-0.2-1.9-1.1-3.4-2.8-4.6s-4.1-1.7-7.2-1.7s-5.5,0.6-7.3,1.9c-1.7,1.2-2.6,2.7-2.6,4.3
			c0,2.8,2.4,4.9,7.1,6.2l13.8,5.2c4.6,1.5,8.1,3.5,10.5,5.8c2.4,2.4,3.7,5.4,3.7,9.2c0,4.8-2.3,9-6.8,12.5
			c-4.7,3.7-11,5.5-18.7,5.5s-14-1.7-18.7-5.1c-4.7-3.4-7.1-8.2-7.2-14.3H550.1z"/>
	</g>
</g>
<path class="st25" d="M334.9,98.7c0,0-15.8,10.1-33.8,2.4c-17.8-7.6-33.5,2.4-33.5,2.4"/>
</svg>
