<svg id="Layer_1" xmlns="http://www.w3.org/2000/svg" viewBox="0 0 591.1 175.1"><style>.st23{fill:#161617}.st24{fill:none;stroke:#000;stroke-width:.5;stroke-linecap:round;stroke-linejoin:round}</style><g id="XMLID_3_"><linearGradient id="SVGID_1_" gradientUnits="userSpaceOnUse" x1="200.108" y1="143.762" x2="237.619" y2="143.762"><stop offset="0" stop-color="#f7b05a"/><stop offset="1" stop-color="#ed776a"/></linearGradient><path d="M227.6 129.6c2.4 5.6 15.9 15.6 6.9 39.2 0 0-26.7 3.4-32.6 1.8s3.2-7.1 8.7-7.9c5.6-.8-5.9-9.6-5.9-9.6 1.8-4.1 3.4-8.5 4.2-12.6.3-.6 6.6-15.2 11.3-17.9 4.8-2.8 5.7-6 5.7-6 0 3.3.1 9.2 1.7 13z" fill="url(#SVGID_1_)"/><linearGradient id="SVGID_2_" gradientUnits="userSpaceOnUse" x1="153.28" y1="107.885" x2="229.897" y2="107.885"><stop offset="0" stop-color="#d44441"/><stop offset="1" stop-color="#8d303a"/></linearGradient><path d="M209 140.5c-.8 4.1-2.3 8.5-4.2 12.6-4.2 9.4-9.7 17.5-9.7 17.5h-41.8c.3-11.5 9.3-9.7 9.3-9.7s11.4 1.9 10.6-2.4c-.4-2.4-1.9-13.8-3-23.3 2.6 11 10.3 22.4 33.9-13.4 28.9-43.8 21-69.2 17.5-76.5 5.4 10 8.4 21.4 8.4 33.6l-.7 10.1-.6 5c-2 13-12.7 27.4-12.7 27.4-6.3 6.3-6.4 13.3-6.4 13.3-.1 1.8-.3 3.7-.6 5.8z" fill="url(#SVGID_2_)"/><linearGradient id="SVGID_3_" gradientUnits="userSpaceOnUse" x1="200.108" y1="117.168" x2="237.619" y2="117.168"><stop offset="0" stop-color="#f5a91b"/><stop offset="1" stop-color="#eb5c59"/></linearGradient><path d="M228.6 93.9l-2.5 20.1s-.1 1-.1 2.5c0 0-.9 3.2-5.7 6-4.7 2.7-11 17.3-11.3 17.9.4-2 .6-4 .4-5.8 0 0 .1-7.1 6.4-13.3 0 0 10.7-14.4 12.8-27.4z" fill="url(#SVGID_3_)"/><linearGradient id="SVGID_4_" gradientUnits="userSpaceOnUse" x1="153.28" y1="76.779" x2="229.898" y2="76.779"><stop offset="0" stop-color="#ffa613"/><stop offset="1" stop-color="#ed6b60"/></linearGradient><path d="M221.5 45.2c3.5 7.3 11.4 32.7-17.5 76.5-23.6 35.8-31.4 24.4-33.9 13.4-.5-4.1-1-7.9-1.3-10.4-.2-2-.4-3.3-.4-3.4 4-8.8 2-35.1 11.3-48.2 1.4-1.9 2.3-4.6 2.8-7.8.7-1.9.9-3.7.4-5.7.1-17.4-9.5-43.5-28.8-51.9 1.5-.1 3-.1 4.5-.1 26.3 0 49.2 14.2 61.6 35.4.5.7.9 1.5 1.3 2.2z" fill="url(#SVGID_4_)"/><linearGradient id="SVGID_5_" gradientUnits="userSpaceOnUse" x1="166.184" y1="62.45" x2="211.403" y2="62.45"><stop offset="0" stop-color="#f7b05a"/><stop offset="1" stop-color="#ed776a"/></linearGradient><path d="M183 59.6c.5 2 .3 3.9-.4 5.7.2-1.7.4-3.7.4-5.7z" fill="url(#SVGID_5_)"/><linearGradient id="SVGID_6_" gradientUnits="userSpaceOnUse" x1="105.121" y1="50.031" x2="183.763" y2="50.031"><stop offset="0" stop-color="#ea5b59"/><stop offset="1" stop-color="#e37115"/></linearGradient><path d="M183 59.6c0 2-.1 4-.4 5.7-2.5 6.6-10.9 13.1-13.7 23.7-1.5 5.4-10.2 7.6-18.6-16-4.5-12.5-.2-11.6-9.4-28-9.1-16.1-20.2-22.7-20.5-22.9 0 0-2.4-7-15.2-14.7v-.1c7.7 2.8 21.7 6.3 36.5 2.1 4-1 8.2-1.6 12.5-1.9 19.3 8.6 28.8 34.6 28.8 52.1z" fill="url(#SVGID_6_)"/><linearGradient id="SVGID_7_" gradientUnits="userSpaceOnUse" x1="105.231" y1="73.813" x2="182.541" y2="73.813"><stop offset="0" stop-color="#8d303a"/><stop offset="1" stop-color="#d44441"/></linearGradient><path d="M147.8 80.4c-.5-1.1-1-2.2-1.4-3.4-3.2-9.9-10.3-39.7-26.1-54.8.3.2 11.4 6.8 20.5 22.9 9.2 16.4 4.9 15.4 9.4 28 8.5 23.6 17.2 21.4 18.6 16 2.8-10.7 11.2-17.1 13.7-23.7-.5 3.2-1.4 5.9-2.8 7.8-9.4 13.1-7.3 39.4-11.3 48.2-.6 1.4-1.4 2.4-2.4 2.8-7.4 2.9-14.2 0-14.2 0 3.8-6.4 6.7-12.9 6.9-17.8.4-12.9-6.8-18-10.8-25.7 0-.1-.1-.2-.1-.3z" fill="url(#SVGID_7_)"/><linearGradient id="SVGID_8_" gradientUnits="userSpaceOnUse" x1="49.67" y1="125.604" x2="158.671" y2="125.604"><stop offset="0" stop-color="#9e433b"/><stop offset="1" stop-color="#ea5b59"/></linearGradient><path d="M147.9 80.6c4 7.7 11.2 12.7 10.8 25.7-.1 4.9-3 11.3-6.9 17.8-7.7 13-19.2 26-19.2 26l3.7 20.3c-6 .5-10.9-.1-14.7-1.4-21.2-25.8 11.2-44.7 22.4-59.1 10.4-13.4 4.8-27.3 3.9-29.3z" fill="url(#SVGID_8_)"/><linearGradient id="SVGID_9_" gradientUnits="userSpaceOnUse" x1="49.67" y1="85.712" x2="158.667" y2="85.712"><stop offset="0" stop-color="#f5a91b"/><stop offset="1" stop-color="#eb5c59"/></linearGradient><path d="M147.9 80.6c.9 1.9 6.5 15.9-3.9 29.3-11.2 14.4-43.5 33.3-22.4 59.1-16.3-5.5-14.6-24.4-12.9-30.4 2.1-7.4 2.6-24.4 2.6-24.4s-8.2-10.1-12.5-20.4c-7-16.8 15.7-41.4-31.4-51.5 2-2.5 3.3-4.5-.6-8.6-4.5-4.8-10-3.5-14-1.3 0 0-8.8-4.5 2.3-16.8l1.2-.9C63.8 7.2 82.1-2 99 4.8c0 0 2.3 1.2 6.2 2.7v.1c12.7 7.7 15.2 14.7 15.2 14.7 15.8 15.1 22.9 44.9 26.1 54.8.4 1.2.9 2.3 1.4 3.4-.1 0 0 .1 0 .1z" fill="url(#SVGID_9_)"/><linearGradient id="SVGID_10_" gradientUnits="userSpaceOnUse" x1="65.295" y1="78.325" x2="115.335" y2="78.325"><stop offset="0" stop-color="#ea5b59"/><stop offset="1" stop-color="#e37115"/></linearGradient><path d="M99 93.9c4.3 10.3 12.5 20.4 12.5 20.4-7.7-1.1-14.2-5.4-19.5-10.5-9.8-9.3-15.2-21.3-15.2-21.3 2.5-8 2.9-21.4-11.4-36.9.7-1.2 1.5-2.2 2.3-3.2C114.6 52.5 91.9 77.1 99 93.9z" fill="url(#SVGID_10_)"/><linearGradient id="SVGID_11_" gradientUnits="userSpaceOnUse" x1="44.928" y1="131.556" x2="93.765" y2="131.556"><stop offset="0" stop-color="#f5a91b"/><stop offset="1" stop-color="#eb5c59"/></linearGradient><path d="M91.9 103.8s7.1 34.5-6.4 53.5c0 0-1.8 6.3 0 10.8 1.8 4.6-29.1 5.6-32.2 3.5-3.1-2.1 11.4-9.9 11.4-9.9C42.4 115.2 45 92.5 45 92.5c1.8-.6 3.9-1.2 6-1.7.7-.1 11.2-1.6 16.7 1.7 5.7 3.4 16.5 11.3 24.2 11.3z" fill="url(#SVGID_11_)"/><linearGradient id="SVGID_12_" gradientUnits="userSpaceOnUse" x1="51.067" y1="93.133" x2="91.92" y2="93.133"><stop offset="0" stop-color="#8d303a"/><stop offset="1" stop-color="#d44441"/></linearGradient><path d="M91.9 103.8c-7.7.1-18.5-7.9-24.2-11.3-5.4-3.3-16-1.8-16.7-1.7 6.8-1.6 14.7-2.5 21.7-.4 0 0 2.3-2.9 3.9-7.9.1 0 5.6 12 15.3 21.3z" fill="url(#SVGID_12_)"/><linearGradient id="SVGID_13_" gradientUnits="userSpaceOnUse" x1="6.116" y1="53.051" x2="78.032" y2="53.051"><stop offset="0" stop-color="#fabc43"/><stop offset="1" stop-color="#ed754c"/></linearGradient><path d="M65.3 45.6c14.3 15.5 13.9 28.9 11.4 36.9-1.6 5-3.9 7.9-3.9 7.9-41-47.1-47.4-17.6-47.5-17.2-2.5-1.8-4.3-.8-5.3.1l-.2-.3s-8.4-16.2-12.2-4.6c-.9-2.9-1.4-6-1.4-9.2 0-3.3.5-6.5 1.5-9.5.9-2.8 2.1-5.4 3.7-7.7 1.9-2.9 4.3-5.4 7-7.5 2.8-2.1 6-3.8 9.4-4.9 0 0 13.9-3.8 27.5-14C44.2 28 53 32.5 53 32.5c-1.6.9-3 1.9-4 2.8-3.4 3.2-.1 12 5.9 13.4 5.1 1.2 7.6 4.4 8.1 5.2 0 .4.1.2.1.2s0-.1-.1-.2c0-.5.2-1.9 1-5.6.4-1 .8-1.9 1.3-2.7z" fill="url(#SVGID_13_)"/><linearGradient id="SVGID_14_" gradientUnits="userSpaceOnUse" x1="51.078" y1="36.467" x2="69.466" y2="36.467"><stop offset="0" stop-color="#f7b05a"/><stop offset="1" stop-color="#ed776a"/></linearGradient><path d="M67 33.8c3.9 4.1 2.6 6.1.6 8.6 1.1-6.3-2.9-7.4-6.1-6.3-3.2 1.1-4.2 4.9-8.5 3.6-4.2-1.2-.2-7 0-7.3 4-2.1 9.4-3.3 14 1.4z" fill="url(#SVGID_14_)"/><linearGradient id="SVGID_15_" gradientUnits="userSpaceOnUse" x1="47.647" y1="43.249" x2="67.752" y2="43.249"><stop offset="0" stop-color="#ea5b59"/><stop offset="1" stop-color="#9e433b"/></linearGradient><path d="M65.3 45.6c-.5.8-.9 1.8-1.1 2.9-.9 3.7-1.1 5.1-1 5.6-.6-.9-3-4-8.1-5.2-6-1.4-9.4-10.3-5.9-13.4 1-.9 2.4-2 4-2.8-.2.2-4.2 6.1 0 7.3 4.3 1.2 5.3-2.5 8.5-3.6s7.2-.1 6.1 6.3c-1 .6-1.8 1.7-2.5 2.9z" fill="url(#SVGID_15_)"/><linearGradient id="SVGID_16_" gradientUnits="userSpaceOnUse" x1="25.253" y1="80.193" x2="72.793" y2="80.193"><stop offset="0" stop-color="#d44441"/><stop offset="1" stop-color="#8d303a"/></linearGradient><path d="M72.8 90.4c-7-2.1-15-1.3-21.7.4-2.1.5-4.2 1.1-6 1.7-5.8 1.9-9.9 4-10.1 4.1 1.1-1.8 2-3.9 2.3-6.3 1.5-10.6-6.2-11.6-10.7-16.1-.4-.4-.8-.8-1.2-1 0-.4 6.4-29.9 47.4 17.2z" fill="url(#SVGID_16_)"/><linearGradient id="SVGID_17_" gradientUnits="userSpaceOnUse" x1="63.114" y1="54.135" x2="63.262" y2="54.135"><stop offset="0" stop-color="#ea5b59"/><stop offset="1" stop-color="#f5a720"/></linearGradient><path d="M63.3 54.2s-.1.2-.1-.2c0 .1.1.2.1.2z" fill="url(#SVGID_17_)"/><linearGradient id="SVGID_18_" gradientUnits="userSpaceOnUse" x1="13.874" y1="88.25" x2="37.397" y2="88.25"><stop offset="0" stop-color="#f7b05a"/><stop offset="1" stop-color="#ed776a"/></linearGradient><path d="M34.9 96.7c-3.9 6.1-11.2 8.5-14.3 7.3-3.8-1.5-4-3.2-4-3.4.5.2 1.1.3 1.7.3 2.9 0 5.2-2.3 5.2-5.2 0-2.9-2.3-5.2-5.2-5.2-1.9 0-3.5 1-4.5 2.5l3-10.6 2.3-8s.3-.4.8-.9c1-.9 2.8-1.9 5.3-.1.4.3.8.6 1.2 1 4.5 4.5 12.2 5.5 10.7 16.1-.2 2.3-1.1 4.4-2.2 6.2z" fill="url(#SVGID_18_)"/><linearGradient id="SVGID_19_" gradientUnits="userSpaceOnUse" x1="13.106" y1="95.624" x2="23.548" y2="95.624"><stop offset="0" stop-color="#9e433b"/><stop offset="1" stop-color="#ea5b59"/></linearGradient><path d="M16.6 100.6c-2.1-.7-3.5-2.6-3.5-4.9l.8-2.7c.9-1.5 2.6-2.5 4.5-2.5 2.9 0 5.2 2.3 5.2 5.2 0 2.9-2.3 5.2-5.2 5.2-.7-.1-1.2-.2-1.8-.3z" fill="url(#SVGID_19_)"/><linearGradient id="SVGID_20_" gradientUnits="userSpaceOnUse" x1="7.498" y1="73.308" x2="19.921" y2="73.308"><stop offset="0" stop-color="#f18e31"/><stop offset="1" stop-color="#eb5c59"/></linearGradient><path d="M19.7 73.1l.2.3c-.5.5-.8.9-.8.9l-2.3 8-.8-.2c-3.9-3.7-6.9-8.3-8.5-13.6 3.8-11.6 12.2 4.6 12.2 4.6z" fill="url(#SVGID_20_)"/><linearGradient id="SVGID_21_" gradientUnits="userSpaceOnUse" x1="13.106" y1="94.263" x2="13.874" y2="94.263"><stop offset="0" stop-color="#ea5b59"/><stop offset="1" stop-color="#f5a720"/></linearGradient><path d="M13.9 92.9l-.8 2.7c0-1 .3-1.9.8-2.7z" fill="url(#SVGID_21_)"/><linearGradient id="SVGID_22_" gradientUnits="userSpaceOnUse" x1="2.784" y1="38.383" x2="18.327" y2="38.383"><stop offset="0" stop-color="#f7b05a"/><stop offset="1" stop-color="#ed776a"/></linearGradient><path d="M18.3 34.6c-2.7 2.1-5.1 4.6-7 7.5-7-6.7-8 .7-8 .9-.5-1-.7-2.3-.4-4.2 1.1-7.7 15.4-4.2 15.4-4.2z" fill="url(#SVGID_22_)"/><linearGradient id="SVGID_23_" gradientUnits="userSpaceOnUse" x1="3.326" y1="44.518" x2="11.332" y2="44.518"><stop offset="0" stop-color="#ea5b59"/><stop offset="1" stop-color="#9e433b"/></linearGradient><path d="M11.3 42.1c-1.6 2.4-2.8 5-3.7 7.7.7-4.2-2.9-3.9-4.3-6.8.1-.3 1.1-7.6 8-.9z" fill="url(#SVGID_23_)"/></g><g id="XMLID_1_"><path class="st23" d="M439.4 69.6l-3.1 2.6v-2.6zM525.5 75.6c5.5 5.6 8.3 13.4 8.3 23.3 0 9.8-2.8 17.4-8.3 23-5 5.1-11.6 7.7-19.9 7.7-8.3 0-15.1-2.6-20.2-7.7-5.5-5.5-8.3-13.2-8.3-23 0-10 2.8-17.8 8.3-23.3 5-5 11.8-7.6 20.2-7.6 3.9 0 7.6.6 11 1.9 3.4 1.2 6.4 3.1 8.9 5.7zm-5.9 23.1c0-6.2-1.2-10.8-3.6-13.9-2.4-3.1-5.7-4.6-10-4.6s-7.8 1.5-10.5 4.6c-2.7 3.1-4.1 7.7-4.1 13.9s1.2 10.8 3.7 13.9c2.4 3.1 5.8 4.6 10 4.6s7.7-1.5 10.4-4.6c2.7-3.1 4.1-7.7 4.1-13.9zM341.5 127.9V69.4h14.2V81c3.5-8.4 8.8-12.6 15.8-12.6 1.4 0 3.1.3 5.2.8l-.2 14.2c-2.2-.5-4.4-.7-6.6-.7-9.4 0-14.2 6.5-14.2 19.6v25.6h-14.2z"/><path class="st23" d="M474.5 116.5l2 10c-5.3 2.1-9.4 3.1-12.5 3.1-3 0-5.7-.4-8-1.1s-4.3-1.8-6.1-3.2c-3.7-3.3-5.5-7.8-5.5-13.6V79h-8.2v-6.9l3.1-2.6h5V54.2h14.2v15.4h15.8V79h-15.8v32.2c0 4.8 2.3 7.2 6.8 7.2 2.5 0 5.5-.6 9.2-1.9zM321.1 127.9l-8.9-27.5-10.8-33.5-11 33.5-9.1 27.5h-15L292.8 50h17.8l25.5 77.9zM584.7 102.4c2.4 2.4 3.7 5.4 3.7 9.2 0 4.8-2.3 9-6.8 12.5-4.7 3.7-11 5.5-18.7 5.5s-14-1.7-18.7-5.1c-4.7-3.4-7.1-8.2-7.2-14.3h13.2c.2 5.5 4.2 8.3 12.1 8.3 3 0 5.5-.7 7.5-2s2.9-2.9 2.9-4.6-.6-3.1-1.8-4.1-3.1-1.8-5.6-2.6l-12.7-4.6c-9.4-3.3-14.2-8.6-14.2-16.1 0-5 2.2-8.9 6.7-11.9s10.4-4.5 17.9-4.5c7.5 0 13.2 1.6 17.3 4.9 4 3.3 6.1 7.4 6.3 12.4h-13.3c-.2-1.9-1.1-3.4-2.8-4.6s-4.1-1.7-7.2-1.7-5.5.6-7.3 1.9c-1.7 1.2-2.6 2.7-2.6 4.3 0 2.8 2.4 4.9 7.1 6.2l13.8 5.2c4.5 1.4 8 3.3 10.4 5.7z"/><path class="st23" d="M413.6 91.2l27.3 36.7h-17.3l-19.9-28.5-6.5 5.4v23.1H383V45.6h14.2v44.5l23-20.5h16.1v2.6z"/><g><path class="st24" d="M312.2 100.4l-10.8-33.5-11 33.5-9.1 27.5h-15L292.8 50h17.8l25.5 77.9h-15zM355.7 81.1c3.5-8.4 8.8-12.6 15.8-12.6 1.4 0 3.1.3 5.2.8l-.2 14.2c-2.2-.5-4.4-.7-6.6-.7-9.4 0-14.2 6.5-14.2 19.6V128h-14.2V69.4h14.2v11.7zM439.4 69.6l-3.1 2.6-22.7 19 27.3 36.7h-17.3l-19.9-28.5-6.5 5.4v23.1H383V45.6h14.2v44.5l23-20.5h16.1"/><path class="st24" d="M439.4 69.6h5V54.2h14.2v15.4h15.8V79h-15.8v32.2c0 4.8 2.3 7.2 6.8 7.2 2.3 0 5.3-.6 9-1.9l2 10c-5.3 2.1-9.4 3.1-12.5 3.1-3 0-5.7-.4-8-1.1s-4.3-1.8-6.1-3.2c-3.7-3.3-5.5-7.8-5.5-13.6V79h-8.2v-9.5h3.3zM505.6 68c3.9 0 7.6.6 11 1.9 3.4 1.2 6.4 3.1 8.9 5.7 5.5 5.6 8.3 13.4 8.3 23.3 0 9.8-2.8 17.4-8.3 23-5 5.1-11.6 7.7-19.9 7.7-8.3 0-15.1-2.6-20.2-7.7-5.5-5.5-8.3-13.2-8.3-23 0-10 2.8-17.8 8.3-23.3 5-5.1 11.8-7.6 20.2-7.6z"/><path class="st24" d="M519.6 98.7c0-6.2-1.2-10.8-3.6-13.9-2.4-3.1-5.7-4.6-10-4.6s-7.8 1.5-10.5 4.6c-2.7 3.1-4.1 7.7-4.1 13.9s1.2 10.8 3.7 13.9c2.4 3.1 5.8 4.6 10 4.6s7.7-1.5 10.4-4.6c2.7-3.1 4.1-7.7 4.1-13.9zM550.1 110.1c.2 5.5 4.2 8.3 12.1 8.3 3 0 5.5-.7 7.5-2s2.9-2.9 2.9-4.6-.6-3.1-1.8-4.1-3.1-1.8-5.6-2.6l-12.7-4.6c-9.4-3.3-14.2-8.6-14.2-16.1 0-5 2.2-8.9 6.7-11.9s10.4-4.5 17.9-4.5c7.5 0 13.2 1.6 17.3 4.9 4 3.3 6.1 7.4 6.3 12.4h-13.3c-.2-1.9-1.1-3.4-2.8-4.6s-4.1-1.7-7.2-1.7-5.5.6-7.3 1.9c-1.7 1.2-2.6 2.7-2.6 4.3 0 2.8 2.4 4.9 7.1 6.2l13.8 5.2c4.6 1.5 8.1 3.5 10.5 5.8 2.4 2.4 3.7 5.4 3.7 9.2 0 4.8-2.3 9-6.8 12.5-4.7 3.7-11 5.5-18.7 5.5s-14-1.7-18.7-5.1c-4.7-3.4-7.1-8.2-7.2-14.3h13.1z"/></g></g><path d="M334.9 98.7s-15.8 10.1-33.8 2.4c-17.8-7.6-33.5 2.4-33.5 2.4" fill="none" stroke="#161617" stroke-width="10" stroke-miterlimit="10"/></svg>