<svg class="stroke-logo" xmlns="http://www.w3.org/2000/svg" viewBox="0 0 199.1 148"><circle cx="131.2" cy="65.8" r="58.6"/><circle cx="71" cy="36.3" r="33.3"/><circle cx="31.3" cy="49.7" r="25.6"/><circle cx="15.8" cy="79.6" r="4.3"/><path d="M11.5 79.6L15.8 62s3-3.7 6.7 0 10.1 4.5 8.8 13.3C30.1 84 20.9 87.7 17.7 86.4s-3.3-2.8-3.3-2.8m7.1-22.4s5.1-24.9 39.1 14.1M16.9 61.1s-6.9-13.3-10-3.8"/><path d="M29.4 80.5s17.6-9.2 31.2-5.2c0 0 13.1-16.3-6.5-37.2M23.5 25.4s12.2-3.3 23.6-12.3m35-8.2s16.8 9.1 35.1 4M15.8 29.4S4 26.5 3.1 32.8s4.7 4.5 3.9 9"/><path d="M63.8 68.8s10.7 23.5 28.6 26.1c0 0-.4 13.9-2.2 20-1.7 6.1-3.5 28.3 22.6 26.1l-3-16.7s21-23.8 21.4-36c.4-12.2-7.5-15.9-10.1-24s-8.5-32.7-21.5-45.1"/><path d="M125.6 103s5.6 2.4 11.7 0 2.4-29.5 11.3-41.9c7.1-9.8 0-44.9-21.3-53.9"/><path d="M139.2 100.7s3.2 27.1 3.9 30.6c.7 3.5-8.7 2-8.7 2s-7.4-1.4-7.6 8h34.4s12.4-18.2 11.8-29.5c0 0 .1-5.8 5.3-11"/><path d="M189.2 74l-2.5 20.7s-.7 8.3 1.3 12.8 13.1 12.8 5.7 32.2c0 0-22 2.8-26.8 1.5-4.8-1.3 2.6-5.8 7.2-6.5 4.6-.7-4.9-7.9-4.9-7.9M76.3 86.3s7.8 32.3-5.3 45.3c0 0-1.5 5.8 0 9.6s-21.3 4.6-23.9 2.9 6.7-8.1 6.7-8.1C35.6 97.7 37.7 77.1 37.7 77.1m15-31.5s-1.9-3.3-6.8-4.5c-4.9-1.2-7.7-8.4-4.9-11s9.5-6.7 14.8-1.3-1 6.5-2.3 12-.8 4.8-.8 4.8z"/><path d="M44.3 27.7s-3.5 5 0 6 4.4-2.1 7-3c2.6-.9 5.9-.1 5 5.2m-52.9.4s.7-6.3 6.6-.7"/></svg>