<?xml version="1.0" encoding="utf-8"?>
<!-- Generator: Adobe Illustrator 23.0.0, SVG Export Plug-In . SVG Version: 6.00 Build 0)  -->
<svg version="1.1" xmlns="http://www.w3.org/2000/svg" xmlns:xlink="http://www.w3.org/1999/xlink" x="0px" y="0px"
	 viewBox="0 0 654.2 239.6" style="enable-background:new 0 0 654.2 239.6;" xml:space="preserve">
<style type="text/css">
	.st0{display:none;}
	.st1{display:inline;fill:#EB5C59;}
	.st2{display:inline;fill:none;stroke:#FFFFFF;stroke-width:1.0245;stroke-miterlimit:10;}
	.st3{fill:none;stroke:#FFFFFF;stroke-width:1.8338;stroke-miterlimit:10;}
	.st4{fill:none;stroke:#FFFFFF;stroke-width:1.4226;stroke-miterlimit:10;}
	.st5{fill:none;stroke:#FFFFFF;stroke-width:1.8093;stroke-miterlimit:10;}
	.st6{fill:none;stroke:#FFFFFF;stroke-width:2.4479;stroke-miterlimit:10;}
	.st7{fill:none;stroke:#FFFFFF;stroke-width:1.4036;stroke-miterlimit:10;}
	.st8{display:inline;opacity:0.5;fill:none;stroke:#FFFFFF;stroke-width:0.455;stroke-miterlimit:10;}
	.st9{display:inline;opacity:0.5;fill:none;stroke:#FFFFFF;stroke-width:0.4596;stroke-miterlimit:10;}
	.st10{display:inline;opacity:0.5;fill:none;stroke:#FFFFFF;stroke-width:0.1532;stroke-miterlimit:10;}
	.st11{display:inline;opacity:0.5;fill:none;stroke:#FFFFFF;stroke-width:0.6739;stroke-miterlimit:10;}
	.st12{display:inline;opacity:0.5;fill:none;stroke:#FFFFFF;stroke-width:0.2808;stroke-miterlimit:10;}
	.st13{display:inline;opacity:0.5;fill:none;stroke:#FFFFFF;stroke-width:0.509;stroke-miterlimit:10;}
</style>
<g id="Layer_3" class="st0">
	<rect x="-1.2" y="-0.1" class="st1" width="657" height="240"/>
	<polygon class="st2" points="635,202.5 626.1,197.3 626.1,207.6 	"/>
</g>
<g id="Layer_1">
	<rect x="45.4" y="44.5" class="st3" width="19.6" height="19.6"/>
	<circle class="st3" cx="91.2" cy="109.6" r="10.4"/>
	<circle class="st4" cx="13" cy="214.7" r="12.2"/>
	<polygon class="st3" points="76,157.6 66.8,173.5 85.1,173.5 	"/>
	<polygon class="st3" points="1.8,148.1 17.7,157.2 17.7,138.9 	"/>
	<rect x="634.1" y="95.5" class="st5" width="19.3" height="19.3"/>
	<circle class="st6" cx="569.1" cy="165.9" r="13.9"/>
	<polygon class="st3" points="13,29.8 22.2,13.9 3.8,13.9 	"/>
	<polygon class="st5" points="572.7,46.6 581.7,30.9 563.6,30.9 	"/>
	<circle class="st7" cx="626" cy="50.9" r="12.1"/>
	<polygon class="st5" points="594.9,99.7 577.5,104.3 590.3,117.1 	"/>
</g>
<g id="Layer_2" class="st0">
	<polygon class="st8" points="121,206.6 125,221.4 135.8,210.5 	"/>
	<polygon class="st9" points="571.2,0.4 563.4,13.9 578.9,13.9 	"/>
	<rect x="608.5" y="84.4" class="st10" width="7" height="7"/>
	<ellipse class="st9" cx="555.1" cy="93.1" rx="5.5" ry="5.5"/>
	<ellipse class="st9" cx="43.3" cy="160.8" rx="6.1" ry="6.1"/>
	<rect x="70.8" y="211" class="st9" width="10.4" height="10.5"/>
	<line class="st9" x1="83.9" y1="118.9" x2="92.1" y2="149.7"/>
	<line class="st9" x1="593.5" y1="48.4" x2="581.9" y2="65.2"/>
	<line class="st9" x1="531" y1="214.2" x2="540.9" y2="228.2"/>
	<line class="st9" x1="109.5" y1="3.3" x2="122.2" y2="1"/>
	<line class="st11" x1="82.8" y1="21.3" x2="102.5" y2="41.1"/>
	<line class="st9" x1="600.7" y1="157.9" x2="608.8" y2="188.7"/>
	<rect x="607.9" y="19.3" class="st12" width="12.8" height="12.8"/>
	<ellipse class="st9" cx="584.7" cy="197.7" rx="5.5" ry="5.5"/>
	<polygon class="st9" points="634.2,147.4 626.4,160.9 641.9,160.9 	"/>
	<line class="st9" x1="604.8" y1="220.9" x2="589.8" y2="226.9"/>
	<ellipse class="st9" cx="17.3" cy="119.8" rx="6.1" ry="6.1"/>
	<polygon class="st9" points="634.2,147.4 626.4,160.9 641.9,160.9 	"/>
	<polygon class="st13" points="60.4,107.8 43.8,112.4 55.9,124.5 	"/>
	<rect x="13.9" y="54.3" class="st12" width="12.8" height="12.8"/>
</g>
</svg>
