<svg preserveAspectRatio="none" id="Layer_1" xmlns="http://www.w3.org/2000/svg" viewBox="0 0 654.2 239.6"><style>.st0{display:none}.st1{display:inline;fill:#eb5c59}.st2,.st3,.st4,.st5,.st6,.st7{fill:none;stroke:#fff;stroke-miterlimit:10}.st2{display:inline;stroke-width:1.0245}.st3,.st4,.st5,.st6,.st7{stroke-width:1.8338}.st4,.st5,.st6,.st7{stroke-width:1.4226}.st5,.st6,.st7{stroke-width:1.8093}.st6,.st7{stroke-width:2.4479}.st7{stroke-width:1.4036}.st8{display:inline;stroke-width:.455}.st10,.st8,.st9{opacity:.5;fill:none;stroke:#fff;stroke-miterlimit:10;enable-background:new}.st9{display:inline;stroke-width:.4596}.st10{stroke-width:.1532}.st10,.st11,.st12{display:inline}.st11{opacity:.5;fill:none;stroke:#fff;stroke-miterlimit:10;enable-background:new;stroke-width:.6739}.st12{stroke-width:.2808}.st12,.st13,.st14,.st15,.st16,.st17,.st18,.st19{opacity:.5;fill:none;stroke:#fff;stroke-miterlimit:10;enable-background:new}.st13{display:inline;stroke-width:.509}.st14,.st15,.st16,.st17,.st18,.st19{stroke-width:.455}.st15,.st16,.st17,.st18,.st19{stroke-width:.4596}.st16,.st17,.st18,.st19{stroke-width:.1532}.st17,.st18,.st19{stroke-width:.6739}.st18,.st19{stroke-width:.2808}.st19{stroke-width:.509}</style><g id="Layer_3" class="st0"><path class="st1" d="M-1.2-.1h657v240h-657z"/><path class="st2" d="M635 202.5l-8.9-5.2v10.3z"/></g><g id="Layer_1_1_"><path class="st3" d="M45.4 44.5H65v19.6H45.4z"/><circle class="st3" cx="91.2" cy="109.6" r="10.4"/><circle class="st4" cx="26" cy="213.7" r="12.2"/><path class="st3" d="M76 157.6l-9.2 15.9h18.3zM14.8 146.1l15.9 9.1v-18.3z"/><path class="st5" d="M623.1 99.5h19.3v19.3h-19.3z"/><circle class="st6" cx="569.1" cy="165.9" r="13.9"/><path class="st3" d="M13 29.8l9.2-15.9H3.8z"/><path class="st5" d="M572.7 46.6l9-15.7h-18.1z"/><circle class="st7" cx="626" cy="50.9" r="12.1"/><path class="st5" d="M594.9 99.7l-17.4 4.6 12.8 12.8z"/></g><g id="Layer_2" class="st0"><path class="st8" d="M121 206.6l4 14.8 10.8-10.9z"/><path class="st9" d="M571.2.4l-7.8 13.5h15.5z"/><path class="st10" d="M608.5 84.4h7v7h-7z"/><ellipse class="st9" cx="555.1" cy="93.1" rx="5.5" ry="5.5"/><ellipse class="st9" cx="43.3" cy="160.8" rx="6.1" ry="6.1"/><path class="st9" d="M70.8 211h10.4v10.5H70.8zM83.9 118.9l8.2 30.8M593.5 48.4l-11.6 16.8M531 214.2l9.9 14M109.5 3.3L122.2 1"/><path class="st11" d="M82.8 21.3l19.7 19.8"/><path class="st9" d="M600.7 157.9l8.1 30.8"/><path class="st12" d="M607.9 19.3h12.8v12.8h-12.8z"/><ellipse class="st9" cx="584.7" cy="197.7" rx="5.5" ry="5.5"/><path class="st9" d="M634.2 147.4l-7.8 13.5h15.5zM604.8 220.9l-15 6"/><ellipse class="st9" cx="17.3" cy="119.8" rx="6.1" ry="6.1"/><path class="st9" d="M634.2 147.4l-7.8 13.5h15.5z"/><path class="st13" d="M60.4 107.8l-16.6 4.6 12.1 12.1z"/><path class="st12" d="M13.9 54.3h12.8v12.8H13.9z"/></g><g id="Layer_2_1_"><path class="st14" d="M121 206.6l4 14.8 10.8-10.9z"/><path class="st15" d="M571.2.4l-7.8 13.5h15.5z"/><path class="st16" d="M608.5 84.4h7v7h-7z"/><ellipse class="st15" cx="555.1" cy="93.1" rx="5.5" ry="5.5"/><ellipse class="st15" cx="43.3" cy="160.8" rx="6.1" ry="6.1"/><path class="st15" d="M70.8 211h10.4v10.5H70.8zM83.9 118.9l8.2 30.8M593.5 48.4l-11.6 16.8M531 214.2l9.9 14M109.5 3.3L122.2 1"/><path class="st17" d="M82.8 21.3l19.7 19.8"/><path class="st15" d="M600.7 157.9l8.1 30.8"/><path class="st18" d="M607.9 19.3h12.8v12.8h-12.8z"/><ellipse class="st15" cx="584.7" cy="197.7" rx="5.5" ry="5.5"/><path class="st15" d="M634.2 147.4l-7.8 13.5h15.5zM604.8 220.9l-15 6"/><ellipse class="st15" cx="17.3" cy="119.8" rx="6.1" ry="6.1"/><path class="st15" d="M634.2 147.4l-7.8 13.5h15.5z"/><path class="st19" d="M60.4 107.8l-16.6 4.6 12.1 12.1z"/><path class="st18" d="M13.9 54.3h12.8v12.8H13.9z"/></g></svg>
