<?xml version="1.0" encoding="utf-8"?>
<!-- Generator: Adobe Illustrator 21.0.2, SVG Export Plug-In . SVG Version: 6.00 Build 0)  -->
<svg version="1.1" id="Layer_1" xmlns="http://www.w3.org/2000/svg" xmlns:xlink="http://www.w3.org/1999/xlink" x="0px" y="0px"
	 viewBox="0 0 992 34" style="enable-background:new 0 0 992 34;" xml:space="preserve">
<style type="text/css">
	.st0{fill:none;stroke:#FFFFFF;stroke-width:12;stroke-miterlimit:10;}
</style>
<path class="st0" d="M0,27C41.3,27,41.3,7,82.7,7C124,7,124,27,165.3,27c41.3,0,41.3-20,82.7-20c41.3,0,41.3,20,82.7,20
	C372,27,372,7,413.3,7c41.3,0,41.3,20,82.7,20c41.3,0,41.3-20,82.7-20C620,7,620,27,661.3,27c41.3,0,41.3-20,82.7-20
	c41.3,0,41.3,20,82.7,20C868,27,868,7,909.3,7c41.3,0,41.3,20,82.7,20"/>
</svg>
