<?xml version="1.0" encoding="utf-8"?>
<!-- Generator: Adobe Illustrator 21.0.2, SVG Export Plug-In . SVG Version: 6.00 Build 0)  -->
<svg version="1.1" id="Layer_1" xmlns="http://www.w3.org/2000/svg" xmlns:xlink="http://www.w3.org/1999/xlink" x="0px" y="0px"
	 viewBox="0 0 992 34" style="enable-background:new 0 0 992 34;" xml:space="preserve">
<style type="text/css">
	.st0{fill:none;stroke:#FFFFFF;stroke-width:12;stroke-miterlimit:10;}
</style>
<g>
	<path class="st0" d="M0,7c41.3,0,41.3,20,82.7,20C124,27,124,7,165.3,7c41.3,0,41.3,20,82.7,20c41.3,0,41.3-20,82.7-20
		C372,7,372,27,413.3,27c41.3,0,41.3-20,82.7-20c41.3,0,41.3,20,82.7,20C620,27,620,7,661.3,7c41.3,0,41.3,20,82.7,20
		c41.3,0,41.3-20,82.7-20C868,7,868,27,909.3,27c41.3,0,41.3-20,82.7-20"/>
</g>
</svg>
