<svg id="Layer_1" xmlns="http://www.w3.org/2000/svg" viewBox="0 0 706 36"><style>.st0,.st1{fill:none;stroke-width:18;stroke-miterlimit:10}.st0{opacity:1;stroke:#eb5c59}.st1{stroke:#161617}</style><path class="st0" d="M706 12.6c-44.1 0-44.1 14-88.2 14s-44.1-14-88.2-14-44.1 14-88.3 14-44.1-14-88.3-14c-44.1 0-44.1 14-88.2 14s-44.1-14-88.2-14-44.1 14-88.3 14-44.1-14-88.3-14"/><path class="st1" d="M706 9.4c-44.1 0-44.1 14-88.2 14s-44.1-14-88.2-14-44.1 14-88.3 14-44.1-14-88.3-14c-44.1 0-44.1 14-88.2 14s-44.1-14-88.2-14-44.1 14-88.3 14S44.1 9.4 0 9.4"/></svg>