<svg xmlns="http://www.w3.org/2000/svg" viewBox="0 0 388 16"><style>.st0{display:none}.st1{display:inline}.st2{fill:#050505}.st3{fill:none;stroke:#fff;stroke-width:2;stroke-miterlimit:10}</style><g id="Layer_1" class="st0"><g class="st1"><path class="st2" d="M0 0h388v16H0z"/></g></g><path class="st3" d="M388 13.5c-12.1 0-12.1-12-24.2-12s-12.1 12-24.2 12-12.1-12-24.2-12-12.1 12-24.2 12-12.1-12-24.2-12-12.1 12-24.2 12-12.1-12-24.2-12-12.1 12-24.2 12-12.1-12-24.2-12-12.1 12-24.2 12-12.1-12-24.3-12c-12.1 0-12.1 12-24.3 12-12.1 0-12.1-12-24.3-12-12.1 0-12.1 12-24.3 12-12.1 0-12.1-12-24.3-12s-12.1 12-24.3 12" id="Layer_2"/></svg>