<?xml version="1.0" encoding="utf-8"?>
<!-- Generator: Adobe Illustrator 21.0.2, SVG Export Plug-In . SVG Version: 6.00 Build 0)  -->
<svg version="1.1" id="Layer_1" xmlns="http://www.w3.org/2000/svg" xmlns:xlink="http://www.w3.org/1999/xlink" x="0px" y="0px"
	 viewBox="0 0 706 36" style="enable-background:new 0 0 706 36;" xml:space="preserve">
<style type="text/css">
	.st0{opacity:0.18;fill:none;stroke:#FFFFFF;stroke-width:18;stroke-miterlimit:10;}
	.st1{fill:none;stroke:#FFFFFF;stroke-width:18;stroke-miterlimit:10;}
</style>
<path class="st0" d="M706,12.6c-44.1,0-44.1,14-88.2,14c-44.1,0-44.1-14-88.2-14c-44.1,0-44.1,14-88.3,14s-44.1-14-88.3-14
	c-44.1,0-44.1,14-88.2,14c-44.1,0-44.1-14-88.2-14c-44.1,0-44.1,14-88.3,14s-44.1-14-88.3-14"/>
<path class="st1" d="M706,9.4c-44.1,0-44.1,14-88.2,14c-44.1,0-44.1-14-88.2-14c-44.1,0-44.1,14-88.3,14s-44.1-14-88.3-14
	c-44.1,0-44.1,14-88.2,14c-44.1,0-44.1-14-88.2-14c-44.1,0-44.1,14-88.3,14S44.1,9.4,0,9.4"/>
</svg>
