<?xml version="1.0" encoding="utf-8"?>
<!-- Generator: Adobe Illustrator 21.0.2, SVG Export Plug-In . SVG Version: 6.00 Build 0)  -->
<svg version="1.1" xmlns="http://www.w3.org/2000/svg" xmlns:xlink="http://www.w3.org/1999/xlink" x="0px" y="0px"
	 viewBox="0 0 388 16" style="enable-background:new 0 0 388 16;" xml:space="preserve">
<style type="text/css">
	.st0{display:none;}
	.st1{display:inline;}
	.st2{fill:#050505;}
	.st3{fill:none;stroke:#FFFFFF;stroke-width:2;stroke-miterlimit:10;}
</style>
<g id="Layer_1" class="st0">
	<g class="st1">
		<rect class="st2" width="388" height="16"/>
	</g>
</g>
<g id="Layer_2">
	<g>
		<path class="st3" d="M388,13.5c-12.1,0-12.1-12-24.2-12c-12.1,0-12.1,12-24.2,12c-12.1,0-12.1-12-24.2-12c-12.1,0-12.1,12-24.2,12
			c-12.1,0-12.1-12-24.2-12c-12.1,0-12.1,12-24.2,12c-12.1,0-12.1-12-24.2-12c-12.1,0-12.1,12-24.2,12c-12.1,0-12.1-12-24.2-12
			c-12.1,0-12.1,12-24.2,12c-12.1,0-12.1-12-24.3-12c-12.1,0-12.1,12-24.3,12c-12.1,0-12.1-12-24.3-12c-12.1,0-12.1,12-24.3,12
			c-12.1,0-12.1-12-24.3-12s-12.1,12-24.3,12"/>
	</g>
</g>
</svg>
