<svg xmlns="http://www.w3.org/2000/svg" viewBox="0 0 370.5 19"><style>.st0{display:none}.st1{fill:#161617}.st1,.st2{display:inline}.st3{opacity:.18;enable-background:new}.st4{fill:#161617}.st5{fill:none}</style><g id="Layer_2" class="st0"><path class="st1" d="M0 .1h370.5V19H0z"/></g><g id="Layer_3_1_" class="st0"><path class="st1" d="M0 0h370.5v19H0z"/></g><g id="Layer_1" class="st0"><path class="st1" d="M-167.7-8.4h706v36h-706z"/><g id="Layer_4" class="st2"><g class="st3"><path class="st4" d="M324.2 18.8c-12.3 0-18.5-2-24.6-3.9-5.6-1.8-10.9-3.5-21.7-3.5-10.8 0-16.1 1.7-21.7 3.5-6 1.9-12.3 3.9-24.6 3.9s-18.6-2-24.6-3.9c-5.6-1.8-10.9-3.5-21.7-3.5-10.9 0-16.1 1.7-21.7 3.5-6 1.9-12.3 3.9-24.6 3.9s-18.5-2-24.6-3.9c-5.6-1.8-10.9-3.5-21.7-3.5-10.8 0-16.1 1.7-21.7 3.5-6 1.9-12.3 3.9-24.6 3.9s-18.6-2-24.6-3.9c-5.6-1.8-10.9-3.5-21.7-3.5V2c12.3 0 18.6 2 24.6 3.9 5.6 1.8 10.9 3.5 21.7 3.5s16.2-1.7 21.8-3.5C74.2 4 80.4 2 92.7 2s18.5 2 24.6 3.9c5.6 1.8 10.9 3.5 21.7 3.5 10.9 0 16.1-1.7 21.7-3.5C166.7 4 173 2 185.3 2s18.6 2 24.6 3.9c5.6 1.8 10.9 3.5 21.7 3.5s16.2-1.7 21.8-3.5C259.4 4 265.7 2 278 2s18.5 2 24.6 3.9c5.6 1.8 10.9 3.5 21.7 3.5 10.9 0 16.1-1.7 21.7-3.5C352 4 358.3 2 370.5 2v9.4c-10.9 0-16.1 1.7-21.7 3.5-6 1.9-12.3 3.9-24.6 3.9z"/></g><path class="st4" d="M324.2 17.1c-12.3 0-18.5-2-24.6-3.9-5.6-1.8-10.9-3.5-21.7-3.5-10.8 0-16.1 1.7-21.7 3.5-6 1.9-12.3 3.9-24.6 3.9s-18.6-2-24.6-3.9c-5.6-1.8-10.9-3.5-21.7-3.5-10.9 0-16.1 1.7-21.7 3.5-6 1.9-12.3 3.9-24.6 3.9s-18.5-2-24.6-3.9c-5.6-1.8-10.9-3.5-21.7-3.5-10.8 0-16.1 1.7-21.7 3.5-6 1.9-12.3 3.9-24.6 3.9s-18.6-2-24.6-3.9c-5.7-1.8-11-3.4-21.8-3.4V.3c12.3 0 18.5 2 24.6 3.9C30.2 6 35.5 7.7 46.3 7.7S62.5 6 68.1 4.2C74.1 2.3 80.4.3 92.7.3s18.5 2 24.6 3.9c5.6 1.8 10.9 3.5 21.7 3.5 10.9 0 16.1-1.7 21.7-3.5 6-1.9 12.3-3.9 24.6-3.9s18.6 2 24.6 3.9c5.6 1.8 10.9 3.5 21.7 3.5s16.2-1.7 21.8-3.5c6-1.9 12.3-3.9 24.6-3.9s18.5 2 24.6 3.9c5.6 1.8 10.9 3.5 21.7 3.5 10.9 0 16.1-1.7 21.7-3.5 6-1.9 12.3-3.9 24.6-3.9v9.4c-10.9 0-16.1 1.7-21.7 3.5-6.1 1.9-12.4 3.9-24.7 3.9z"/><path class="st4" d="M0 .1h370.5v8.6H0z"/><g><path class="st5" d="M0 .1h370.5V19H0z"/></g><path class="st5" d="M0 .1h370.5V19H0z"/></g></g><g id="Layer_4_1_"><g class="st3"><path class="st4" d="M46.3.1c12.3 0 18.5 2 24.6 3.9 5.6 1.8 10.9 3.5 21.7 3.5 10.8 0 16.1-1.7 21.7-3.5 6-1.9 12.3-3.9 24.6-3.9s18.6 2 24.6 3.9c5.6 1.8 10.9 3.5 21.7 3.5S201.4 5.8 207 4c6-1.9 12.3-3.9 24.6-3.9s18.5 2 24.6 3.9c5.6 1.8 10.9 3.5 21.7 3.5 10.8 0 16.1-1.7 21.7-3.5 6-1.9 12.3-3.9 24.6-3.9s18.6 2 24.6 3.9c5.6 1.8 10.9 3.5 21.7 3.5v9.4c-12.3 0-18.6-2-24.6-3.9-5.6-1.8-10.9-3.5-21.7-3.5S308 11.2 302.4 13c-6 1.9-12.3 3.9-24.6 3.9s-18.5-2-24.6-3.9c-5.6-1.8-10.9-3.5-21.7-3.5-10.9 0-16.1 1.7-21.7 3.5-6 1.9-12.3 3.9-24.6 3.9s-18.6-2-24.6-3.9c-5.6-1.8-10.9-3.5-21.7-3.5s-16.2 1.7-21.8 3.5c-6 1.9-12.3 3.9-24.6 3.9S74.1 14.9 68 13c-5.6-1.8-10.9-3.5-21.7-3.5S30.2 11.2 24.6 13c-6 1.9-12.3 3.9-24.6 3.9V7.5c10.9 0 16.1-1.7 21.7-3.5C27.8 2.1 34 .1 46.3.1z"/></g><path class="st4" d="M46.3 1.8c12.3 0 18.5 2 24.6 3.9 5.6 1.8 10.9 3.5 21.7 3.5 10.8 0 16.1-1.7 21.7-3.5 6-1.9 12.3-3.9 24.6-3.9s18.6 2 24.6 3.9c5.6 1.8 10.9 3.5 21.7 3.5s16.1-1.7 21.7-3.5c6-1.9 12.3-3.9 24.6-3.9s18.5 2 24.6 3.9c5.6 1.8 10.9 3.5 21.7 3.5 10.8 0 16.1-1.7 21.7-3.5 6-1.9 12.3-3.9 24.6-3.9s18.6 2 24.6 3.9c5.6 1.8 10.9 3.5 21.7 3.5v9.4c-12.3 0-18.5-2-24.6-3.9-5.6-1.8-10.9-3.5-21.8-3.5s-16.2 1.7-21.8 3.5c-6 1.9-12.3 3.9-24.6 3.9s-18.5-2-24.6-3.9c-5.6-1.8-10.9-3.5-21.7-3.5-10.9 0-16.1 1.7-21.7 3.5-6 1.9-12.3 3.9-24.6 3.9s-18.6-2-24.6-3.9c-5.6-1.8-10.9-3.5-21.7-3.5s-16.2 1.7-21.8 3.5c-6 1.9-12.3 3.9-24.6 3.9s-18.5-2-24.6-3.9c-5.6-1.8-10.9-3.5-21.7-3.5s-16.1 1.7-21.7 3.5c-6 1.9-12.3 3.9-24.6 3.9V9.1c10.9 0 16.1-1.7 21.7-3.5C27.8 3.8 34 1.8 46.3 1.8z"/><path class="st4" d="M0 10.2h370.5v8.6H0z"/><g><path class="st5" d="M0 0h370.5v18.9H0z"/></g><path class="st5" d="M0 0h370.5v18.9H0z"/></g></svg>
